<?xml version="1.0" encoding="UTF-8"?>
<svg width="884.93" height="613.66" data-name="Layer 1" version="1.1" viewBox="0 0 884.93 613.66" xmlns="http://www.w3.org/2000/svg" xmlns:cc="http://creativecommons.org/ns#" xmlns:dc="http://purl.org/dc/elements/1.1/" xmlns:rdf="http://www.w3.org/1999/02/22-rdf-syntax-ns#">
 <metadata>
  <rdf:RDF>
   <cc:Work rdf:about="">
    <dc:format>image/svg+xml</dc:format>
    <dc:type rdf:resource="http://purl.org/dc/dcmitype/StillImage"/>
    <dc:title>upvote</dc:title>
   </cc:Work>
  </rdf:RDF>
 </metadata>
 <defs>
  <linearGradient id="573ecdfd-5ff6-4890-b409-fb0c4abc2893" x1="442.47" x2="442.47" y1="613.66" gradientUnits="userSpaceOnUse">
   <stop stop-color="gray" stop-opacity=".25" offset="0"/>
   <stop stop-color="gray" stop-opacity=".12" offset=".54"/>
   <stop stop-color="gray" stop-opacity=".1" offset="1"/>
  </linearGradient>
 </defs>
 <title>upvote</title>
 <g opacity=".5">
  <polygon points="0 0 0 30.96 0 613.66 884.93 613.66 884.93 30.96 884.93 0" fill="url(#573ecdfd-5ff6-4890-b409-fb0c4abc2893)"/>
 </g>
 <rect x="13.13" y="11.33" width="862.43" height="41.54" ry="4.1429" style="fill:#f5f5f5"/>
 <circle cx="45.95" cy="31.47" r="10.07" fill="#ff5252"/>
 <circle cx="73.64" cy="31.47" r="10.07" fill="#ff0"/>
 <circle cx="101.33" cy="31.47" r="10.07" fill="#69f0ae"/>
 <g>
  <rect x="13.13" y="51.47" width="862.43" height="551.28" ry="4.3501" style="fill:#f5f7fa;stroke-width:.98816"/>
 </g>
 <g>
  <rect x="13.13" y="51.07" width="862.43" height="33.8" style="fill:#19216b;stroke-width:.90204"/>
 </g>
 <g>
  <rect x="91.986" y="218.18" width="701.91" height="384.35" style="fill-opacity:.99032;fill:#fff"/>
 </g>
 <g>
  <rect x="681.2" y="102.76" width="112.2" height="56.1" rx="1.6112" ry="1.6112" style="fill:#fff;stroke-width:1.002"/>
  <rect x="563.2" y="102.76" width="112.2" height="56.1" rx="1.6112" ry="1.6112" style="fill:#fff;stroke-width:1.002"/>
  <rect x="446.24" y="102.76" width="112.2" height="56.1" rx="1.6112" ry="1.6112" style="fill:#fff;stroke-width:1.002"/>
  <rect x="328.04" y="102.76" width="112.2" height="56.1" rx="1.6112" ry="1.6112" style="fill:#fff;stroke-width:1.002"/>
  <rect x="210.51" y="102.76" width="112.2" height="56.1" rx="1.6112" ry="1.6112" style="fill:#fff;stroke-width:1.002"/>
  <rect x="93.011" y="102.76" width="112.2" height="56.1" ry="1.6112" style="fill:#fff;stroke-width:1.002"/>
 </g>
 <g>
  <rect x="93.216" y="177.41" width="145" height="26.515" rx="1.6112" ry="1.6112" style="fill:#fff"/>
 </g>
 <g>
  <rect x="689.6" y="176.73" width="104.58" height="28.27" rx="1.6112" ry="1.6112" style="fill:#3ae7e1;stroke-width:1.0148"/>
 </g>
 <g>
  <g transform="matrix(.048389 0 0 .048389 89.171 59.216)">
   <path class="st0" d="m107.8 179.5c-4.6 0.7-9.5-1-12.6-5-4.5-5.8-3.5-14.1 2.3-18.7l37-28.9c5.8-4.5 14.1-3.5 18.7 2.3 4.5 5.8 3.5 14.1-2.3 18.7l-37 28.9c-1.8 1.5-3.9 2.4-6.1 2.7z" style="fill:#3ae7e1"/>
  </g>
  <g transform="matrix(.048389 0 0 .048389 89.171 59.216)">
   <path class="st1" d="m71.9 207.7c-4.6 0.7-9.5-1-12.6-4.9-4.5-5.8-3.5-14.1 2.3-18.7l3.5-2.7c5.8-4.5 14.1-3.5 18.7 2.3 4.5 5.8 3.5 14.1-2.3 18.7l-3.5 2.7c-1.8 1.4-3.9 2.3-6.1 2.6z" style="fill:#f5f7fa"/>
  </g>
  <g transform="matrix(.048389 0 0 .048389 89.171 59.216)">
   <path class="st0" d="m67.1 283.6c-4.6 0.7-9.5-1-12.6-5-4.5-5.8-3.5-14.1 2.3-18.7l81.2-63.4c5.8-4.5 14.2-3.5 18.7 2.3s3.5 14.1-2.3 18.7l-81.2 63.5c-1.9 1.4-4 2.3-6.1 2.6z" style="fill:#3ae7e1"/>
  </g>
  <g transform="matrix(.048389 0 0 .048389 89.171 59.216)">
   <path class="st1" d="m182.8 193.6c-4.6 0.7-9.5-1-12.6-5-4.5-5.8-3.5-14.1 2.3-18.7l12.9-10.1c5.8-4.5 14.1-3.5 18.7 2.3 4.5 5.8 3.5 14.1-2.3 18.7l-12.9 10.1c-1.9 1.4-4 2.3-6.1 2.7z" style="fill:#f5f7fa"/>
  </g>
  <g transform="matrix(.048389 0 0 .048389 89.171 59.216)">
   <path class="st0" d="m175.7 271.1c-4.6 0.7-9.5-1-12.6-5-4.5-5.8-3.5-14.1 2.3-18.7l66.6-52c5.8-4.5 14.2-3.5 18.7 2.3s3.5 14.1-2.3 18.7l-66.6 52c-1.8 1.5-3.9 2.4-6.1 2.7z" style="fill:#3ae7e1"/>
  </g>
  <path class="st1" d="m95.912 73.732c-0.22258 0.03386-0.45968-0.04838-0.60968-0.24194-0.21774-0.28065-0.16936-0.68712 0.11129-0.90485l0.22742-0.17904c0.28065-0.21774 0.68712-0.16936 0.90485 0.1113 0.21774 0.28064 0.16936 0.68711-0.11129 0.90484l-0.22743 0.17904c-0.09193 0.07262-0.19355 0.11613-0.29517 0.13065z" style="fill:#f5f7fa;stroke-width:.048389"/>
  <path class="st0" d="m112.16 61.171h-14.942c-0.55645 0-1.0742 0.34356-1.2387 0.87581-0.07742 0.24678-0.07258 0.4984 0 0.72581 0.07259 0.23226 0.21775 0.44517 0.42096 0.60484 0 0 5.7244 4.4467 7.1274 5.4145 0.50323 0.32419 0.99197 0.21291 1.2823-0.0097l7.2631-5.6516v9.7695c0 0.95324-0.77419 1.7274-1.7274 1.7274h-13.728c-0.35323 0-0.63873 0.28548-0.63873 0.63872 0 0.35807 0.29033 0.6484 0.6484 0.6484h13.713c1.6645 0 3.0145-1.35 3.0145-3.0145v-10.534c5e-3 -0.65807-0.53224-1.1952-1.1952-1.1952zm-10.336 5.3275 5e-3 -0.03386 0.0193 0.02905zm2.3371 1.1613-6.6533-5.2016h13.331z" style="fill:#3ae7e1;stroke-width:.048389"/>
  <rect x="124.53" y="68.213" width="33.929" height="5" ry="2.5" style="fill:#fff;stroke-width:.32978"/>
  <rect x="168.53" y="68.213" width="45.061" height="5" ry="2.5" style="fill:#bed0f7;stroke-width:.38005"/>
  <rect x="222.53" y="68.213" width="39.788" height="5" ry="2.5" style="fill:#bed0f7;stroke-width:.35712"/>
  <rect x="272.53" y="68.213" width="48.576" height="5" ry="2.5" style="fill:#bed0f7;stroke-width:.3946"/>
  <rect x="746.53" y="68.213" width="33.929" height="5" ry="2.5" style="fill:#fff;stroke-width:.32978"/>
  <g transform="matrix(.43106 0 0 .43106 783.33 65.763)" style="fill:none;stroke-linecap:round;stroke-linejoin:round;stroke-width:2;stroke:#fff">
   <polyline points="6 9 12 15 18 9" style="stroke:#fff"/>
  </g>
  <g transform="matrix(.43106 0 0 .43106 150.96 226.92)" style="fill:none;stroke-linecap:round;stroke-linejoin:round;stroke-width:2;stroke:#1cd4d4">
   <polyline points="6 9 12 15 18 9" style="stroke:#1cd4d4"/>
  </g>
 </g>
 <g>
  <rect x="101.16" y="143.46" width="32.994" height="5" ry="2.5" style="fill-opacity:.78431;fill:#cbd2d9;stroke-width:.3252"/>
  <rect x="219.16" y="143.46" width="40.658" height="5" ry="2.5" style="fill-opacity:.78431;fill:#cbd2d9;stroke-width:.36101"/>
  <rect x="337.03" y="143.05" width="87.266" height="5" ry="2.5" style="fill-opacity:.78431;fill:#cbd2d9;stroke-width:.52889"/>
  <rect x="455.03" y="143.05" width="74.63" height="5" ry="2.5" style="fill-opacity:.78431;fill:#cbd2d9;stroke-width:.4891"/>
  <rect x="573.03" y="143.05" width="63.651" height="5" ry="2.5" style="fill-opacity:.78431;fill:#cbd2d9;stroke-width:.4517"/>
  <rect x="691.03" y="143.05" width="75.666" height="5" ry="2.5" style="fill-opacity:.78431;fill:#cbd2d9;stroke-width:.49248"/>
  <text x="99.895752" y="130.8793" style="fill:#000000;font-family:sans-serif;font-size:40px;letter-spacing:0px;line-height:1.25;word-spacing:0px" xml:space="preserve"><tspan x="99.895752" y="130.8793" style="fill:#2d3a8c;font-family:sans-serif;font-size:17.333px;font-weight:bold">42</tspan></text>
  <text x="217.89575" y="130.8793" style="fill:#000000;font-family:sans-serif;font-size:40px;letter-spacing:0px;line-height:1.25;word-spacing:0px" xml:space="preserve"><tspan x="217.89575" y="130.8793" style="fill:#2d3a8c;font-family:sans-serif;font-size:17.333px;font-weight:bold">8</tspan></text>
  <text x="337.89575" y="130.8793" style="fill:#000000;font-family:sans-serif;font-size:40px;letter-spacing:0px;line-height:1.25;word-spacing:0px" xml:space="preserve"><tspan x="337.89575" y="130.8793" style="fill:#2d3a8c;font-family:sans-serif;font-size:17.333px;font-weight:bold">934</tspan></text>
  <text x="455.89575" y="130.8793" style="fill:#000000;font-family:sans-serif;font-size:40px;letter-spacing:0px;line-height:1.25;word-spacing:0px" xml:space="preserve"><tspan x="455.89575" y="130.8793" style="fill:#2d3a8c;font-family:sans-serif;font-size:17.333px;font-weight:bold">109</tspan></text>
  <text x="571.89575" y="130.8793" style="fill:#000000;font-family:sans-serif;font-size:40px;letter-spacing:0px;line-height:1.25;word-spacing:0px" xml:space="preserve"><tspan x="571.89575" y="130.8793" style="fill:#2d3a8c;font-family:sans-serif;font-size:17.333px;font-weight:bold">21</tspan></text>
  <text x="689.89575" y="130.8793" style="fill:#000000;font-family:sans-serif;font-size:40px;letter-spacing:0px;line-height:1.25;word-spacing:0px" xml:space="preserve"><tspan x="689.89575" y="130.8793" style="fill:#2d3a8c;font-family:sans-serif;font-size:17.333px;font-weight:bold">4.26</tspan></text>
  <text x="733.89575" y="130.8793" style="fill:#000000;font-family:sans-serif;font-size:40px;letter-spacing:0px;line-height:1.25;word-spacing:0px" xml:space="preserve"><tspan x="733.89575" y="130.8793" style="fill:#2d3a8c;font-family:sans-serif;font-size:8px;font-weight:bold">MB</tspan></text>
  <path transform="matrix(1.5027 0 0 1.5027 168.58 103.01)" d="m22 11.08v0.92a10 10 0 1 1-5.93-9.14" style="fill:none;stroke-linecap:round;stroke-linejoin:round;stroke-width:2;stroke:#e0e8f9"/>
  <polyline transform="matrix(1.5027 0 0 1.5027 168.58 103.01)" points="22 4 12 14.01 9 11.01" style="fill:none;stroke-linecap:round;stroke-linejoin:round;stroke-width:2;stroke:#e0e8f9"/>
  <g transform="matrix(1.5037 0 0 1.5037 286.41 103.28)" style="fill:none;stroke-linecap:round;stroke-linejoin:round;stroke-width:2;stroke:#e0e8f9">
   <circle cx="12" cy="12" r="10" style="stroke:#e0e8f9"/>
   <line x1="15" x2="9" y1="9" y2="15" style="stroke:#e0e8f9"/>
   <line x1="9" x2="15" y1="9" y2="15" style="stroke:#e0e8f9"/>
  </g>
  <g transform="matrix(1.4988 0 0 1.4988 404.38 102.98)" style="fill:none;stroke-linecap:round;stroke-linejoin:round;stroke-opacity:.98387;stroke-width:2;stroke:#e0e8f9">
   <line x1="22" x2="11" y1="2" y2="13" style="stroke-opacity:.98387;stroke:#e0e8f9"/>
   <polygon points="15 22 11 13 2 9 22 2" style="stroke-opacity:.98387;stroke:#e0e8f9"/>
  </g>
  <g transform="matrix(1.5179 0 0 1.5179 521.92 102.95)" style="fill:none;stroke-linecap:round;stroke-linejoin:round;stroke-opacity:.99355;stroke-width:2;stroke:#e0e8f9">
   <circle cx="12" cy="12" r="10" style="stroke-opacity:.99355;stroke:#e0e8f9"/>
   <line x1="4.93" x2="19.07" y1="4.93" y2="19.07" style="stroke-opacity:.99355;stroke:#e0e8f9"/>
  </g>
  <g transform="matrix(1.5516 0 0 1.5516 639.29 102.86)" style="fill:none;stroke-linecap:round;stroke-linejoin:round;stroke-width:2;stroke:#e0e8f9">
   <polyline points="9 14 4 9 9 4" style="stroke:#e0e8f9"/>
   <path d="m20 20v-7a4 4 0 0 0-4-4h-12" style="stroke:#e0e8f9"/>
  </g>
  <g transform="matrix(1.5059 0 0 1.5059 757.36 103.09)" style="fill:none;stroke-linecap:round;stroke-linejoin:round;stroke-width:2;stroke:#e0e8f9">
   <polyline points="22 12 16 12 14 15 10 15 8 12 2 12" style="stroke:#e0e8f9"/>
   <path d="m5.45 5.11-3.45 6.89v6a2 2 0 0 0 2 2h16a2 2 0 0 0 2-2v-6l-3.45-6.89a2 2 0 0 0-1.79-1.11h-9.52a2 2 0 0 0-1.79 1.11z" style="stroke:#e0e8f9"/>
  </g>
  <g transform="matrix(.49275 0 0 .49275 222.26 184.85)" style="fill:none;stroke-linecap:round;stroke-linejoin:round;stroke-width:2;stroke:#9aa5b1">
   <line x1="21" x2="16.65" y1="21" y2="16.65" style="stroke:#9aa5b1"/>
  </g>
  <rect x="709.23" y="188.73" width="67.17" height="5" rx="2.5" ry="2.5" style="fill-opacity:.70588;fill:#05606e;stroke-width:.46401"/>
  <rect x="99.298" y="188.67" width="61.58" height="5" ry="2.5" style="fill:#e4e7eb;stroke-width:.44428"/>
  <circle transform="matrix(.49275 0 0 .49275 222.26 184.85)" cx="11" cy="11" r="8" style="fill:none;stroke-linecap:round;stroke-linejoin:round;stroke-width:2;stroke:#9aa5b1"/>
  <rect x="99.712" y="229.63" width="34.628" height="5" ry="2.5" style="fill:#e4e7eb;stroke-width:.33316"/>
  <rect x="167.71" y="229.63" width="25.721" height="5" ry="2.5" style="fill:#e4e7eb;stroke-width:.28714"/>
  <rect x="447.71" y="229.63" width="46.85" height="5" ry="2.5" style="fill:#e4e7eb;stroke-width:.38752"/>
  <rect x="521.71" y="229.63" width="47.886" height="5" ry="2.5" style="fill:#e4e7eb;stroke-width:.39178"/>
  <rect x="595.51" y="229.63" width="36.907" height="5" ry="2.5" style="fill:#e4e7eb;stroke-width:.34395"/>
  <rect x="657.51" y="229.63" width="32.971" height="5" ry="2.5" style="fill:#e4e7eb;stroke-width:.32509"/>
  <rect x="713.51" y="229.63" width="30.693" height="5" style="fill:#e4e7eb;stroke-width:.31366"/>
  <rect x="167.71" y="272.63" width="57.506" height="5" style="fill:#e4e7eb;stroke-width:.42934"/>
  <g transform="matrix(1.1792 0 0 .98861 715.59 257.14)" style="fill:#1cd4d4;stroke-linecap:round;stroke-linejoin:round;stroke-opacity:.99032;stroke-width:2;stroke:#1cd4d4">
   <rect x="1" y="5" width="22" height="14" rx="5.9363" ry="7.0806" style="fill:#1cd4d4;stroke-opacity:.99032;stroke:#1cd4d4"/>
   <circle cx="16" cy="12" r="3" style="fill:#1cd4d4;stroke-opacity:.99032;stroke:#1cd4d4"/>
   <rect x="1" y="5" width="22" height="14" rx="5.9363" ry="7.0806" style="fill:#1cd4d4;stroke-opacity:.99032;stroke:#1cd4d4"/>
  </g>
  <circle cx="734.69" cy="268.84" r="4.9301" style="fill:#fff;stroke-width:1.2466;stroke:#fff"/>
  <g transform="matrix(.55527 0 0 .55527 771.48 261.4)" style="fill:none;stroke-linecap:round;stroke-linejoin:round;stroke-width:2;stroke:#cbd2d9">
   <polyline points="3 6 5 6 21 6" style="stroke:#cbd2d9"/>
   <path d="m19 6v14a2 2 0 0 1-2 2h-10a2 2 0 0 1-2-2v-14m3 0v-2a2 2 0 0 1 2-2h4a2 2 0 0 1 2 2v2" style="stroke:#cbd2d9"/>
   <line x1="10" x2="10" y1="11" y2="17" style="stroke:#cbd2d9"/>
   <line x1="14" x2="14" y1="11" y2="17" style="stroke:#cbd2d9"/>
   <line x1="14" x2="14" y1="11" y2="17" style="stroke:#cbd2d9"/>
  </g>
  <g transform="matrix(1.3956 0 0 .97597 451.48 257.29)" style="fill:#fce588;stroke-linecap:round;stroke-linejoin:round;stroke-width:2;stroke:#fce588">
   <rect x="1" y="5" width="22" height="14" rx="5.0159" ry="7.1724" style="fill:#fce588;stroke:#fce588"/>
   <circle cx="16" cy="12" r="3" style="fill:#fce588;stroke:#fce588"/>
   <rect x="1" y="5" width="22" height="14" rx="5.0159" ry="7.1724" style="fill:#fce588;stroke:#fce588"/>
  </g>
  <rect x="167.71" y="258.63" width="237.04" height="5" ry="2.3436" style="fill-opacity:.78431;fill:#2d3a8c;stroke-width:.87168"/>
  <rect x="167.71" y="272.63" width="177.51" height="5" ry="2.4168" style="fill:#e4e7eb;stroke-width:.75431"/>
  <rect x="98.834" y="266.05" width="50.475" height="5" rx="2.5" ry="2.5" style="fill:#e4e7eb;stroke-width:.40224"/>
  <rect x="545.29" y="266.88" width="11.707" height="5" ry="2.5" style="fill-opacity:.78431;fill:#2d3a8c;stroke-width:.19371"/>
  <rect x="613.29" y="266.88" width="11.707" height="5" ry="2.5" style="fill-opacity:.78431;fill:#2d3a8c;stroke-width:.19371"/>
  <rect x="673.29" y="266.88" width="11.707" height="5" ry="2.5" style="fill-opacity:.78431;fill:#2d3a8c;stroke-width:.19371"/>
  <circle cx="734.69" cy="268.84" r="4.9301" style="fill:#fff;stroke-width:1.2466;stroke:#fff"/>
  <rect x="457.03" y="267.63" width="22.614" height="2.5" ry="1.25" style="fill-opacity:.78431;fill:#8d2b0b;stroke-width:.19038"/>
  <g transform="matrix(.54476 0 0 .54476 489.9 262.73)" style="fill:none;stroke-linecap:round;stroke-linejoin:round;stroke-width:2;stroke:#cbd2d9">
   <path d="m17 3a2.8284 2.8284 0 1 1 4 4l-13.5 13.5-5.5 1.5 1.5-5.5z" style="stroke:#cbd2d9"/>
  </g>
  <g transform="matrix(1.1792 0 0 .98861 715.59 349.14)" style="fill:#1cd4d4;stroke-linecap:round;stroke-linejoin:round;stroke-opacity:.99032;stroke-width:2;stroke:#1cd4d4">
   <rect x="1" y="5" width="22" height="14" rx="5.9363" ry="7.0806" style="fill:#1cd4d4;stroke-opacity:.99032;stroke:#1cd4d4"/>
   <circle cx="16" cy="12" r="3" style="fill:#1cd4d4;stroke-opacity:.99032;stroke:#1cd4d4"/>
   <rect x="1" y="5" width="22" height="14" rx="5.9363" ry="7.0806" style="fill:#1cd4d4;stroke-opacity:.99032;stroke:#1cd4d4"/>
  </g>
  <g transform="matrix(.55527 0 0 .55527 771.48 307.4)" style="fill:none;stroke-linecap:round;stroke-linejoin:round;stroke-width:2;stroke:#cbd2d9">
   <polyline points="3 6 5 6 21 6" style="stroke:#cbd2d9"/>
   <path d="m19 6v14a2 2 0 0 1-2 2h-10a2 2 0 0 1-2-2v-14m3 0v-2a2 2 0 0 1 2-2h4a2 2 0 0 1 2 2v2" style="stroke:#cbd2d9"/>
   <line x1="10" x2="10" y1="11" y2="17" style="stroke:#cbd2d9"/>
   <line x1="14" x2="14" y1="11" y2="17" style="stroke:#cbd2d9"/>
   <line x1="14" x2="14" y1="11" y2="17" style="stroke:#cbd2d9"/>
  </g>
  <g transform="matrix(1.3956 0 0 .97597 451.48 303.29)" style="fill:#fce588;stroke-linecap:round;stroke-linejoin:round;stroke-width:2;stroke:#fce588">
   <rect x="1" y="5" width="22" height="14" rx="5.0159" ry="7.1724" style="fill:#fce588;stroke:#fce588"/>
   <circle cx="16" cy="12" r="3" style="fill:#fce588;stroke:#fce588"/>
   <rect x="1" y="5" width="22" height="14" rx="5.0159" ry="7.1724" style="fill:#fce588;stroke:#fce588"/>
  </g>
  <rect x="167.71" y="304.63" width="137.04" height="5" ry="2.5" style="fill-opacity:.78431;fill:#2d3a8c;stroke-width:.66278"/>
  <rect x="167.71" y="318.63" width="57.506" height="5" ry="2.5" style="fill:#e4e7eb;stroke-width:.42934"/>
  <rect x="98.834" y="312.05" width="50.475" height="5" ry="2.5" style="fill:#e4e7eb;stroke-width:.40224"/>
  <rect x="545.29" y="312.88" width="11.707" height="5" ry="2.5" style="fill-opacity:.78431;fill:#2d3a8c;stroke-width:.19371"/>
  <rect x="613.29" y="312.88" width="11.707" height="5" ry="2.5" style="fill-opacity:.78431;fill:#2d3a8c;stroke-width:.19371"/>
  <rect x="673.29" y="312.88" width="11.707" height="5" ry="2.5" style="fill-opacity:.78431;fill:#2d3a8c;stroke-width:.19371"/>
  <circle cx="734.69" cy="360.84" r="4.9301" style="fill:#fff;stroke-width:1.2466;stroke:#fff"/>
  <g transform="matrix(.54476 0 0 .54476 489.9 308.73)" style="fill:none;stroke-linecap:round;stroke-linejoin:round;stroke-width:2;stroke:#cbd2d9">
   <path d="m17 3a2.8284 2.8284 0 1 1 4 4l-13.5 13.5-5.5 1.5 1.5-5.5z" style="stroke:#cbd2d9"/>
  </g>
  <g transform="matrix(1.1792 0 0 .98861 715.59 303.14)" style="fill:#cbd2d9;stroke-linecap:round;stroke-linejoin:round;stroke-width:2;stroke:#cbd2d9">
   <rect x="1" y="5" width="22" height="14" rx="5.9363" ry="7.0806" style="fill:#cbd2d9;stroke:#cbd2d9"/>
   <circle cx="16" cy="12" r="3" style="fill:#cbd2d9;stroke:#cbd2d9"/>
   <rect x="1" y="5" width="22" height="14" rx="5.9363" ry="7.0806" style="fill:#cbd2d9;stroke:#cbd2d9"/>
  </g>
  <g transform="matrix(.55527 0 0 .55527 771.48 353.4)" style="fill:none;stroke-linecap:round;stroke-linejoin:round;stroke-width:2;stroke:#cbd2d9">
   <polyline points="3 6 5 6 21 6" style="stroke:#cbd2d9"/>
   <path d="m19 6v14a2 2 0 0 1-2 2h-10a2 2 0 0 1-2-2v-14m3 0v-2a2 2 0 0 1 2-2h4a2 2 0 0 1 2 2v2" style="stroke:#cbd2d9"/>
   <line x1="10" x2="10" y1="11" y2="17" style="stroke:#cbd2d9"/>
   <line x1="14" x2="14" y1="11" y2="17" style="stroke:#cbd2d9"/>
   <line x1="14" x2="14" y1="11" y2="17" style="stroke:#cbd2d9"/>
  </g>
  <g transform="matrix(1.3956 0 0 .97597 451.48 349.29)" style="fill:#fce588;stroke-linecap:round;stroke-linejoin:round;stroke-width:2;stroke:#fce588">
   <rect x="1" y="5" width="22" height="14" rx="5.0159" ry="7.1724" style="fill:#fce588;stroke:#fce588"/>
   <circle cx="16" cy="12" r="3" style="fill:#fce588;stroke:#fce588"/>
   <rect x="1" y="5" width="22" height="14" rx="5.0159" ry="7.1724" style="fill:#fce588;stroke:#fce588"/>
  </g>
  <rect x="167.71" y="350.63" width="237.04" height="5" ry="2.4901" style="fill-opacity:.78431;fill:#2d3a8c;stroke-width:.87168"/>
  <rect x="167.71" y="364.63" width="177.51" height="5" ry="2.5" style="fill:#e4e7eb;stroke-width:.75431"/>
  <rect x="98.834" y="358.05" width="50.475" height="5" ry="2.5" style="fill:#e4e7eb;stroke-width:.40224"/>
  <rect x="545.29" y="358.88" width="11.707" height="5" ry="2.5" style="fill-opacity:.78431;fill:#2d3a8c;stroke-width:.19371"/>
  <rect x="613.29" y="358.88" width="11.707" height="5" ry="2.5" style="fill-opacity:.78431;fill:#2d3a8c;stroke-width:.19371"/>
  <rect x="673.29" y="358.88" width="11.707" height="5" ry="2.5" style="fill-opacity:.78431;fill:#2d3a8c;stroke-width:.19371"/>
  <circle cx="724.69" cy="314.84" r="4.9301" style="fill:#fff;stroke-width:1.2466;stroke:#fff"/>
  <g transform="matrix(.54476 0 0 .54476 489.9 354.73)" style="fill:none;stroke-linecap:round;stroke-linejoin:round;stroke-width:2;stroke:#cbd2d9">
   <path d="m17 3a2.8284 2.8284 0 1 1 4 4l-13.5 13.5-5.5 1.5 1.5-5.5z" style="stroke:#cbd2d9"/>
  </g>
  <g transform="matrix(1.1792 0 0 .98861 715.59 393.14)" style="fill:#1cd4d4;stroke-linecap:round;stroke-linejoin:round;stroke-opacity:.99032;stroke-width:2;stroke:#1cd4d4">
   <rect x="1" y="5" width="22" height="14" rx="5.9363" ry="7.0806" style="fill:#1cd4d4;stroke-opacity:.99032;stroke:#1cd4d4"/>
   <circle cx="16" cy="12" r="3" style="fill:#1cd4d4;stroke-opacity:.99032;stroke:#1cd4d4"/>
   <rect x="1" y="5" width="22" height="14" rx="5.9363" ry="7.0806" style="fill:#1cd4d4;stroke-opacity:.99032;stroke:#1cd4d4"/>
  </g>
  <g transform="matrix(.55527 0 0 .55527 771.48 397.4)" style="fill:none;stroke-linecap:round;stroke-linejoin:round;stroke-width:2;stroke:#cbd2d9">
   <polyline points="3 6 5 6 21 6" style="stroke:#cbd2d9"/>
   <path d="m19 6v14a2 2 0 0 1-2 2h-10a2 2 0 0 1-2-2v-14m3 0v-2a2 2 0 0 1 2-2h4a2 2 0 0 1 2 2v2" style="stroke:#cbd2d9"/>
   <line x1="10" x2="10" y1="11" y2="17" style="stroke:#cbd2d9"/>
   <line x1="14" x2="14" y1="11" y2="17" style="stroke:#cbd2d9"/>
   <line x1="14" x2="14" y1="11" y2="17" style="stroke:#cbd2d9"/>
  </g>
  <g transform="matrix(1.3956 0 0 .97597 451.48 393.29)" style="fill:#fce588;stroke-linecap:round;stroke-linejoin:round;stroke-width:2;stroke:#fce588">
   <rect x="1" y="5" width="22" height="14" rx="5.0159" ry="7.1724" style="fill:#fce588;stroke:#fce588"/>
   <circle cx="16" cy="12" r="3" style="fill:#fce588;stroke:#fce588"/>
   <rect x="1" y="5" width="22" height="14" rx="5.0159" ry="7.1724" style="fill:#fce588;stroke:#fce588"/>
  </g>
  <rect x="167.71" y="394.63" width="137.04" height="5" ry="2.4901" style="fill-opacity:.78431;fill:#2d3a8c;stroke-width:.66278"/>
  <rect x="167.71" y="408.63" width="57.506" height="5" ry="2.5" style="fill:#e4e7eb;stroke-width:.42934"/>
  <rect x="98.834" y="402.05" width="50.475" height="5" ry="2.5" style="fill:#e4e7eb;stroke-width:.40224"/>
  <rect x="545.29" y="402.88" width="11.707" height="5" ry="2.5" style="fill-opacity:.78431;fill:#2d3a8c;stroke-width:.19371"/>
  <rect x="613.29" y="402.88" width="11.707" height="5" ry="2.4901" style="fill-opacity:.78431;fill:#2d3a8c;stroke-width:.19371"/>
  <rect x="673.29" y="402.88" width="11.707" height="5" ry="2.5" style="fill-opacity:.78431;fill:#2d3a8c;stroke-width:.19371"/>
  <circle cx="734.69" cy="404.84" r="4.9301" style="fill:#fff;stroke-width:1.2466;stroke:#fff"/>
  <g transform="matrix(.54476 0 0 .54476 489.9 398.73)" style="fill:none;stroke-linecap:round;stroke-linejoin:round;stroke-width:2;stroke:#cbd2d9">
   <path d="m17 3a2.8284 2.8284 0 1 1 4 4l-13.5 13.5-5.5 1.5 1.5-5.5z" style="stroke:#cbd2d9"/>
  </g>
  <g transform="matrix(1.1792 0 0 .98861 715.59 439.14)" style="fill:#1cd4d4;stroke-linecap:round;stroke-linejoin:round;stroke-opacity:.99032;stroke-width:2;stroke:#1cd4d4">
   <rect x="1" y="5" width="22" height="14" rx="5.9363" ry="7.0806" style="fill:#1cd4d4;stroke-opacity:.99032;stroke:#1cd4d4"/>
   <circle cx="16" cy="12" r="3" style="fill:#1cd4d4;stroke-opacity:.99032;stroke:#1cd4d4"/>
   <rect x="1" y="5" width="22" height="14" rx="5.9363" ry="7.0806" style="fill:#1cd4d4;stroke-opacity:.99032;stroke:#1cd4d4"/>
  </g>
  <g transform="matrix(.55527 0 0 .55527 771.48 443.4)" style="fill:none;stroke-linecap:round;stroke-linejoin:round;stroke-width:2;stroke:#cbd2d9">
   <polyline points="3 6 5 6 21 6" style="stroke:#cbd2d9"/>
   <path d="m19 6v14a2 2 0 0 1-2 2h-10a2 2 0 0 1-2-2v-14m3 0v-2a2 2 0 0 1 2-2h4a2 2 0 0 1 2 2v2" style="stroke:#cbd2d9"/>
   <line x1="10" x2="10" y1="11" y2="17" style="stroke:#cbd2d9"/>
   <line x1="14" x2="14" y1="11" y2="17" style="stroke:#cbd2d9"/>
   <line x1="14" x2="14" y1="11" y2="17" style="stroke:#cbd2d9"/>
  </g>
  <g transform="matrix(1.3956 0 0 .97597 451.48 439.29)" style="fill:#fce588;stroke-linecap:round;stroke-linejoin:round;stroke-width:2;stroke:#fce588">
   <rect x="1" y="5" width="22" height="14" rx="5.0159" ry="7.1724" style="fill:#fce588;stroke:#fce588"/>
   <circle cx="16" cy="12" r="3" style="fill:#fce588;stroke:#fce588"/>
   <rect x="1" y="5" width="22" height="14" rx="5.0159" ry="7.1724" style="fill:#fce588;stroke:#fce588"/>
  </g>
  <rect x="167.71" y="440.63" width="237.04" height="5" ry="2.3436" style="fill-opacity:.78431;fill:#2d3a8c;stroke-width:.87168"/>
  <rect x="167.71" y="454.63" width="177.51" height="5" ry="2.5" style="fill:#e4e7eb;stroke-width:.75431"/>
  <rect x="98.834" y="448.05" width="50.475" height="5" ry="2.5" style="fill:#e4e7eb;stroke-width:.40224"/>
  <rect x="545.29" y="448.88" width="11.707" height="5" ry="2.5" style="fill-opacity:.78431;fill:#2d3a8c;stroke-width:.19371"/>
  <rect x="613.29" y="448.88" width="11.707" height="5" ry="2.5" style="fill-opacity:.78431;fill:#2d3a8c;stroke-width:.19371"/>
  <rect x="673.29" y="448.88" width="11.707" height="5" ry="2.5" style="fill-opacity:.78431;fill:#2d3a8c;stroke-width:.19371"/>
  <circle cx="734.69" cy="450.84" r="4.9301" style="fill:#fff;stroke-width:1.2466;stroke:#fff"/>
  <g transform="matrix(.54476 0 0 .54476 489.9 444.73)" style="fill:none;stroke-linecap:round;stroke-linejoin:round;stroke-width:2;stroke:#cbd2d9">
   <path d="m17 3a2.8284 2.8284 0 1 1 4 4l-13.5 13.5-5.5 1.5 1.5-5.5z" style="stroke:#cbd2d9"/>
  </g>
  <g transform="matrix(1.1792 0 0 .98861 715.59 485.14)" style="fill:#1cd4d4;stroke-linecap:round;stroke-linejoin:round;stroke-opacity:.99032;stroke-width:2;stroke:#1cd4d4">
   <rect x="1" y="5" width="22" height="14" rx="5.9363" ry="7.0806" style="fill:#1cd4d4;stroke-opacity:.99032;stroke:#1cd4d4"/>
   <circle cx="16" cy="12" r="3" style="fill:#1cd4d4;stroke-opacity:.99032;stroke:#1cd4d4"/>
   <rect x="1" y="5" width="22" height="14" rx="5.9363" ry="7.0806" style="fill:#1cd4d4;stroke-opacity:.99032;stroke:#1cd4d4"/>
  </g>
  <g transform="matrix(.55527 0 0 .55527 771.48 489.4)" style="fill:none;stroke-linecap:round;stroke-linejoin:round;stroke-width:2;stroke:#cbd2d9">
   <polyline points="3 6 5 6 21 6" style="stroke:#cbd2d9"/>
   <path d="m19 6v14a2 2 0 0 1-2 2h-10a2 2 0 0 1-2-2v-14m3 0v-2a2 2 0 0 1 2-2h4a2 2 0 0 1 2 2v2" style="stroke:#cbd2d9"/>
   <line x1="10" x2="10" y1="11" y2="17" style="stroke:#cbd2d9"/>
   <line x1="14" x2="14" y1="11" y2="17" style="stroke:#cbd2d9"/>
   <line x1="14" x2="14" y1="11" y2="17" style="stroke:#cbd2d9"/>
  </g>
  <g transform="matrix(1.3956 0 0 .97597 451.48 485.29)" style="fill:#fce588;stroke-linecap:round;stroke-linejoin:round;stroke-width:2;stroke:#fce588">
   <rect x="1" y="5" width="22" height="14" rx="5.0159" ry="7.1724" style="fill:#fce588;stroke:#fce588"/>
   <circle cx="16" cy="12" r="3" style="fill:#fce588;stroke:#fce588"/>
   <rect x="1" y="5" width="22" height="14" rx="5.0159" ry="7.1724" style="fill:#fce588;stroke:#fce588"/>
  </g>
  <rect x="167.71" y="486.63" width="137.04" height="5" ry="2.5" style="fill-opacity:.78431;fill:#2d3a8c;stroke-width:.66278"/>
  <rect x="167.71" y="500.63" width="57.506" height="5" ry="2.5" style="fill:#e4e7eb;stroke-width:.42934"/>
  <rect x="98.834" y="494.05" width="50.475" height="5" ry="2.5" style="fill:#e4e7eb;stroke-width:.40224"/>
  <rect x="545.29" y="494.88" width="11.707" height="5" ry="2.5" style="fill-opacity:.78431;fill:#2d3a8c;stroke-width:.19371"/>
  <rect x="613.29" y="494.88" width="11.707" height="5" ry="2.5" style="fill-opacity:.78431;fill:#2d3a8c;stroke-width:.19371"/>
  <rect x="673.29" y="494.88" width="11.707" height="5" ry="2.5" style="fill-opacity:.78431;fill:#2d3a8c;stroke-width:.19371"/>
  <circle cx="734.69" cy="496.84" r="4.9301" style="fill:#fff;stroke-width:1.2466;stroke:#fff"/>
  <g transform="matrix(.54476 0 0 .54476 489.9 490.73)" style="fill:none;stroke-linecap:round;stroke-linejoin:round;stroke-width:2;stroke:#cbd2d9">
   <path d="m17 3a2.8284 2.8284 0 1 1 4 4l-13.5 13.5-5.5 1.5 1.5-5.5z" style="stroke:#cbd2d9"/>
  </g>
  <g transform="matrix(1.1792 0 0 .98861 715.59 531.14)" style="fill:#cbd2d9;stroke-linecap:round;stroke-linejoin:round;stroke-width:2;stroke:#cbd2d9">
   <rect x="1" y="5" width="22" height="14" rx="5.9363" ry="7.0806" style="fill:#cbd2d9;stroke:#cbd2d9"/>
   <circle cx="16" cy="12" r="3" style="fill:#cbd2d9;stroke:#cbd2d9"/>
   <rect x="1" y="5" width="22" height="14" rx="5.9363" ry="7.0806" style="fill:#cbd2d9;stroke:#cbd2d9"/>
  </g>
  <g transform="matrix(.55527 0 0 .55527 771.48 535.4)" style="fill:none;stroke-linecap:round;stroke-linejoin:round;stroke-width:2;stroke:#cbd2d9">
   <polyline points="3 6 5 6 21 6" style="stroke:#cbd2d9"/>
   <path d="m19 6v14a2 2 0 0 1-2 2h-10a2 2 0 0 1-2-2v-14m3 0v-2a2 2 0 0 1 2-2h4a2 2 0 0 1 2 2v2" style="stroke:#cbd2d9"/>
   <line x1="10" x2="10" y1="11" y2="17" style="stroke:#cbd2d9"/>
   <line x1="14" x2="14" y1="11" y2="17" style="stroke:#cbd2d9"/>
   <line x1="14" x2="14" y1="11" y2="17" style="stroke:#cbd2d9"/>
  </g>
  <g transform="matrix(1.3956 0 0 .97597 451.48 531.29)" style="fill:#fce588;stroke-linecap:round;stroke-linejoin:round;stroke-width:2;stroke:#fce588">
   <rect x="1" y="5" width="22" height="14" rx="5.0159" ry="7.1724" style="fill:#fce588;stroke:#fce588"/>
   <circle cx="16" cy="12" r="3" style="fill:#fce588;stroke:#fce588"/>
   <rect x="1" y="5" width="22" height="14" rx="5.0159" ry="7.1724" style="fill:#fce588;stroke:#fce588"/>
  </g>
  <rect x="167.71" y="532.63" width="237.04" height="5" ry="2.4901" style="fill-opacity:.78431;fill:#2d3a8c;stroke-width:.87168"/>
  <rect x="167.71" y="546.63" width="177.51" height="5" ry="2.5" style="fill:#e4e7eb;stroke-width:.75431"/>
  <rect x="98.834" y="540.05" width="50.475" height="5" ry="2.5" style="fill:#e4e7eb;stroke-width:.40224"/>
  <rect x="545.29" y="540.88" width="11.707" height="5" ry="2.5" style="fill-opacity:.78431;fill:#2d3a8c;stroke-width:.19371"/>
  <rect x="613.29" y="540.88" width="11.707" height="5" ry="2.5" style="fill-opacity:.78431;fill:#2d3a8c;stroke-width:.19371"/>
  <rect x="673.29" y="540.88" width="11.707" height="5" ry="2.5" style="fill-opacity:.78431;fill:#2d3a8c;stroke-width:.19371"/>
  <circle cx="724.69" cy="542.84" r="4.9301" style="fill:#fff;stroke-width:1.2466;stroke:#fff"/>
  <g transform="matrix(.54476 0 0 .54476 489.9 536.73)" style="fill:none;stroke-linecap:round;stroke-linejoin:round;stroke-width:2;stroke:#cbd2d9">
   <path d="m17 3a2.8284 2.8284 0 1 1 4 4l-13.5 13.5-5.5 1.5 1.5-5.5z" style="stroke:#cbd2d9"/>
  </g>
  <g transform="matrix(1.1792 0 0 .98861 715.59 577.14)" style="fill:#1cd4d4;stroke-linecap:round;stroke-linejoin:round;stroke-opacity:.99032;stroke-width:2;stroke:#1cd4d4">
   <rect x="1" y="5" width="22" height="14" rx="5.9363" ry="7.0806" style="fill:#1cd4d4;stroke-opacity:.99032;stroke:#1cd4d4"/>
   <circle cx="16" cy="12" r="3" style="fill:#1cd4d4;stroke-opacity:.99032;stroke:#1cd4d4"/>
   <rect x="1" y="5" width="22" height="14" rx="5.9363" ry="7.0806" style="fill:#1cd4d4;stroke-opacity:.99032;stroke:#1cd4d4"/>
  </g>
  <g transform="matrix(.55527 0 0 .55527 771.48 581.4)" style="fill:none;stroke-linecap:round;stroke-linejoin:round;stroke-width:2;stroke:#cbd2d9">
   <polyline points="3 6 5 6 21 6" style="stroke:#cbd2d9"/>
   <path d="m19 6v14a2 2 0 0 1-2 2h-10a2 2 0 0 1-2-2v-14m3 0v-2a2 2 0 0 1 2-2h4a2 2 0 0 1 2 2v2" style="stroke:#cbd2d9"/>
   <line x1="10" x2="10" y1="11" y2="17" style="stroke:#cbd2d9"/>
   <line x1="14" x2="14" y1="11" y2="17" style="stroke:#cbd2d9"/>
   <line x1="14" x2="14" y1="11" y2="17" style="stroke:#cbd2d9"/>
  </g>
  <g transform="matrix(1.3956 0 0 .97597 451.48 577.29)" style="fill:#fce588;stroke-linecap:round;stroke-linejoin:round;stroke-width:2;stroke:#fce588">
   <rect x="1" y="5" width="22" height="14" rx="5.0159" ry="7.1724" style="fill:#fce588;stroke:#fce588"/>
   <circle cx="16" cy="12" r="3" style="fill:#fce588;stroke:#fce588"/>
   <rect x="1" y="5" width="22" height="14" rx="5.0159" ry="7.1724" style="fill:#fce588;stroke:#fce588"/>
  </g>
  <rect x="167.71" y="578.63" width="137.04" height="5" ry="2.5" style="fill-opacity:.78431;fill:#2d3a8c;stroke-width:.66278"/>
  <rect x="167.71" y="592.63" width="57.506" height="5" ry="2.5" style="fill:#e4e7eb;stroke-width:.42934"/>
  <rect x="98.834" y="586.05" width="50.475" height="5" ry="2.5" style="fill:#e4e7eb;stroke-width:.40224"/>
  <rect x="545.29" y="586.88" width="11.707" height="5" ry="2.5" style="fill-opacity:.78431;fill:#2d3a8c;stroke-width:.19371"/>
  <rect x="613.29" y="586.88" width="11.707" height="5" ry="2.5" style="fill-opacity:.78431;fill:#2d3a8c;stroke-width:.19371"/>
  <rect x="673.29" y="586.88" width="11.707" height="5" ry="2.5" style="fill-opacity:.78431;fill:#2d3a8c;stroke-width:.19371"/>
  <circle cx="734.69" cy="588.84" r="4.9301" style="fill:#fff;stroke-width:1.2466;stroke:#fff"/>
  <g transform="matrix(.54476 0 0 .54476 489.9 582.73)" style="fill:none;stroke-linecap:round;stroke-linejoin:round;stroke-width:2;stroke:#cbd2d9">
   <path d="m17 3a2.8284 2.8284 0 1 1 4 4l-13.5 13.5-5.5 1.5 1.5-5.5z" style="stroke:#cbd2d9"/>
  </g>
  <rect x="457.03" y="313.63" width="22.614" height="2.5" ry="1.25" style="fill-opacity:.78431;fill:#8d2b0b;stroke-width:.19038"/>
  <rect x="457.03" y="359.63" width="22.614" height="2.5" ry="1.25" style="fill-opacity:.78431;fill:#8d2b0b;stroke-width:.19038"/>
  <rect x="457.03" y="403.63" width="22.614" height="2.5" ry="1.25" style="fill-opacity:.78431;fill:#8d2b0b;stroke-width:.19038"/>
  <rect x="457.03" y="449.63" width="22.614" height="2.5" ry="1.25" style="fill-opacity:.78431;fill:#8d2b0b;stroke-width:.19038"/>
  <rect x="457.03" y="495.63" width="22.614" height="2.5" ry="1.25" style="fill-opacity:.78431;fill:#8d2b0b;stroke-width:.19038"/>
  <rect x="457.03" y="541.63" width="22.614" height="2.5" ry="1.25" style="fill-opacity:.78431;fill:#8d2b0b;stroke-width:.19038"/>
  <rect x="457.03" y="587.63" width="22.614" height="2.5" ry="1.25" style="fill-opacity:.78431;fill:#8d2b0b;stroke-width:.19038"/>
 </g>
</svg>
