<?xml version="1.0" encoding="UTF-8"?>
<svg id="238b333a-178b-4cd4-ac1d-e298890126cc" width="871.91" height="538.91" data-name="Layer 1" version="1.1" viewBox="0 0 871.91 538.91" xmlns="http://www.w3.org/2000/svg" xmlns:cc="http://creativecommons.org/ns#" xmlns:dc="http://purl.org/dc/elements/1.1/" xmlns:rdf="http://www.w3.org/1999/02/22-rdf-syntax-ns#">
 <metadata>
  <rdf:RDF>
   <cc:Work rdf:about="">
    <dc:format>image/svg+xml</dc:format>
    <dc:type rdf:resource="http://purl.org/dc/dcmitype/StillImage"/>
    <dc:title>browsers</dc:title>
   </cc:Work>
  </rdf:RDF>
 </metadata>
 <defs>
  <linearGradient id="73e15490-e73a-4daf-a8fa-871575ee9321" x1="435.95" x2="435.95" y1="538.91" y2="377.68" gradientUnits="userSpaceOnUse">
   <stop stop-color="gray" stop-opacity=".25" offset="0"/>
   <stop stop-color="gray" stop-opacity=".12" offset=".54"/>
   <stop stop-color="gray" stop-opacity=".1" offset="1"/>
  </linearGradient>
 </defs>
 <title>browsers</title>
 <rect y="377.68" width="871.91" height="161.23" fill="url(#73e15490-e73a-4daf-a8fa-871575ee9321)"/>
 <rect x="5.09" y="382.96" width="860.45" height="147.38" fill="#fff"/>
 <rect x="57.94" y="413.04" width="500.19" height="87.71" fill="#f5f5f5"/>
 <path d="m590.96 457.15v-41.6h83.2v83.2h-83.2z" style="fill:#e7eaf0;stroke-width:.32"/>
 <path d="m590.96 457.15v-41.6h83.2v83.2h-83.2zm22.222 14.684c0.89796-1.0672 0.87212-2.019-0.075-2.7636-0.77249-0.60724-1.5168-0.48469-2.602 0.42844-1.096 0.9222-1.2522 1.8654-0.45495 2.7464 0.82872 0.91573 2.1628 0.74057 3.132-0.41124zm-9.9447-12.787c1.4963-1.177 0.76328-3.4968-1.1049-3.4968-0.91637 0-2.212 1.264-2.212 2.158 0 1.8403 1.7707 2.555 3.3168 1.3387zm16.604-2.607c1.8637-1.4664 1.9194-2.8705 0.15125-3.8168-0.50395-0.2697-0.94491-0.10874-2.3463 0.85645-0.94916 0.6537-1.7257 1.3032-1.7257 1.4434 0 0.14017-0.0849 0.47623-0.18878 0.7468-0.11187 0.29154 0.15101 0.83172 0.64533 1.326 0.98201 0.98201 1.6448 0.87565 3.4643-0.5559z" style="fill:#39e6e0;stroke-width:.32"/>
 <path d="m590.96 457.15v-41.6h83.2v83.2h-83.2zm66.227 21.474c2.2676-0.86162 3.9932-2.3489 4.9476-4.2641l0.82515-1.6559v-35.017l-0.98455-0.82844-0.98455-0.82845h-23.191c-25.175 0-24.519-0.0453-25.337 1.7511-0.48353 1.0612-0.47175 2.3754 0.029 3.2396 0.62913 1.0856 1.7488 1.9738 16.837 13.355 6.4556 4.8694 6.859 5.0021 9.3875 3.0874 1.8001-1.3631 14.017-10.867 17.78-13.833 1.5078-1.188 2.863-2.16 3.0116-2.16s0.23018 6.9736 0.1813 15.497c-0.0869 15.152-0.10378 15.517-0.75829 16.4-0.36819 0.49674-1.1455 1.2272-1.7273 1.6232l-1.0579 0.72h-21.393c-20.966 0-21.405 0.0128-22.033 0.64-0.352 0.352-0.64 0.856-0.64 1.12s0.288 0.768 0.64 1.12c0.62707 0.62707 1.0667 0.64 21.757 0.64 19.943 0 21.205-0.0337 22.711-0.6057zm-22.707-24.624c-0.792-0.67416-2.8254-2.2932-4.5187-3.5979-10.365-7.9859-13.386-10.416-13.393-10.772-6e-3 -0.31576 4.1425-0.4 19.699-0.4 15.453 0 19.678 0.085 19.575 0.39363-0.0722 0.21649-1.9992 1.8365-4.2824 3.6s-6.6939 5.1864-9.8016 7.6064-5.6926 4.3991-5.7443 4.3979c-0.0516-1e-3 -0.74184-0.55365-1.5338-1.2278zm-21.298 17.833c0.89796-1.0672 0.87212-2.019-0.075-2.7636-0.77249-0.60724-1.5168-0.48469-2.602 0.42844-1.096 0.9222-1.2522 1.8654-0.45495 2.7464 0.82872 0.91573 2.1628 0.74057 3.132-0.41124zm-9.3504-3.1458c1.1049-0.87025 3.8508-3.0341 6.1022-4.8086 2.2513-1.7744 4.1783-3.4476 4.2821-3.7181 0.10381-0.27053 0.0289-0.84268-0.16646-1.2715-0.70912-1.5563-1.7961-1.0894-7.1214 3.0592-7.4825 5.8291-7.3276 5.688-7.3276 6.6753 0 2.133 1.5739 2.1566 4.2312 0.0637zm15.409-1.7311c8.678-6.6269 9.2756-7.2731 7.951-8.5977-0.45143-0.45143-0.88403-0.59217-1.402-0.45612-0.41201 0.10822-3.0254 2.012-5.8076 4.2306-4.4698 3.5643-5.047 4.132-4.96 4.8778 0.0599 0.5129 0.4044 0.99572 0.87824 1.2307 0.88616 0.43948 1.2805 0.28777 3.3404-1.2852zm-16.003-7.9099c1.4963-1.177 0.76328-3.4968-1.1049-3.4968-0.91637 0-2.212 1.264-2.212 2.158 0 1.8403 1.7707 2.555 3.3168 1.3387zm16.604-2.607c1.8637-1.4664 1.9194-2.8705 0.15125-3.8168-0.50395-0.2697-0.94491-0.10874-2.3463 0.85645-0.94916 0.6537-1.7257 1.3032-1.7257 1.4434 0 0.14017-0.0849 0.47623-0.18878 0.7468-0.11187 0.29154 0.15101 0.83172 0.64533 1.326 0.98201 0.98201 1.6448 0.87565 3.4643-0.5559zm-10.892-2.1148c0.57812-0.49778 1.8791-1.5231 2.8911-2.2784 1.4406-1.0753 1.84-1.5595 1.84-2.231 0-2.2272-1.6122-2.1322-4.7834 0.28181-3.1956 2.4326-3.5366 2.7847-3.5366 3.6515 0 1.6876 1.9368 1.9985 3.5889 0.57608z" style="fill:#35d1d3;stroke-width:.32"/>
 <path d="m590.96 457.15v-41.6h83.2v83.2h-83.2zm66.135 21.601c2.0248-0.60129 4.2914-2.5618 5.278-4.5651l0.7468-1.5164 0.10123-16.64c0.0682-11.205-0.011-17.02-0.24227-17.805-0.19085-0.64714-0.73352-1.4292-1.2212-1.76-0.83124-0.56378-2.0474-0.60043-22.958-0.69169-12.144-0.053-22.715-5e-3 -23.492 0.1074-2.0194 0.29144-3.228 1.5694-3.228 3.4132 0 0.76638 0.20957 1.6926 0.46571 2.0583 0.25613 0.36569 3.7481 3.1823 7.76 6.2592 15.045 11.538 14.884 11.431 16.531 11.018 0.59808-0.15011 16.157-12.007 21.312-16.241 0.60941-0.50057 1.2256-0.79258 1.3692-0.64892 0.14367 0.14366 0.22105 7.0285 0.17198 15.3l-0.0892 15.039-0.85144 1.2862c-1.6252 2.4552-0.49775 2.3463-24.292 2.3463-19.284 0-21.26 0.048-21.792 0.5296-0.72776 0.6586-0.75039 1.6375-0.0556 2.4052 0.50289 0.5557 1.5969 0.5852 21.702 0.5852 17.859 0 21.424-0.0749 22.784-0.47852zm-23.93-25.86c-1.3389-1.0896-5.0109-3.9864-8.16-6.4374-8.035-6.2536-8.4456-6.5903-8.4456-6.9252 0-0.39915 38.938-0.40218 39.185-3e-3 0.10045 0.16254-0.28705 0.6272-0.86112 1.0326s-2.9878 2.2577-5.3638 4.1162-6.2921 4.9219-8.7024 6.8074c-2.4103 1.8856-4.5703 3.4198-4.8 3.4094-0.22968-0.0104-1.5131-0.91039-2.852-2zm-19.984 18.942c0.89796-1.0672 0.87212-2.019-0.075-2.7636-0.77249-0.60724-1.5168-0.48469-2.602 0.42844-1.096 0.9222-1.2522 1.8654-0.45495 2.7464 0.82872 0.91573 2.1628 0.74057 3.132-0.41124zm-5.5839-6.0201c6.6125-5.131 6.7224-5.2333 6.7224-6.2561 0-0.96361-1.2444-1.8837-2.1024-1.5545-0.6219 0.23864-10.106 7.4992-11.898 9.1086-0.572 0.51371-1.04 1.191-1.04 1.5051 0 1.1286 1.2289 2.0665 2.24 1.7097 0.264-0.0932 2.9989-2.124 6.0776-4.5129zm11.098 1.6776c4.5643-3.4839 7.3995-5.7163 8.1845-6.4445 0.93313-0.86561 1.1643-2.2043 0.496-2.8726-0.84401-0.84401-2.0134-0.38362-4.9205 1.9372-1.5975 1.2753-3.9375 3.103-5.2 4.0615-1.8621 1.4137-2.2955 1.9078-2.2955 2.6172 0 1.0092 0.74043 1.8801 1.5984 1.8801 0.32594 0 1.2877-0.53051 2.1371-1.1789zm-15.459-8.4443c1.4963-1.177 0.76328-3.4968-1.1049-3.4968-0.91637 0-2.212 1.264-2.212 2.158 0 1.8403 1.7707 2.555 3.3168 1.3387zm16.604-2.607c1.8637-1.4664 1.9194-2.8705 0.15125-3.8168-0.50395-0.2697-0.94491-0.10874-2.3463 0.85645-0.94916 0.6537-1.7257 1.3032-1.7257 1.4434 0 0.14017-0.0849 0.47623-0.18878 0.7468-0.11187 0.29154 0.15101 0.83172 0.64533 1.326 0.98201 0.98201 1.6448 0.87565 3.4643-0.5559zm-9.2693-3.2932c1.6871-1.3219 3.1567-2.6844 3.2657-3.0279 0.2527-0.7962-0.29373-1.8273-1.1048-2.0847-0.82368-0.26143-1.563 0.15341-4.7324 2.6554-2.3491 1.8544-2.64 2.2-2.64 3.1364 0 1.0665 0.59808 1.6949 1.632 1.7145 0.2816 5e-3 1.8924-1.0718 3.5795-2.3937z" style="fill:#31bac6;stroke-width:.32"/>
 <path d="m590.96 457.15v-41.6h83.2v83.2h-83.2zm67.382 21.223c1.4419-0.77181 3.312-2.6971 4.2001-4.324 0.53374-0.97786 0.58505-2.3785 0.66869-18.255 0.0803-15.25 0.0327-17.307-0.42125-18.185-1.0018-1.9373-0.50102-1.8994-25.109-1.8994-23.914 0-23.691-0.0138-25.089 1.5555-0.9408 1.0559-0.8746 3.2938 0.12931 4.3711 0.80873 0.86781 14.48 11.441 19.549 15.119 2.1421 1.5543 2.9991 1.9944 3.8836 1.9944 0.99744 0 2.4536-1.0272 12.022-8.48 5.9878-4.664 11.044-8.48 11.236-8.48 0.47544 0 0.48506 28.139 0.0102 29.849-0.45701 1.6457-2.0238 3.3464-3.4471 3.7417-0.74128 0.20589-8.8577 0.32665-22.031 0.32777-22.717 2e-3 -21.863-0.0668-21.863 1.7618 0 1.8582-0.99591 1.785 22.991 1.6885 21.871-0.0881 21.974-0.0915 23.271-0.78529zm-31.862-30.847c-5.192-4.0564-9.5768-7.5105-9.744-7.6759-0.18972-0.18767 7.1486-0.29442 19.52-0.28395 18.331 0.0155 19.768 0.0557 19.083 0.53273-0.40734 0.28377-4.8516 3.7322-9.8762 7.6632s-9.2273 7.1454-9.3394 7.1432c-0.11212-2e-3 -4.4518-3.3229-9.6438-7.3793zm-13.298 24.307c0.89796-1.0672 0.87212-2.019-0.075-2.7636-0.77249-0.60724-1.5168-0.48469-2.602 0.42844-1.096 0.9222-1.2522 1.8654-0.45495 2.7464 0.82872 0.91573 2.1628 0.74057 3.132-0.41124zm-11.013-1.7822c0.43516-0.29624 3.3472-2.5377 6.4712-4.9811 5.0027-3.9127 5.68-4.5517 5.68-5.3585 0-1.0461-0.72829-1.9218-1.5984-1.9218-0.63393 0-1.0588 0.30549-8.5616 6.1562-4.2816 3.3388-4.88 3.9184-4.88 4.7264 0 0.58901 0.25638 1.1006 0.7112 1.4192 0.89992 0.63032 1.2004 0.62474 2.1776-0.0405zm17.315-3.0632c1.1681-0.92302 3.5052-2.7436 5.1935-4.0457s3.1565-2.6412 3.2627-2.9757c0.10617-0.3345-0.0382-0.96113-0.32088-1.3925-0.98999-1.5109-1.8929-1.1176-7.4809 3.2586-2.8393 2.2236-5.2499 4.3186-5.3569 4.6557-0.10696 0.33703 0.0368 0.96572 0.31943 1.3971 0.81952 1.2507 1.9599 1.0172 4.383-0.89745zm-16.247-7.9414c1.4963-1.177 0.76328-3.4968-1.1049-3.4968-0.91637 0-2.212 1.264-2.212 2.158 0 1.8403 1.7707 2.555 3.3168 1.3387zm16.604-2.607c1.8637-1.4664 1.9194-2.8705 0.15125-3.8168-0.50395-0.2697-0.94491-0.10874-2.3463 0.85645-0.94916 0.6537-1.7257 1.3032-1.7257 1.4434 0 0.14017-0.0849 0.47623-0.18878 0.7468-0.11187 0.29154 0.15101 0.83172 0.64533 1.326 0.98201 0.98201 1.6448 0.87565 3.4643-0.5559zm-10.745-2.0546c4.8331-3.6451 5.556-4.6249 4.3749-5.9299-0.90018-0.9947-1.841-0.66905-4.8947 1.6943-3.3742 2.6113-3.8886 3.3742-3.0937 4.5874 0.74211 1.1326 1.7792 1.0316 3.6135-0.35176z" style="fill:#2c9cb4;stroke-width:.32"/>
 <path d="m590.96 457.15v-41.6h83.2v83.2h-83.2zm67.092 21.461c1.6449-0.74687 3.6036-2.6672 4.4389-4.3519 0.59921-1.2085 0.6336-2.1088 0.71729-18.776l0.0879-17.506-1.8831-2.1078-23.39-0.0861c-25.717-0.0947-24.743-0.16406-25.777 1.8356-0.58003 1.1216-0.61883 2.2476-0.11553 3.3522 0.5943 1.3044 21.466 17.294 23.14 17.728 0.53326 0.13818 1.2576 0.19587 1.6096 0.12819 0.35201-0.0677 5.536-3.9383 11.52-8.6013l10.88-8.4783 0.0918 14.501c0.0505 7.9755 0.0107 14.954-0.0884 15.509-0.22625 1.2649-1.2008 2.5216-2.5117 3.2388-0.92217 0.5046-2.9229 0.56778-22.6 0.71361l-21.588 0.16-0.47308 0.84313c-0.42436 0.7563-0.41661 0.9293 0.0753 1.68l0.54834 0.83687 21.993-7e-3c20.872-7e-3 22.06-0.0378 23.324-0.61167zm-31.044-30.753c-4.9016-3.8617-9.2936-7.3063-9.76-7.6546l-0.84801-0.63325 19.664-0.0101c11.616-6e-3 19.54 0.10734 19.36 0.27689-0.1672 0.15786-1.744 1.4075-3.504 2.777-12.736 9.9106-15.824 12.294-15.906 12.281-0.0516-8e-3 -4.1043-3.1749-9.0059-7.0366zm-13.826 23.975c0.89796-1.0672 0.87212-2.019-0.075-2.7636-0.77249-0.60724-1.5168-0.48469-2.602 0.42844-1.096 0.9222-1.2522 1.8654-0.45495 2.7464 0.82872 0.91573 2.1628 0.74057 3.132-0.41124zm-7.9235-3.9626c10.023-7.8722 9.9227-7.768 8.9399-9.2679-0.86526-1.3206-1.9262-1.0637-4.8248 1.1683-8.7851 6.7646-10.093 7.9152-10.093 8.8786 0 1.1292 0.73602 1.9401 1.761 1.9401 0.46276 0 2.0959-1.0529 4.2171-2.719zm12.777 0.27473c2.5611-1.7372 9.6614-7.4893 9.8494-7.9791 0.10742-0.27992 0.1953-0.71317 0.1953-0.96277 0-0.65716-1.1769-1.7338-1.8953-1.7338-0.54454 0-8.3525 5.8199-10.665 7.9493-1.1081 1.0205-1.1212 2.0545-0.0368 2.9074 1.0599 0.83373 1.0557 0.83403 2.5522-0.18103zm-14.798-9.099c1.4963-1.177 0.76328-3.4968-1.1049-3.4968-0.91637 0-2.212 1.264-2.212 2.158 0 1.8403 1.7707 2.555 3.3168 1.3387zm16.604-2.607c1.8637-1.4664 1.9194-2.8705 0.15125-3.8168-0.50395-0.2697-0.94491-0.10874-2.3463 0.85645-0.94916 0.6537-1.7257 1.3032-1.7257 1.4434 0 0.14017-0.0849 0.47623-0.18878 0.7468-0.11187 0.29154 0.15101 0.83172 0.64533 1.326 0.98201 0.98201 1.6448 0.87565 3.4643-0.5559zm-8.9608-3.3326c2.6203-2.051 3.12-2.5855 3.12-3.3368 0-1.1079-0.75133-1.9003-1.8018-1.9003-0.7197 0-4.9753 2.9371-6.5785 4.5402-0.71334 0.71334-0.74982 1.964-0.0769 2.6369 0.99769 0.9977 2.0927 0.59969 5.3371-1.94z" style="fill:#595f95;stroke-width:.32"/>
 <path d="m590.96 457.15v-41.6h83.2v83.2h-83.2zm67.092 21.461c1.6449-0.74687 3.6036-2.6672 4.4389-4.3519 0.59921-1.2085 0.6336-2.1088 0.71729-18.776l0.0879-17.506-1.8831-2.1078-23.39-0.0861c-25.717-0.0947-24.743-0.16406-25.777 1.8356-0.58003 1.1216-0.61883 2.2476-0.11553 3.3522 0.5943 1.3044 21.466 17.294 23.14 17.728 0.53326 0.13818 1.2576 0.19587 1.6096 0.12819 0.35201-0.0677 5.536-3.9383 11.52-8.6013l10.88-8.4783 0.0918 14.501c0.0505 7.9755 0.0107 14.954-0.0884 15.509-0.22625 1.2649-1.2008 2.5216-2.5117 3.2388-0.92217 0.5046-2.9229 0.56778-22.6 0.71361l-21.588 0.16-0.47308 0.84313c-0.42436 0.7563-0.41661 0.9293 0.0753 1.68l0.54834 0.83687 21.993-7e-3c20.872-7e-3 22.06-0.0378 23.324-0.61167zm-31.044-30.753c-4.9016-3.8617-9.2936-7.3063-9.76-7.6546l-0.84801-0.63325 19.664-0.0101c11.616-6e-3 19.54 0.10734 19.36 0.27689-0.1672 0.15786-1.744 1.4075-3.504 2.777-12.736 9.9106-15.824 12.294-15.906 12.281-0.0516-8e-3 -4.1043-3.1749-9.0059-7.0366zm-13.933 24.394c1.2298-1.0988 1.3488-2.4649 0.2896-3.3226-0.997-0.80732-1.7515-0.72497-2.9195 0.31867-1.2298 1.0988-1.3488 2.4649-0.2896 3.3226 0.997 0.80732 1.7515 0.72497 2.9195-0.31867zm-7.8169-4.381c10.023-7.8722 9.9227-7.768 8.9399-9.2679-0.86526-1.3206-1.9262-1.0637-4.8248 1.1683-8.7851 6.7646-10.093 7.9152-10.093 8.8786 0 1.1292 0.73602 1.9401 1.761 1.9401 0.46276 0 2.0959-1.0529 4.2171-2.719zm12.777 0.27473c2.5611-1.7372 9.6614-7.4893 9.8494-7.9791 0.10742-0.27992 0.1953-0.71317 0.1953-0.96277 0-0.65716-1.1769-1.7338-1.8953-1.7338-0.54454 0-8.3525 5.8199-10.665 7.9493-1.1081 1.0205-1.1212 2.0545-0.0368 2.9074 1.0599 0.83373 1.0557 0.83403 2.5522-0.18103zm-15.004-8.747c1.2623-0.76966 1.6298-1.9625 0.93239-3.0268-0.68894-1.0514-1.5839-1.2721-2.7383-0.67511-1.7505 0.9052-2.0821 2.3057-0.84003 3.5477 0.94852 0.94853 1.3088 0.96952 2.646 0.15419zm16.82-2.7264c1.8018-1.3757 2.1125-2.1879 1.2705-3.3208-0.99747-1.3422-2.2074-1.2526-4.0021 0.29637-1.6533 1.427-1.9509 2.4956-0.9904 3.5569 0.81038 0.89547 2.0922 0.71212 3.7221-0.53242zm-8.9717-3.5652c2.6203-2.051 3.12-2.5855 3.12-3.3368 0-1.1079-0.75133-1.9003-1.8018-1.9003-0.7197 0-4.9753 2.9371-6.5785 4.5402-0.71334 0.71334-0.74982 1.964-0.0769 2.6369 0.99769 0.9977 2.0927 0.59969 5.3371-1.94z" style="fill:#226191;stroke-width:.32"/>
 <path d="m590.96 457.15v-41.6h83.2v83.2h-83.2zm66.212 21.899c2.068-0.61413 4.2282-2.5148 5.4163-4.7657l0.85136-1.6128 0.0933-16.884c0.10592-19.169 0.16456-18.666-2.309-19.79-1.2285-0.55795-2.5876-0.59278-23.386-0.5994-13.491-4e-3 -22.508 0.11502-23.176 0.30667-1.46 0.41871-2.8494 1.8007-3.0878 3.0712-0.33239 1.7718 0.53741 2.9551 4.2656 5.803 1.8921 1.4454 5.5282 4.2301 8.0802 6.1884 12.033 9.233 11.822 9.123 14.275 7.4599 1.1122-0.75398 10.08-7.6926 17.885-13.838 1.584-1.2473 2.9946-2.27 3.1348-2.2728 0.14011-3e-3 0.21211 6.7526 0.16 15.012-0.0921 14.592-0.11344 15.042-0.75452 15.9-0.36288 0.4858-1.0573 1.1802-1.5432 1.543-0.8668 0.64738-1.2921 0.66277-22.646 0.81977-21.076 0.15495-21.777 0.17961-22.217 0.78116-0.63958 0.87501-0.56394 1.9889 0.18597 2.7388 0.62713 0.62713 1.0667 0.64 21.862 0.64 18.335 0 21.452-0.0682 22.91-0.50142zm-22.237-25.194c-0.54133-0.38775-2.6293-2.0095-4.64-3.6038s-5.7438-4.5324-8.2958-6.5291-4.7768-3.7522-4.944-3.9012c-0.1672-0.14898 8.4008-0.2657 19.04-0.25937l19.344 0.0115-0.96 0.79884c-2.5345 2.1091-17.834 13.945-18.174 14.058-0.21255 0.0714-0.82935-0.1875-1.3707-0.57524zm-21.68 18.183c1.2274-1.2274 1.2386-2.0921 0.0407-3.1279-0.96218-0.83197-1.7949-0.68583-3.0087 0.528-1.2935 1.2935-1.3536 1.8754-0.30255 2.9265 1.0743 1.0743 1.958 0.98606 3.2706-0.32662zm-9.2758-3.0271c8.7089-6.6166 10.498-8.1705 10.599-9.208 0.11249-1.155-0.81916-2.3329-1.8452-2.3329-0.60441 0-12.074 8.6657-13.214 9.9834-0.308 0.35612-0.56 0.92607-0.56 1.2666 0 0.7298 1.364 2.19 2.0458 2.19 0.26117 0 1.5997-0.85461 2.9746-1.8991zm15.62-1.8182c1.232-0.9866 3.5856-2.8121 5.2302-4.0567 3.3662-2.5475 3.9294-3.4295 2.994-4.6884-1.1899-1.6014-2.0544-1.3088-6.6242 2.2416-5.8112 4.5149-6.56 5.2223-6.56 6.1975 0 1.0162 1.0352 2.104 2 2.1016 0.396-9.6e-4 1.728-0.809 2.96-1.7956zm-16.569-7.7939c1.0314-0.62884 1.5943-1.839 1.2603-2.7094-0.0975-0.25414-0.5459-0.70358-0.9964-0.99876-0.69669-0.45648-0.96416-0.47659-1.7899-0.13454-1.9293 0.79915-2.4137 2.3947-1.1199 3.6885 0.94852 0.94853 1.3088 0.96952 2.646 0.15419zm16.82-2.7264c1.8018-1.3757 2.1125-2.1879 1.2705-3.3208-0.87454-1.1768-2.0541-1.2306-3.5163-0.16051-0.66318 0.48534-1.3858 1.0982-1.6058 1.3619-0.56071 0.67204-0.49783 1.9586 0.1296 2.6519 0.81038 0.89547 2.0922 0.71212 3.7221-0.53242zm-9.9647-2.6009c3.2528-2.4862 4.4331-3.6586 4.4331-4.4036 0-0.86983-1.2358-2.1178-2.0971-2.1178-0.7903 0-6.9649 4.7303-7.294 5.5878-0.30959 0.8068-0.27111 0.96681 0.45429 1.889 0.97819 1.2436 1.8759 1.0531 4.5037-0.95536z" style="fill:#18206b;stroke-width:.32"/>
 <rect x="782.93" y="434.01" width="43.992" height="9.7888" rx="1.6112" ry="1.6112" style="fill-opacity:.70588;fill:#465156;stroke-opacity:.58824;stroke-width:1.0079;stroke:#465156"/>
 <rect x="782.93" y="452.01" width="43.992" height="9.7888" rx="1.6112" ry="1.6112" style="fill-opacity:.70588;fill:#465156;stroke-opacity:.58824;stroke-width:1.0079;stroke:#465156"/>
 <rect x="782.93" y="470.01" width="43.992" height="9.7888" rx="1.6112" ry="1.6112" style="fill-opacity:.70588;fill:#465156;stroke-opacity:.58824;stroke-width:1.0079;stroke:#465156"/>
 <rect x="726.18" y="393.59" width="5.7148" height="126.13" rx="1.6112" ry="1.6112" style="fill:#e4e5e6;stroke-opacity:.78431;stroke:#e4e5e6"/>
 <g transform="matrix(2.1649 0 0 2.1649 -849.61 -209.17)">
  <path d="m570.01 135.04c-6.5499 5.0652-10.337 1.4008-10.337 10.257 0 15.283 12.536 27.673 28 27.673s28-12.39 28-27.673c0-7.1154-2.7173-13.604-7.1822-18.506 0.0995-4e-3 -0.41754-0.40126-0.6841-0.30206 1.8665 3.0938 2.9409 6.7194 2.9409 10.596 0 11.345-6.3097 22.584-17.655 22.584-7.2869 0.3537-16.994-4.3047-18.488-8.6639-0.96391-2.8124-0.7206-5.9711 1.9019-7.7196 1.4244-0.90423 3.5012-1.797 6.7868-1.9019 3.0014-1.9739 1.541-1.7493 1.3966-2.347-0.93235-0.25495-2.5874-0.60728-4.8724-2.4057-2.0239-1.5929-2.964-2.1969-8.8621-2.252-1.1143-2.1456-0.83642 3.2083-0.94564 0.6607z" style="opacity:.2"/>
  <path d="m596.47 113.97c1.1811 3.1443 5.4524 7.1995 11.086 14.415 4.7713 6.1109 5.3181 12.929 7.082 19.059l-13.258 11.411-14.976-15.373c-0.0672-10.22-2.5203-20.958 10.065-29.511z" style="fill:#ffde3f"/>
  <path d="m596.47 113.97c-9.0378 6.1425-10.313 13.412-10.293 20.807 0.10568-7.0482 1.6629-13.941 10.293-19.807 1.1811 3.1443 5.4521 7.1985 11.086 14.414 4.5627 5.8437 5.2723 12.329 6.8672 18.246l0.21485-0.18555c-1.7639-6.1301-2.3108-12.95-7.082-19.061-5.6338-7.2155-9.9048-11.27-11.086-14.414z" style="fill:#fff;opacity:.2"/>
  <path d="m569.21 132.37c1.9451-1.93 5.1212-6.4242 8.9107-7.67-1.0181 5.4266 0.30178 7.1514 0.95875 9.9259l-6.0909-1.5791z" style="fill:#ff750e"/>
  <circle cx="587.67" cy="143.97" r="14" style="fill:#8357cd"/>
  <path d="m592.1 134.1c-0.19914 2e-3 -0.39819 9e-3 -0.59696 0.0212 4.0547 1.9034 6.646 5.9766 6.6519 10.456-3e-3 6.1542-4.8242 11.369-10.97 11.687 1.5368 0.72719 3.215 0.96609 4.9152 0.97082 6.3884 6e-5 11.567-5.1787 11.567-11.567 6e-5 -6.3885-5.1789-11.567-11.567-11.567z" style="fill:#ffba36"/>
  <path d="m570.01 134.04c-6.5499 5.0652-10.337 1.4008-10.337 10.257 0 15.283 12.536 27.673 28 27.673s28-12.39 28-27.673c0-7.1154-2.7173-13.604-7.1822-18.506 0.0995-4e-3 -0.41754-0.40126-0.6841-0.30206 1.8665 3.0938 2.9409 6.7194 2.9409 10.596 0 11.345-6.3097 22.584-17.655 22.584-7.2869 0.3537-16.994-4.3047-18.488-8.6639-0.96391-2.8124-0.7206-5.9711 1.9019-7.7196 1.4244-0.90423 3.5012-1.797 6.7868-1.9019 3.0014-1.9739 1.541-1.7493 1.3966-2.347-0.93235-0.25495-2.5874-0.60728-4.8724-2.4057-2.0239-1.5929-2.964-2.1969-8.8621-2.252-1.1143-2.1456-0.83642 3.2083-0.94564 0.6607z" style="fill:#f74e66"/>
  <path d="m569.63 123.5c-6.2695 4.8484-9.585 12.283-9.9267 20.677 0.35852 12.865 12.102 22.801 26.567 22.801 14.691 0 26.6-10.256 26.6-23.4 0-3.5425-0.87132-6.902-2.4227-9.9231 0.1888 1.119 0.29805 2.2644 0.29805 3.4371 0 11.345-9.1983 19.886-20.543 19.886-7.2869 0.3537-12.768-3.0143-14.263-7.3735-0.96391-2.8124-0.64828-3.9992 1.9742-5.7477 1.4245-0.90423 3.4301-1.5166 6.7156-1.6215 3.0014-1.9739 3.2315-2.7329 3.0871-3.3305-0.93235-0.25495-3.5036-1.2422-5.7887-3.0406-2.0239-1.5929-5.383-4.8032-11.281-4.8583-1.1143-2.1456-0.90797-4.9589-1.0172-7.5065z" style="opacity:.1"/>
  <path d="m569.63 122.5c-6.2695 4.8484-9.585 12.283-9.9267 20.677 0.35852 12.865 12.102 22.801 26.567 22.801 14.691 0 26.6-10.256 26.6-23.4 0-3.5425-0.87132-6.902-2.4227-9.9231 0.1888 1.119 0.29805 2.2644 0.29805 3.4371 0 11.345-9.1983 19.886-20.543 19.886-7.2869 0.3537-12.768-3.0143-14.263-7.3735-0.96391-2.8124-0.64828-3.9992 1.9742-5.7477 1.4245-0.90423 3.4301-1.5166 6.7156-1.6215 3.0014-1.9739 3.2315-2.7329 3.0871-3.3305-0.93235-0.25495-3.5036-1.2422-5.7887-3.0406-2.0239-1.5929-5.383-4.8032-11.281-4.8583-1.1143-2.1456-0.90797-4.9589-1.0172-7.5065z" style="fill:#ff7f1f"/>
  <path d="m572.18 135.98c-1.9055-0.0413-3.5109 0.61481-4.7852 1.4844-0.22823 0.22824 1.8156 4.3576 6.0742 4.4023-0.39429 6.8696 4.7468 11.893 8.1992 12.887l1.5156 0.27734c-3.6696-1.2589-6.2868-3.6346-7.2461-6.4336-0.96391-2.8124-0.64985-3.9976 1.9727-5.7461 1.4245-0.90423 3.4293-1.5163 6.7148-1.6211 1.5007-0.98693 2.312-1.6718 2.7266-2.1836 0.20733-0.25559 0.31512-0.46631 0.36329-0.65234 0.0481-0.18626 0.0361-0.3467 0-0.4961-4.0456 4.0742-9.7901-0.40886-14.242-1.7734-0.41896-0.0894-0.85325-0.13502-1.293-0.14454z" style="fill:#ffba36"/>
  <path d="m569.63 122.5c-6.2695 4.8484-9.5841 12.283-9.9258 20.678 5e-3 0.17773 0.02 0.3527 0.0293 0.5293 0.44513-8.2006 3.745-15.45 9.8965-20.207 0.10922 2.5476-0.0967 5.3603 1.0176 7.5059 5.8982 0.0551 9.2573 3.2665 11.281 4.8594 2.1595 1.6996 4.5283 2.6515 5.5742 2.9688 0.25275-0.38898 0.27578-0.67549 0.21484-0.92774-0.93235-0.25494-3.504-1.2426-5.7891-3.041-2.0239-1.5929-5.3831-4.8043-11.281-4.8594-1.1143-2.1456-0.90836-4.9582-1.0176-7.5059zm40.818 10.156c0.0764 0.45258 0.12937 0.91176 0.17774 1.373 1.3673 2.7863 2.1586 5.8478 2.2305 9.0703 4e-3 -0.17387 0.0137-0.34657 0.0137-0.52148 0-3.5425-0.87054-6.9008-2.4219-9.9219zm0.28321 4.0703c-0.33643 11.027-9.3972 19.252-20.529 19.252-7.2869 0.3537-12.768-3.0139-14.262-7.373-0.23221-0.67752-0.38575-1.2579-0.45508-1.7773-0.1037 0.75572 0.0611 1.6278 0.45508 2.7773 1.494 4.3592 6.9749 7.7268 14.262 7.373 11.345 0 20.545-8.5417 20.545-19.887 0-0.12319-0.0133-0.24265-0.0156-0.36523z" style="fill:#fff;opacity:.2"/>
 </g>
 <g transform="matrix(2.2164 0 0 2.2164 -591.84 48.28)">
  <circle cx="591.13" cy="33.714" r="28" style="opacity:.2"/>
  <path d="m591.12 60.684c-15.504 0-27.986-12.481-27.986-27.986 0-0.23468-6e-3 -0.46637 0-0.69963 0.37001 15.177 12.716 27.286 27.986 27.286 15.269 0 27.616-12.109 27.986-27.286 6e-3 0.23326 0 0.46495 0 0.69963 0 15.504-12.481 27.986-27.986 27.986z" style="opacity:.1"/>
  <path d="m567.83 17.218c-0.48175 0.73194-0.92734 1.5163-1.3789 2.2929a28 28 0 0 0-3.3203 13.203 28 28 0 0 0 28 28 28 28 0 0 0 0.42969-0.0156l13.258-22.047c-1.062 1.7299-5.4867 3.9449-7.3749 5.0351-6.0419 3.4884-13.715 1.2336-17.203-4.8085z" style="fill:#109f5b"/>
  <path d="m591.16 18.714c-0.0309 0 4.444 1.9959 6.332 3.0859 4.8248 2.7856 5.3284 12.735 5.3398 16.762l0.80858 0.46874-0.82421 1.4258c-6e-5 0.0014 0 0.0664 0 0.0664l-0.31249 0.47266-11.375 19.703c0.0742 0.0019 0.14852 0.0082 0.22266 0.0078a28 28 0 0 0 1.1601-0.04296c0.22426-0.0104 0.44817-0.0116 0.67187-0.02734a28 28 0 0 0 2.6328-0.32031c0.0575-0.0096 0.11446-0.0213 0.17188-0.03126a28 28 0 0 0 23.14-27.57 28 28 0 0 0-3.7929-14z" style="fill:#ffce41"/>
  <path d="m591.12 4.7144a28 28 0 0 0-0.48437 0.01562 28 28 0 0 0-1.4844 0.054687 28 28 0 0 0-0.082 0.01172 28 28 0 0 0-2.5312 0.30468c-0.0857 0.01408-0.17228 0.024532-0.25781 0.039061-5e-3 8.94e-4 -0.0104 0.00298-0.0156 0.0039a28 28 0 0 0-2.6211 0.58985 28 28 0 0 0-5.2109 2.0273 28 28 0 0 0-0.62109 0.35546 28 28 0 0 0-10.914 10.617l11.379 19.711 0.23828 0.47656 0.0586 0.03516 0.53515 0.92968 4.9101 3.9453 1.3633-0.58202 1.5625 0.98436c-0.18489-0.34077-0.37022-0.84902-0.55077-1.418l9.1835-3.9257-9.5038-16.465c0.86941-2.0057 2.3896-3.4123 5.0585-3.7109h24.207a28 28 0 0 0-1.5195-2.3515 28 28 0 0 0-1.7109-2.1406 28 28 0 0 0-0.0742-0.08594 28 28 0 0 0-1.8164-1.8633 28 28 0 0 0-0.1914-0.17578 28 28 0 0 0-1.918-1.6054 28 28 0 0 0-0.26952-0.20312 28 28 0 0 0-1.9804-1.3476 28 28 0 0 0-0.38281-0.23437 28 28 0 0 0-1.9922-1.0859 28 28 0 0 0-0.5664-0.26953 28 28 0 0 0-1.914-0.80077 28 28 0 0 0-0.73827-0.27343 28 28 0 0 0-1.8437-0.56249 28 28 0 0 0-0.92577-0.23828 28 28 0 0 0-1.7226-0.34375 28 28 0 0 0-1.0976-0.16406 28 28 0 0 0-1.5703-0.15625 28 28 0 0 0-1.9726-0.097655 28 28 0 0 0-0.0118 0z" style="fill:#dd4d3e"/>
  <path d="m591.13 4.7141a28 28 0 0 0-28 28 28 28 0 0 0 0.0176 0.49219 28 28 0 0 1 27.982-27.492 28 28 0 0 1 27.973 27.5 28 28 0 0 0 0.0254-0.5 28 28 0 0 0-27.998-28z" style="fill:#fff;opacity:.2"/>
  <rect transform="matrix(0,-1,-1,0,0,0)" x="-47.714" y="-605.13" width="28" height="28" rx="14" ry="14" style="opacity:.2"/>
  <rect transform="matrix(0,-1,-1,0,0,0)" x="-46.714" y="-605.13" width="28" height="28" rx="14" ry="14" style="fill:#fff"/>
  <rect transform="matrix(0,-1,-1,0,0,0)" x="-43.714" y="-602.13" width="22" height="22" rx="11" ry="11" style="fill:#4587f3"/>
 </g>
 <g transform="matrix(2.1437 0 0 2.1437 -384.32 -68.911)">
  <circle cx="229.18" cy="101.26" r="28" style="opacity:.2"/>
  <path d="m229.17 128.23c-15.504 0-27.986-12.481-27.986-27.986 0-0.23468-6e-3 -0.46637 0-0.69963 0.37001 15.177 12.716 27.286 27.986 27.286 15.269 0 27.616-12.109 27.986-27.286 6e-3 0.23326 0 0.46495 0 0.69963 0 15.504-12.481 27.986-27.986 27.986z" style="opacity:.1"/>
  <path d="m205.88 84.76c-0.48175 0.73194-0.92734 1.5163-1.3789 2.2929a28 28 0 0 0-3.3203 13.203 28 28 0 0 0 28 28 28 28 0 0 0 0.42969-0.0156l13.258-22.047c-1.062 1.7299-5.4867 3.9449-7.3749 5.0351-6.0419 3.4884-13.715 1.2336-17.203-4.8085z" style="fill:#77b4ed"/>
  <path d="m229.21 86.256c-0.0309 0 4.444 1.9959 6.332 3.0859 4.8248 2.7856 5.3284 12.735 5.3398 16.762l0.80858 0.46874-0.82421 1.4258c-6e-5 1e-3 0 0.0664 0 0.0664l-0.31249 0.47265-11.375 19.703c0.0742 2e-3 0.14852 8e-3 0.22266 8e-3a28 28 0 0 0 1.1601-0.043c0.22426-0.0104 0.44817-0.0116 0.67187-0.0273a28 28 0 0 0 2.6328-0.32031c0.0575-0.01 0.11446-0.0213 0.17188-0.0313a28 28 0 0 0 23.14-27.57 28 28 0 0 0-3.7929-14z" style="fill:#c2e1ff"/>
  <path d="m229.17 72.256a28 28 0 0 0-0.48437 0.01562 28 28 0 0 0-1.4844 0.05469 28 28 0 0 0-0.082 0.01172 28 28 0 0 0-2.5312 0.30468c-0.0857 0.01408-0.17228 0.02453-0.25781 0.03906-5e-3 8.94e-4 -0.0104 3e-3 -0.0156 0.0039a28 28 0 0 0-2.6211 0.58985 28 28 0 0 0-5.2109 2.0273 28 28 0 0 0-0.62109 0.35546 28 28 0 0 0-10.914 10.617l11.379 19.711 0.23828 0.47656 0.0586 0.0352 0.53515 0.92968 4.9101 3.9453 1.3633-0.58202 1.5625 0.98436c-0.18489-0.34077-0.37022-0.84902-0.55077-1.418l9.1835-3.9257-9.5038-16.465c0.86941-2.0057 2.3896-3.4123 5.0585-3.7109h24.207a28 28 0 0 0-1.5195-2.3515 28 28 0 0 0-1.7109-2.1406 28 28 0 0 0-0.0742-0.08594 28 28 0 0 0-1.8164-1.8633 28 28 0 0 0-0.1914-0.17578 28 28 0 0 0-1.918-1.6054 28 28 0 0 0-0.26952-0.20312 28 28 0 0 0-1.9804-1.3476 28 28 0 0 0-0.38281-0.23437 28 28 0 0 0-1.9922-1.0859 28 28 0 0 0-0.5664-0.26953 28 28 0 0 0-1.914-0.80077 28 28 0 0 0-0.73827-0.27344 28 28 0 0 0-1.8437-0.56249 28 28 0 0 0-0.92577-0.23828 28 28 0 0 0-1.7226-0.34375 28 28 0 0 0-1.0976-0.16406 28 28 0 0 0-1.5703-0.15625 28 28 0 0 0-1.9726-0.09766 28 28 0 0 0-0.0118 0z" style="fill:#3c71a7"/>
  <path d="m229.18 72.256a28 28 0 0 0-28 28 28 28 0 0 0 0.0176 0.49219 28 28 0 0 1 27.982-27.492 28 28 0 0 1 27.973 27.5 28 28 0 0 0 0.0254-0.5 28 28 0 0 0-27.998-28z" style="fill:#fff;opacity:.2"/>
  <rect transform="matrix(0,-1,-1,0,0,0)" x="-115.26" y="-243.18" width="28" height="28" rx="14" ry="14" style="opacity:.2"/>
  <rect transform="matrix(0,-1,-1,0,0,0)" x="-114.26" y="-243.18" width="28" height="28" rx="14" ry="14" style="fill:#fff"/>
  <rect transform="matrix(0,-1,-1,0,0,0)" x="-111.26" y="-240.18" width="22" height="22" rx="11" ry="11" style="fill:#6b9edf"/>
 </g>
 <g transform="matrix(2.1368 0 0 2.1368 -587.7 -349.94)">
  <path d="m403.32 268.38-4.712 4.7938c-0.062 0.0206-0.523-0.3638-1.025-0.5114-1.346-0.3953-3.055-0.3279-4.216 0.1996-0.759 0.3451-1.054 0.588-2.86 2.363-1.9467 1.912-2.331 2.371-2.331 2.778 0 0.105 0.7035 1.132 1.0498 1.936l0.6283 1.462-0.8074 2.215c-0.4439 1.218-0.827 2.282-0.8542 2.366-0.0688 0.213 6.2345 24.488 6.5635 25.27 0.598 1.42 1.538 2.693 2.755 3.735 1.1 0.942 12.257 8.557 13.362 9.12 0.327 0.166 0.853 0.262 1.303 0.273 0.45-0.011 0.976-0.107 1.303-0.273 1.105-0.563 12.262-8.178 13.362-9.12 1.217-1.042 2.157-2.315 2.755-3.735 0.329-0.782 6.632-25.057 6.563-25.27-0.027-0.084-0.41-1.148-0.854-2.366l-0.807-2.215 0.628-1.462c0.347-0.804 1.05-1.831 1.05-1.936 0-0.407-0.384-0.866-2.331-2.778-1.806-1.775-2.101-2.0179-2.86-2.363-1.161-0.5275-2.87-0.5949-4.216-0.1996-0.502 0.1476-0.963 0.532-1.025 0.5114l-4.712-4.7938h-8.856z" style="opacity:.2"/>
  <path d="m403.32 267.38-4.712 4.7938c-0.062 0.0206-0.523-0.3638-1.025-0.5114-1.346-0.3953-3.055-0.3279-4.216 0.1996-0.759 0.3451-1.054 0.5879-2.86 2.363-1.9467 1.912-2.331 2.371-2.331 2.778 0 0.105 0.7035 1.132 1.0498 1.936l0.6283 1.462-0.8074 2.215c-0.4439 1.218-0.827 2.282-0.8542 2.366-0.0688 0.213 6.2345 24.488 6.5635 25.27 0.598 1.42 1.538 2.693 2.755 3.735 1.1 0.942 12.257 8.557 13.362 9.12 0.327 0.166 0.853 0.262 1.303 0.273 0.45-0.011 0.976-0.107 1.303-0.273 1.105-0.563 12.262-8.178 13.362-9.12 1.217-1.042 2.157-2.315 2.755-3.735 0.329-0.782 6.632-25.057 6.563-25.27-0.027-0.084-0.41-1.148-0.854-2.366l-0.807-2.215 0.628-1.462c0.347-0.804 1.05-1.831 1.05-1.936 0-0.407-0.384-0.866-2.331-2.778-1.806-1.7751-2.101-2.0179-2.86-2.363-1.161-0.5275-2.87-0.5949-4.216-0.1996-0.502 0.1476-0.963 0.532-1.025 0.5114l-4.712-4.7938h-8.856z" style="fill:#ee5132"/>
  <path d="m414.43 310.87s2.454-1.617 4.639-3.18c1.229-0.88 1.423-1.104 1.222-1.415-0.161-0.248-4.127-2.198-6.022-2.961-1.994-0.802-2.204-0.803-4.138-0.016-1.735 0.704-5.637 2.633-5.965 2.949-0.338 0.326-0.168 0.625 0.684 1.201 1.756 1.187 5.122 3.471 5.122 3.471 2.288 1.95 2.111 1.951 4.458-0.048zm-9.2-6.975c2.38-1.118 2.736-1.349 4.556-2.96 1.529-1.354 1.812-1.757 1.595-2.27-0.074-0.173-1.223-1.233-2.554-2.355-3.146-2.651-3.015-2.277-1.818-5.154 0.711-1.709 0.897-2.281 0.894-2.755-4e-3 -0.715-0.269-1.252-0.803-1.623-0.217-0.151-2.118-0.917-4.224-1.703-2.107-0.786-3.819-1.482-3.804-1.545 0.033-0.146 2.357-0.399 4.044-0.44l1.275-0.032 2.346 0.818c2.046 0.715 2.367 0.861 2.521 1.151 0.097 0.183 0.175 0.429 0.173 0.546-1e-3 0.117-0.381 1.815-0.843 3.773-0.809 3.428-0.832 3.567-0.621 3.776 0.333 0.333 3.605 1.104 4.626 1.026 1.167-0.089 3.55-0.8 3.791-1.038 0.194-0.194 0.157-0.412-0.635-3.764-0.463-1.958-0.843-3.656-0.844-3.773-2e-3 -0.117 0.077-0.364 0.174-0.548 0.154-0.29 0.456-0.432 2.278-1.069 2.939-1.028 2.879-1.019 5.549-0.782 1.245 0.11 2.313 0.247 2.374 0.304 0.066 0.062-8e-3 0.15-0.182 0.215-0.161 0.061-1.879 0.706-3.817 1.432-1.938 0.727-3.727 1.453-3.976 1.614-0.585 0.377-0.868 0.917-0.872 1.658-3e-3 0.469 0.181 1.036 0.873 2.69 0.482 1.153 0.877 2.205 0.877 2.337 0 0.535-0.399 0.967-2.611 2.826-1.271 1.069-2.399 2.1-2.507 2.292s-0.169 0.485-0.137 0.652c0.056 0.285 1.578 1.755 3.128 3.022 0.651 0.532 4.594 2.999 5.226 3.099 0.529 0.084 1.094-0.705 2.02-1.471 0.907-0.752 1.448-1.504 1.815-2.526 0.345-0.958 0.258-1.603-0.424-3.156-0.52-1.185-0.658-1.836-0.484-2.28 0.041-0.102 1.449-1.434 3.129-2.96 3.661-3.324 4.535-3.919 4.736-4.513 0.223-0.66 0.066-2.527-0.435-3.401-1.196-2.09-6.166-8.632-6.588-8.632-2.174 0.348-3.993 1.117-6.284 1.47-0.18 0-0.946-0.187-1.701-0.417-3.227-0.978-4.273-1.053-4.898-1.053s-1.671 0.075-4.898 1.053c-0.755 0.229-1.529 0.417-1.719 0.417-2.257-0.326-3.93-1.204-6.267-1.47-0.364 0.241-3.596 4.673-4.934 6.61-1.573 2.276-2.018 3.569-2.146 4.436-0.179 1.213 0.276 1.417 4.977 5.677 1.581 1.432 2.907 2.687 2.947 2.787 0.176 0.449 0.037 1.126-0.476 2.312-0.704 1.629-0.767 2.081-0.427 3.065 0.369 1.069 0.996 1.934 1.942 2.68 0.88 0.694 1.22 1.39 1.74 1.401 0.185 4e-3 1.231-0.936 2.323-1.449z" style="opacity:.2"/>
  <path d="m414.43 309.87s2.454-1.617 4.639-3.18c1.229-0.88 1.423-1.104 1.222-1.415-0.161-0.248-4.127-2.198-6.022-2.961-1.994-0.802-2.204-0.803-4.138-0.016-1.735 0.704-5.637 2.633-5.965 2.949-0.338 0.326-0.168 0.625 0.684 1.201 1.756 1.187 5.122 3.471 5.122 3.471 2.288 1.95 2.111 1.951 4.458-0.048zm-9.2-6.975c2.38-1.118 2.736-1.349 4.556-2.96 1.529-1.354 1.812-1.757 1.595-2.27-0.074-0.173-1.223-1.233-2.554-2.355-3.146-2.651-3.015-2.277-1.818-5.154 0.711-1.709 0.897-2.281 0.894-2.755-4e-3 -0.715-0.269-1.252-0.803-1.623-0.217-0.151-2.118-0.917-4.224-1.703-2.107-0.786-3.819-1.482-3.804-1.545 0.033-0.146 2.357-0.399 4.044-0.44l1.275-0.032 2.346 0.818c2.046 0.715 2.367 0.861 2.521 1.151 0.097 0.183 0.175 0.429 0.173 0.546-1e-3 0.117-0.381 1.815-0.843 3.773-0.809 3.428-0.832 3.567-0.621 3.776 0.333 0.333 3.605 1.104 4.626 1.026 1.167-0.089 3.55-0.8 3.791-1.038 0.194-0.194 0.157-0.412-0.635-3.764-0.463-1.958-0.843-3.656-0.844-3.773-2e-3 -0.117 0.077-0.364 0.174-0.548 0.154-0.29 0.456-0.432 2.278-1.069 2.939-1.028 2.879-1.019 5.549-0.782 1.245 0.11 2.313 0.247 2.374 0.304 0.066 0.062-8e-3 0.15-0.182 0.215-0.161 0.061-1.879 0.706-3.817 1.432-1.938 0.727-3.727 1.453-3.976 1.614-0.585 0.377-0.868 0.917-0.872 1.658-3e-3 0.469 0.181 1.036 0.873 2.69 0.482 1.153 0.877 2.205 0.877 2.337 0 0.535-0.399 0.967-2.611 2.826-1.271 1.069-2.399 2.1-2.507 2.292s-0.169 0.486-0.137 0.652c0.056 0.285 1.578 1.755 3.128 3.022 0.651 0.532 4.594 2.999 5.226 3.099 0.529 0.084 1.094-0.705 2.02-1.471 0.907-0.752 1.448-1.504 1.815-2.525 0.345-0.959 0.258-1.604-0.424-3.157-0.52-1.185-0.658-1.836-0.484-2.28 0.041-0.102 1.449-1.434 3.129-2.96 3.661-3.324 4.535-3.919 4.736-4.513 0.223-0.659 0.066-2.527-0.435-3.401-1.196-2.09-6.166-8.632-6.588-8.632-2.174 0.348-3.993 1.117-6.284 1.47-0.18 0-0.946-0.187-1.701-0.417-3.227-0.978-4.273-1.053-4.898-1.053s-1.671 0.075-4.898 1.053c-0.755 0.229-1.529 0.417-1.719 0.417-2.257-0.326-3.93-1.204-6.267-1.47-0.364 0.241-3.596 4.673-4.934 6.61-1.573 2.276-2.018 3.569-2.146 4.436-0.179 1.213 0.276 1.417 4.977 5.677 1.581 1.432 2.907 2.687 2.947 2.787 0.176 0.449 0.037 1.126-0.476 2.312-0.704 1.629-0.767 2.081-0.427 3.065 0.369 1.069 0.996 1.934 1.942 2.68 0.88 0.694 1.22 1.39 1.74 1.401 0.185 4e-3 1.231-0.936 2.323-1.449z" style="fill:#fff"/>
  <path d="m403.32 267.38-4.713 4.793c-0.063 0.0206-0.524-0.3623-1.026-0.5098-1.346-0.3954-3.054-0.3283-4.215 0.1992-0.759 0.3451-1.053 0.5867-2.859 2.3616-1.9468 1.913-2.332 2.373-2.332 2.779 0 0.033 0.1409 0.263 0.2461 0.441 0.2768-0.4 0.8464-1.002 2.0859-2.22 1.806-1.775 2.1-2.0165 2.859-2.3616 1.161-0.5275 2.869-0.5946 4.215-0.1992 0.502 0.1475 0.963 0.5304 1.026 0.5098l4.713-4.793h17.71l4.713 4.793c0.063 0.0206 0.524-0.3623 1.026-0.5098 1.346-0.3954 3.054-0.3283 4.215 0.1992 0.759 0.3451 1.053 0.5866 2.859 2.3616 1.24 1.218 1.809 1.82 2.086 2.22 0.105-0.178 0.246-0.408 0.246-0.441 0-0.406-0.385-0.866-2.332-2.779-1.806-1.7749-2.1-2.0165-2.859-2.3616-1.161-0.5275-2.869-0.5946-4.215-0.1992-0.502 0.1475-0.963 0.5304-1.026 0.5098l-4.713-4.793h-8.855zm-13.664 13.562-0.6094 1.674c-0.4439 1.218-0.8283 2.282-0.8555 2.366-3e-3 8e-3 0.1293 0.524 0.1446 0.599 0.1156-0.325 0.3421-0.953 0.7109-1.965l0.8066-2.215zm45.04 0-0.198 0.459 0.807 2.215c0.369 1.012 0.595 1.64 0.711 1.965 0.015-0.075 0.147-0.591 0.144-0.599-0.027-0.084-0.411-1.148-0.855-2.366z" style="fill:#fff;opacity:.1"/>
 </g>
 <g transform="matrix(1.7306 0 0 1.7306 -315.82 -136.56)">
  <rect x="505.98" y="219.88" width="56" height="56" rx="17.379" ry="15.044" style="opacity:.2"/>
  <rect x="505.98" y="218.88" width="56" height="56" rx="19.381" ry="17.713" style="fill:#ef3939"/>
  <circle cx="533.98" cy="247.88" r="19" style="opacity:.2"/>
  <circle cx="533.98" cy="246.88" r="19" style="fill:#fff"/>
  <path d="m543.04 235.88c-0.48124 3.6e-4 -0.9685 0.10048-1.3585 0.29545-0.56996 0.2849-1.1436 0.88843-1.3981 1.4709-0.27046 0.61896-0.3093 1.7101-0.0814 2.2902 0.0964 0.24527 0.26267 0.66671 0.3695 0.93651 0.24125 0.60932 0.32809 2.3492 0.17513 3.1019-0.17222 0.84761-0.70729 1.8267-1.3345 2.4422-1.8822 1.8467-4.728 1.879-6.5974 0.075-0.64509-0.62255-0.73658-1.1708-3.6486-6.3313-0.988-1.7522-1.8747-3.2192-2.0587-3.4088-0.57866-0.60809-1.3833-0.8255-2.1201-0.82912-1.584-0.0255-2.6819 1.2053-2.9424 2.5264-0.19244 1.0573-0.28096 0.87528 4.8358 9.9297 3.2297 5.7151 4.7648 8.3496 5.0165 8.6086 0.89161 0.91741 2.1618 1.1448 3.3505 0.59981 0.31254-0.14331 0.66633-0.40084 0.89233-0.64956 0.44268-0.48716 9.597-16.625 9.7456-17.18 0.15568-0.58184 0.11701-1.4085-0.0925-1.9806-0.2606-0.71162-0.97958-1.4418-1.6887-1.7149-0.31828-0.1226-0.68894-0.18271-1.0632-0.18242z" style="fill:#cc2626"/>
  <path d="m522.78 218.88c-9.3072 0-16.801 7.4936-16.801 16.801v1c0-9.3072 7.4936-16.801 16.801-16.801h22.398c9.3072 0 16.801 7.4936 16.801 16.801v-1c0-9.3072-7.4936-16.801-16.801-16.801z" style="fill:#fff;opacity:.2"/>
 </g>
</svg>
