<?xml version="1.0" encoding="UTF-8" standalone="no"?>
<svg
   id="238b333a-178b-4cd4-ac1d-e298890126cc"
   width="871.91"
   height="538.91"
   data-name="Layer 1"
   version="1.1"
   viewBox="0 0 871.91 538.91"
   sodipodi:docname="browsers.svg"
   inkscape:version="1.3.2 (091e20ef0f, 2023-11-25)"
   xmlns:inkscape="http://www.inkscape.org/namespaces/inkscape"
   xmlns:sodipodi="http://sodipodi.sourceforge.net/DTD/sodipodi-0.dtd"
   xmlns="http://www.w3.org/2000/svg"
   xmlns:svg="http://www.w3.org/2000/svg"
   xmlns:rdf="http://www.w3.org/1999/02/22-rdf-syntax-ns#"
   xmlns:cc="http://creativecommons.org/ns#"
   xmlns:dc="http://purl.org/dc/elements/1.1/">
  <sodipodi:namedview
     pagecolor="#ffffff"
     bordercolor="#666666"
     borderopacity="1"
     objecttolerance="10"
     gridtolerance="10"
     guidetolerance="10"
     inkscape:pageopacity="0"
     inkscape:pageshadow="2"
     inkscape:window-width="2560"
     inkscape:window-height="2843"
     id="namedview116"
     showgrid="false"
     inkscape:zoom="1.7322661"
     inkscape:cx="434.11344"
     inkscape:cy="428.34066"
     inkscape:window-x="0"
     inkscape:window-y="0"
     inkscape:window-maximized="1"
     inkscape:current-layer="238b333a-178b-4cd4-ac1d-e298890126cc"
     showguides="false"
     inkscape:showpageshadow="2"
     inkscape:pagecheckerboard="0"
     inkscape:deskcolor="#d1d1d1" />
  <metadata
     id="metadata2">
    <rdf:RDF>
      <cc:Work
         rdf:about="">
        <dc:format>image/svg+xml</dc:format>
        <dc:type
           rdf:resource="http://purl.org/dc/dcmitype/StillImage" />
        <dc:title>browsers</dc:title>
      </cc:Work>
    </rdf:RDF>
  </metadata>
  <defs
     id="defs11">
    <linearGradient
       id="73e15490-e73a-4daf-a8fa-871575ee9321"
       x1="435.95"
       x2="435.95"
       y1="538.91"
       y2="377.68"
       gradientUnits="userSpaceOnUse">
      <stop
         stop-color="gray"
         stop-opacity=".25"
         offset="0"
         id="stop4" />
      <stop
         stop-color="gray"
         stop-opacity=".12"
         offset=".54"
         id="stop6" />
      <stop
         stop-color="gray"
         stop-opacity=".1"
         offset="1"
         id="stop8" />
    </linearGradient>
    <radialGradient
       id="f"
       cx="376.5"
       cy="568"
       r="97.300003"
       gradientTransform="matrix(0.13221577,0.45331122,0.36831537,-0.10860581,-122.07414,166.4337)"
       gradientUnits="userSpaceOnUse">
      <stop
         offset="0"
         stop-color="#66eb6e"
         id="stop12" />
      <stop
         offset="1"
         stop-color="#66eb6e"
         stop-opacity="0"
         id="stop13" />
    </radialGradient>
    <radialGradient
       id="e"
       cx="113.4"
       cy="570.20001"
       r="202.39999"
       gradientTransform="matrix(-0.01888797,0.47219919,1.0057843,0.03777594,-535.57897,186.17162)"
       gradientUnits="userSpaceOnUse">
      <stop
         offset="0"
         stop-color="#35c1f1"
         id="stop7" />
      <stop
         offset=".1"
         stop-color="#34c1ed"
         id="stop8-3" />
      <stop
         offset=".2"
         stop-color="#2fc2df"
         id="stop9" />
      <stop
         offset=".3"
         stop-color="#2bc3d2"
         id="stop10" />
      <stop
         offset=".7"
         stop-color="#36c752"
         id="stop11" />
    </radialGradient>
    <radialGradient
       id="d"
       cx="-340.29999"
       cy="63"
       r="143.2"
       gradientTransform="matrix(0.07082988,-0.4674772,-0.37775935,-0.0566639,104.77035,177.3415)"
       gradientUnits="userSpaceOnUse">
      <stop
         offset=".8"
         stop-opacity="0"
         id="stop4-6" />
      <stop
         offset=".9"
         stop-opacity=".5"
         id="stop5" />
      <stop
         offset="1"
         id="stop6-7" />
    </radialGradient>
    <linearGradient
       id="c"
       x1="157.3"
       y1="161.39999"
       x2="46"
       y2="40.099998"
       gradientTransform="matrix(0.47219919,0,0,-0.47219919,21.379973,362.16026)"
       gradientUnits="userSpaceOnUse">
      <stop
         offset="0"
         stop-color="#1b9de2"
         id="stop16" />
      <stop
         offset=".2"
         stop-color="#1595df"
         id="stop17" />
      <stop
         offset=".7"
         stop-color="#0680d7"
         id="stop18" />
      <stop
         offset="1"
         stop-color="#0078d4"
         id="stop19" />
    </linearGradient>
    <radialGradient
       id="b"
       cx="161.8"
       cy="68.900002"
       r="95.400002"
       gradientTransform="matrix(0.47219919,0,0,-0.44858923,21.379973,354.03844)"
       gradientUnits="userSpaceOnUse">
      <stop
         offset=".7"
         stop-opacity="0"
         id="stop1" />
      <stop
         offset=".9"
         stop-opacity=".5"
         id="stop2" />
      <stop
         offset="1"
         id="stop3" />
    </radialGradient>
    <linearGradient
       id="a"
       x1="63.299999"
       y1="84"
       x2="241.7"
       y2="84"
       gradientTransform="matrix(0.47219919,0,0,-0.47219919,21.379973,362.16026)"
       gradientUnits="userSpaceOnUse">
      <stop
         offset="0"
         stop-color="#0c59a4"
         id="stop14" />
      <stop
         offset="1"
         stop-color="#114a8b"
         id="stop15" />
    </linearGradient>
    <linearGradient
       id="SVGID_1_"
       gradientUnits="userSpaceOnUse"
       x1="44.3778"
       y1="108.3778"
       x2="447.02179"
       y2="511.02179">
						<stop
   offset="0"
   style="stop-color:#3AE7E1"
   id="stop1-6" />

						<stop
   offset="0.9481"
   style="stop-color:#1993D2"
   id="stop2-2" />

					</linearGradient>
    <linearGradient
       id="SVGID_00000172402524082644261950000017850675858297515650_"
       gradientUnits="userSpaceOnUse"
       x1="158.7823"
       y1="-6.0267"
       x2="561.42627"
       y2="396.61731">
							<stop
   offset="0"
   style="stop-color:#3AE7E1"
   id="stop3-9" />

							<stop
   offset="0.9481"
   style="stop-color:#1993D2"
   id="stop4-1" />

						</linearGradient>
    <linearGradient
       id="SVGID_00000134226740407654928070000009802432056583808703_"
       gradientUnits="userSpaceOnUse"
       x1="44.342499"
       y1="108.4131"
       x2="446.98651"
       y2="511.0571">
						<stop
   offset="0"
   style="stop-color:#3AE7E1"
   id="stop6-2" />

						<stop
   offset="0.9481"
   style="stop-color:#1993D2"
   id="stop7-7" />

					</linearGradient>
  </defs>
  <title
     id="title13">browsers</title>
  <rect
     y="377.68"
     width="871.91"
     height="161.23"
     fill="url(#73e15490-e73a-4daf-a8fa-871575ee9321)"
     id="rect15" />
  <rect
     x="5.0900002"
     y="382.95999"
     width="860.45001"
     height="147.38"
     fill="#ffffff"
     id="rect17"
     style="display:inline" />
  <rect
     x="57.94"
     y="413.04"
     width="500.19"
     height="87.71"
     fill="#f5f5f5"
     id="rect19" />
  <g
     id="g3"
     transform="matrix(0.15123008,0,0,0.15123008,562.28116,416.09862)"
     style="display:inline">
    <g
       inkscape:groupmode="layer"
       id="layer1"
       inkscape:label="Layer 1"
       transform="translate(189.99921,-2.9966674)">
      <rect
         style="fill:#19216c;stroke-width:76.9693"
         id="rect1"
         width="549.99933"
         height="550.00317"
         x="0.00078558922"
         y="-0.0033326149" />
    </g>
    <g
       id="g11"
       transform="translate(208.99921,16.003333)">
	<g
   id="g10">
		<g
   id="g9">
			<g
   id="g8">
				<g
   id="g2">
					<path
   class="st0"
   d="m 384,288 c 0,23.7 -12.9,44.3 -32,55.4 v 8.6 32 c 0,17.7 -14.3,32 -32,32 22.5,0 43.5,-5.8 61.9,-16 1.3,-5.1 2.1,-10.5 2.1,-16 z"
   id="path1"
   style="fill:#2d7aae" />

					<linearGradient
   id="linearGradient8"
   gradientUnits="userSpaceOnUse"
   x1="44.3778"
   y1="108.3778"
   x2="447.02179"
   y2="511.02179">
						<stop
   offset="0"
   style="stop-color:#3AE7E1"
   id="stop5-9" />

						<stop
   offset="0.9481"
   style="stop-color:#1993D2"
   id="stop8-36" />

					</linearGradient>

					<path
   class="st1"
   d="M 320,224 H 192 c -17.7,0 -32,14.3 -32,32 v 128 c 0,17.7 14.3,32 32,32 h 128 c 17.7,0 32,-14.3 32,-32 V 352 343.4 256 c 0,-17.7 -14.3,-32 -32,-32 z m -32,128 h -64 v -64 h 64 z"
   id="path2-0"
   style="fill:url(#SVGID_1_)" />

				</g>

				<g
   id="g7">
					<g
   id="g6">
						
							<linearGradient
   id="linearGradient10"
   gradientUnits="userSpaceOnUse"
   x1="158.7823"
   y1="-6.0267"
   x2="561.42627"
   y2="396.61731">
							<stop
   offset="0"
   style="stop-color:#3AE7E1"
   id="stop9-6" />

							<stop
   offset="0.9481"
   style="stop-color:#1993D2"
   id="stop10-2" />

						</linearGradient>

						<path
   style="fill:url(#SVGID_00000172402524082644261950000017850675858297515650_)"
   d="m 200.7,96 c 11.1,-19.1 31.7,-32 55.3,-32 23.6,0 44.3,12.9 55.3,32 h 8.7 c 21.4,0 42.7,4.4 62.4,12.8 C 373.1,47.3 320,0 256,0 192,0 138.9,47.3 129.6,108.8 149.3,100.4 170.6,96 192,96 Z"
   id="path4-6" />

						<path
   class="st0"
   d="m 128,145.3 c 18.8,-10.9 40.7,-17.3 64,-17.3 0,-11.7 3.2,-22.6 8.7,-32 H 192 c -21.4,0 -42.7,4.4 -62.4,12.8 -1,6.3 -1.6,12.7 -1.6,19.2 z"
   id="path5"
   style="fill:#2d7aae" />

						<path
   class="st0"
   d="m 311.3,96 c 5.5,9.4 8.7,20.3 8.7,32 23.3,0 45.2,6.4 64,17.3 V 128 c 0,-6.5 -0.6,-12.9 -1.6,-19.2 C 362.7,100.4 341.4,96 320,96 Z"
   id="path6-1"
   style="fill:#2d7aae" />

					</g>

					
						<linearGradient
   id="linearGradient12"
   gradientUnits="userSpaceOnUse"
   x1="44.342499"
   y1="108.4131"
   x2="446.98651"
   y2="511.0571">
						<stop
   offset="0"
   style="stop-color:#3AE7E1"
   id="stop11-8" />

						<stop
   offset="0.9481"
   style="stop-color:#1993D2"
   id="stop12-7" />

					</linearGradient>

					<path
   style="fill:url(#SVGID_00000134226740407654928070000009802432056583808703_)"
   d="m 384,384 c 0,5.5 -0.8,10.9 -2.1,16 C 421.3,378.2 448,336.2 448,288 V 256 C 448,208.6 422.2,167.4 384,145.3 365.2,134.4 343.3,128 320,128 H 192 c -23.3,0 -45.2,6.4 -64,17.3 C 89.8,167.4 64,208.6 64,256 v 128 c 0,70.7 57.3,128 128,128 h 128 v 0 c 0,-35.3 -28.7,-64 -64,-64 v 0 h -64 c -35.3,0 -64,-28.7 -64,-64 V 256 c 0,-35.3 28.7,-64 64,-64 h 128 c 35.3,0 64,28.7 64,64 v 32 z"
   id="path7" />

				</g>

			</g>

		</g>

	</g>

</g>
  </g>
  <rect
     x="782.93"
     y="434.01"
     width="43.992"
     height="9.7888"
     rx="1.6112"
     ry="1.6112"
     style="fill-opacity:.70588;fill:#465156;stroke-opacity:.58824;stroke-width:1.0079;stroke:#465156"
     id="rect107" />
  <rect
     x="782.93"
     y="452.01"
     width="43.992"
     height="9.7888"
     rx="1.6112"
     ry="1.6112"
     style="fill-opacity:.70588;fill:#465156;stroke-opacity:.58824;stroke-width:1.0079;stroke:#465156"
     id="rect109" />
  <rect
     x="782.93"
     y="470.01"
     width="43.992"
     height="9.7888"
     rx="1.6112"
     ry="1.6112"
     style="fill-opacity:.70588;fill:#465156;stroke-opacity:.58824;stroke-width:1.0079;stroke:#465156"
     id="rect111" />
  <rect
     x="726.18"
     y="393.59"
     width="5.7148"
     height="126.13"
     rx="1.6112"
     ry="1.6112"
     style="fill:#e4e5e6;stroke-opacity:.78431;stroke:#e4e5e6"
     id="rect113" />
  <g
     id="g1010"
     transform="matrix(2.1648656,0,0,2.1648656,-851.19036,-208.00012)">
    <path
       id="path2"
       d="m 570.00663,135.04384 c -6.54986,5.06517 -10.3371,1.4008 -10.3371,10.25745 0,15.28332 12.53603,27.6729 28,27.6729 15.46397,0 28,-12.38958 28,-27.6729 0,-7.11542 -2.71734,-13.60364 -7.18221,-18.50635 0.0995,-0.004 -0.41754,-0.40126 -0.6841,-0.30206 1.86653,3.09383 2.94086,6.71937 2.94086,10.59609 0,11.34506 -6.30966,22.58431 -17.65473,22.58431 -7.28686,0.3537 -16.99377,-4.30473 -18.48781,-8.66392 -0.96391,-2.81243 -0.7206,-5.97113 1.90191,-7.71964 1.42445,-0.90423 3.50119,-1.79703 6.78676,-1.90188 3.00136,-1.97386 1.541,-1.74934 1.39663,-2.34695 -0.93235,-0.25495 -2.58736,-0.60728 -4.87245,-2.40573 -2.02393,-1.59292 -2.96397,-2.19693 -8.86212,-2.25202 -1.11427,-2.1456 -0.83642,3.20832 -0.94564,0.6607 z"
       style="opacity:0.2"
       inkscape:connector-curvature="0" />
    <path
       id="path4"
       d="m 596.47448,113.97419 c 1.18114,3.14434 5.45245,7.19946 11.08626,14.415 4.77129,6.11087 5.3181,12.92884 7.08196,19.05897 l -13.25772,11.41087 -14.97551,-15.37349 c -0.0672,-10.22026 -2.52033,-20.95768 10.06501,-29.51135 z"
       style="fill:#ffde3f"
       inkscape:connector-curvature="0" />
    <path
       id="path6"
       d="m 596.47422,113.97419 c -9.03775,6.14254 -10.31294,13.41203 -10.29297,20.80664 0.10568,-7.04825 1.66291,-13.94119 10.29297,-19.80664 1.18114,3.14434 5.45213,7.19852 11.08593,14.41406 4.56267,5.84368 5.27228,12.32903 6.86719,18.2461 l 0.21485,-0.18555 c -1.76386,-6.13013 -2.31075,-12.94968 -7.08204,-19.06055 -5.6338,-7.21554 -9.90479,-11.26972 -11.08593,-14.41406 z"
       style="opacity:0.2;fill:#ffffff"
       inkscape:connector-curvature="0" />
    <path
       id="path8"
       d="m 569.20753,132.37372 c 1.94507,-1.93003 5.12116,-6.42418 8.91073,-7.67 -1.01811,5.42664 0.30178,7.15144 0.95875,9.92588 l -6.09088,-1.57912 z"
       style="fill:#ff750e"
       inkscape:connector-curvature="0" />
    <circle
       id="circle10"
       r="14"
       cy="143.97418"
       cx="587.66956"
       style="fill:#8357cd" />
    <path
       id="path12"
       d="m 592.10476,134.1036 c -0.19914,0.002 -0.39819,0.009 -0.59696,0.0212 4.05469,1.90338 6.64605,5.97658 6.65194,10.45579 -0.003,6.1542 -4.82422,11.3691 -10.97021,11.68678 1.53682,0.72719 3.21505,0.96609 4.91523,0.97082 6.38844,6e-5 11.56734,-5.17873 11.56743,-11.56717 6e-5,-6.38854 -5.17889,-11.56749 -11.56743,-11.56743 z"
       style="fill:#ffba36"
       inkscape:connector-curvature="0" />
    <path
       d="m 570.00663,134.04384 c -6.54986,5.06517 -10.3371,1.4008 -10.3371,10.25745 0,15.28332 12.53603,27.6729 28,27.6729 15.46397,0 28,-12.38958 28,-27.6729 0,-7.11542 -2.71734,-13.60364 -7.18221,-18.50635 0.0995,-0.004 -0.41754,-0.40126 -0.6841,-0.30206 1.86653,3.09383 2.94086,6.71937 2.94086,10.59609 0,11.34506 -6.30966,22.58431 -17.65473,22.58431 -7.28686,0.3537 -16.99377,-4.30473 -18.48781,-8.66392 -0.96391,-2.81243 -0.7206,-5.97113 1.90191,-7.71964 1.42445,-0.90423 3.50119,-1.79703 6.78676,-1.90188 3.00136,-1.97386 1.541,-1.74934 1.39663,-2.34695 -0.93235,-0.25495 -2.58736,-0.60728 -4.87245,-2.40573 -2.02393,-1.59292 -2.96397,-2.19693 -8.86212,-2.25202 -1.11427,-2.1456 -0.83642,3.20832 -0.94564,0.6607 z"
       style="fill:#f74e66"
       id="ellipse841"
       inkscape:connector-curvature="0" />
    <path
       id="path15"
       d="m 569.62894,123.49558 c -6.26949,4.84835 -9.58501,12.28271 -9.92671,20.67738 0.35852,12.865 12.10235,22.80123 26.56724,22.80123 14.6908,0 26.60005,-10.25565 26.60005,-23.40006 0,-3.54248 -0.87132,-6.90198 -2.42266,-9.92306 0.1888,1.11896 0.29805,2.26441 0.29805,3.43711 0,11.34507 -9.19833,19.88601 -20.5434,19.88601 -7.28686,0.3537 -12.76849,-3.0143 -14.26253,-7.37348 -0.96391,-2.81243 -0.64828,-3.99916 1.97422,-5.74767 1.42446,-0.90423 3.43008,-1.51665 6.71564,-1.62149 3.00136,-1.97386 3.23149,-2.73286 3.08712,-3.33047 -0.93235,-0.25495 -3.50359,-1.24218 -5.78868,-3.04064 -2.02394,-1.59291 -5.38301,-4.80324 -11.28116,-4.85833 -1.11427,-2.1456 -0.90797,-4.95892 -1.01718,-7.50653 z"
       style="opacity:0.1"
       inkscape:connector-curvature="0" />
    <path
       id="path17"
       d="m 569.62894,122.49558 c -6.26949,4.84835 -9.58501,12.28271 -9.92671,20.67738 0.35852,12.865 12.10235,22.80123 26.56724,22.80123 14.6908,0 26.60005,-10.25565 26.60005,-23.40006 0,-3.54248 -0.87132,-6.90198 -2.42266,-9.92306 0.1888,1.11896 0.29805,2.26441 0.29805,3.43711 0,11.34507 -9.19833,19.88601 -20.5434,19.88601 -7.28686,0.3537 -12.76849,-3.0143 -14.26253,-7.37348 -0.96391,-2.81243 -0.64828,-3.99916 1.97422,-5.74767 1.42446,-0.90423 3.43008,-1.51665 6.71564,-1.62149 3.00136,-1.97386 3.23149,-2.73286 3.08712,-3.33047 -0.93235,-0.25495 -3.50359,-1.24218 -5.78868,-3.04064 -2.02394,-1.59291 -5.38301,-4.80324 -11.28116,-4.85833 -1.11427,-2.1456 -0.90797,-4.95892 -1.01718,-7.50653 z"
       style="fill:#ff7f1f"
       inkscape:connector-curvature="0" />
    <path
       id="path19"
       d="m 572.18125,135.982 c -1.90546,-0.0413 -3.51093,0.61481 -4.78516,1.48438 -0.22823,0.22824 1.81564,4.35756 6.07422,4.40234 -0.39429,6.86955 4.74678,11.8927 8.19922,12.88672 l 1.51562,0.27734 c -3.66957,-1.25887 -6.28679,-3.63461 -7.24609,-6.43359 -0.96391,-2.81243 -0.64985,-3.99758 1.97266,-5.74609 1.42446,-0.90423 3.42928,-1.51626 6.71484,-1.6211 1.50068,-0.98693 2.31199,-1.67181 2.72656,-2.18359 0.20733,-0.25559 0.31512,-0.46631 0.36329,-0.65234 0.0481,-0.18626 0.0361,-0.3467 0,-0.4961 -4.04561,4.07421 -9.79009,-0.40886 -14.24219,-1.77344 -0.41896,-0.0894 -0.85325,-0.13502 -1.29297,-0.14454 z"
       style="fill:#ffba36"
       inkscape:connector-curvature="0" />
    <path
       id="path21-9"
       d="m 569.62851,122.49567 c -6.26949,4.84835 -9.58408,12.28307 -9.92578,20.67774 0.005,0.17773 0.02,0.3527 0.0293,0.5293 0.44513,-8.20058 3.74504,-15.44997 9.89648,-20.20704 0.10922,2.54762 -0.0967,5.36027 1.01758,7.50586 5.89815,0.0551 9.25732,3.26646 11.28125,4.85938 2.15948,1.69959 4.52834,2.65151 5.57422,2.96875 0.25275,-0.38898 0.27578,-0.67549 0.21484,-0.92774 -0.93235,-0.25494 -3.50397,-1.24255 -5.78906,-3.04101 -2.02393,-1.59292 -5.3831,-4.80428 -11.28125,-4.85938 -1.11427,-2.14559 -0.90836,-4.95824 -1.01758,-7.50586 z m 40.81836,10.15625 c 0.0764,0.45258 0.12937,0.91176 0.17774,1.37305 1.36726,2.7863 2.15856,5.84777 2.23047,9.07031 0.004,-0.17387 0.0137,-0.34657 0.0137,-0.52148 0,-3.54249 -0.87054,-6.90079 -2.42188,-9.92188 z m 0.28321,4.07032 c -0.33643,11.0268 -9.39721,19.25195 -20.5293,19.25195 -7.28686,0.3537 -12.76768,-3.01386 -14.26172,-7.37305 -0.23221,-0.67752 -0.38575,-1.25793 -0.45508,-1.77734 -0.1037,0.75572 0.0611,1.62779 0.45508,2.77734 1.49404,4.35919 6.97486,7.72675 14.26172,7.37305 11.34507,0 20.54492,-8.54166 20.54492,-19.88672 0,-0.12319 -0.0133,-0.24265 -0.0156,-0.36523 z"
       style="opacity:0.2;fill:#ffffff"
       inkscape:connector-curvature="0" />
  </g>
  <g
     id="g1051"
     transform="matrix(2.2164078,0,0,2.2164078,-598.7744,33.231014)">
    <circle
       id="circle2"
       r="28"
       cy="33.713913"
       cx="591.13318"
       style="opacity:0.2" />
    <path
       id="path4-3"
       d="m 591.12153,60.683752 c -15.50381,0 -27.98566,-12.481451 -27.98566,-27.985667 0,-0.234677 -0.006,-0.466373 0,-0.699631 0.37001,15.176819 12.71605,27.285675 27.98566,27.285675 15.26902,0 27.61568,-12.108656 27.98567,-27.285675 0.006,0.233257 0,0.464954 0,0.699631 0,15.503816 -12.48145,27.985667 -27.98567,27.985667 z"
       style="opacity:0.1"
       inkscape:connector-curvature="0" />
    <path
       id="path6-3"
       d="m 567.83303,17.218176 c -0.48175,0.731944 -0.92734,1.516337 -1.37889,2.292941 a 27.999667,27.999667 0 0 0 -3.32027,13.202968 27.999667,27.999667 0 0 0 27.99966,27.999667 27.999667,27.999667 0 0 0 0.42969,-0.0156 l 13.25765,-22.046637 c -1.06203,1.729879 -5.48673,3.944909 -7.37491,5.035096 -6.04193,3.488358 -13.71456,1.233551 -17.20292,-4.808537 z"
       style="fill:#109f5b"
       inkscape:connector-curvature="0" />
    <path
       id="path8-8"
       d="m 591.16478,18.714252 c -0.0309,0 4.44398,1.995873 6.33196,3.085901 4.82481,2.785647 5.3284,12.734559 5.33978,16.76152 l 0.80858,0.468744 -0.82421,1.425765 c -6e-5,0.0014 0,0.0664 0,0.0664 l -0.31249,0.472656 -11.37487,19.702892 c 0.0742,0.0019 0.14852,0.0082 0.22266,0.0078 a 27.999667,27.999667 0 0 0 1.16014,-0.04296 c 0.22426,-0.0104 0.44817,-0.0116 0.67187,-0.02734 a 27.999667,27.999667 0 0 0 2.63278,-0.32031 c 0.0575,-0.0096 0.11446,-0.0213 0.17188,-0.03126 A 27.999667,27.999667 0 0 0 619.1332,32.714086 27.999667,27.999667 0 0 0 615.34028,18.714252 Z"
       style="fill:#ffce41"
       inkscape:connector-curvature="0" />
    <path
       id="path10"
       d="m 591.12182,4.7144184 a 27.999667,27.999667 0 0 0 -0.48437,0.01562 27.999667,27.999667 0 0 0 -1.48436,0.054687 27.999667,27.999667 0 0 0 -0.082,0.01172 27.999667,27.999667 0 0 0 -2.53122,0.304684 c -0.0857,0.01408 -0.17228,0.024532 -0.25781,0.039061 -0.005,8.94e-4 -0.0104,0.00298 -0.0156,0.0039 a 27.999667,27.999667 0 0 0 -2.62108,0.5898471 27.999667,27.999667 0 0 0 -5.21087,2.0273197 27.999667,27.999667 0 0 0 -0.62109,0.3554645 27.999667,27.999667 0 0 0 -10.91393,10.6170613 l 11.37877,19.710702 0.23828,0.476558 0.0586,0.03516 0.53515,0.929677 4.91009,3.945265 1.36327,-0.582025 1.56248,0.984364 c -0.18489,-0.340768 -0.37022,-0.849022 -0.55077,-1.417957 l 9.18348,-3.925732 -9.50379,-16.464649 c 0.86941,-2.005689 2.38962,-3.412261 5.05853,-3.710894 h 24.20675 a 27.999667,27.999667 0 0 0 -1.51952,-2.351534 27.999667,27.999667 0 0 0 -1.71091,-2.140601 27.999667,27.999667 0 0 0 -0.0742,-0.08594 27.999667,27.999667 0 0 0 -1.81639,-1.863255 27.999667,27.999667 0 0 0 -0.1914,-0.175779 27.999667,27.999667 0 0 0 -1.91795,-1.605449 27.999667,27.999667 0 0 0 -0.26952,-0.203123 27.999667,27.999667 0 0 0 -1.98045,-1.3476403 27.999667,27.999667 0 0 0 -0.38281,-0.234372 27.999667,27.999667 0 0 0 -1.99216,-1.0859247 27.999667,27.999667 0 0 0 -0.5664,-0.269528 27.999667,27.999667 0 0 0 -1.91404,-0.8007716 27.999667,27.999667 0 0 0 -0.73827,-0.2734344 27.999667,27.999667 0 0 0 -1.84373,-0.5624933 27.999667,27.999667 0 0 0 -0.92577,-0.2382784 27.999667,27.999667 0 0 0 -1.72264,-0.3437459 27.999667,27.999667 0 0 0 -1.09764,-0.1640606 27.999667,27.999667 0 0 0 -1.57029,-0.1562482 27.999667,27.999667 0 0 0 -1.97264,-0.097655 27.999667,27.999667 0 0 0 -0.0118,0 z"
       style="fill:#dd4d3e"
       inkscape:connector-curvature="0" />
    <path
       id="path12-0"
       d="m 591.1332,4.714073 a 27.999667,27.999667 0 0 0 -28,28 27.999667,27.999667 0 0 0 0.0176,0.492188 27.999667,27.999667 0 0 1 27.98242,-27.492188 27.999667,27.999667 0 0 1 27.97266,27.5 27.999667,27.999667 0 0 0 0.0254,-0.5 27.999667,27.999667 0 0 0 -27.99805,-28 z"
       style="opacity:0.2;fill:#ffffff"
       inkscape:connector-curvature="0" />
    <rect
       id="rect14"
       transform="matrix(0,-1,-1,0,0,0)"
       ry="14"
       rx="14"
       y="-605.13318"
       x="-47.713913"
       height="28"
       width="28"
       style="opacity:0.2" />
    <rect
       id="rect16"
       transform="matrix(0,-1,-1,0,0,0)"
       ry="14"
       rx="14"
       y="-605.13318"
       x="-46.713913"
       height="28"
       width="28"
       style="fill:#ffffff" />
    <rect
       id="rect18"
       transform="matrix(0,-1,-1,0,0,0)"
       ry="11"
       rx="11"
       y="-602.13318"
       x="-43.713913"
       height="22"
       width="22"
       style="fill:#4587f3" />
  </g>
  <g
     id="g1145"
     transform="matrix(2.143706,0,0,2.143706,-356.47925,-110.5203)">
    <circle
       id="circle2-7"
       r="28"
       cy="101.2555"
       cx="229.17957"
       style="opacity:0.2" />
    <path
       id="path4-5"
       d="m 229.1679,128.22534 c -15.50381,0 -27.98566,-12.48145 -27.98566,-27.98567 0,-0.23468 -0.006,-0.466372 0,-0.69963 0.37001,15.17682 12.71605,27.28568 27.98566,27.28568 15.26902,0 27.61568,-12.10866 27.98567,-27.28568 0.006,0.233257 0,0.46495 0,0.69963 0,15.50382 -12.48145,27.98567 -27.98567,27.98567 z"
       style="opacity:0.1"
       inkscape:connector-curvature="0" />
    <path
       id="path6-6"
       d="m 205.8794,84.759762 c -0.48175,0.731944 -0.92734,1.516337 -1.37889,2.292941 a 27.999667,27.999667 0 0 0 -3.32027,13.202967 27.999667,27.999667 0 0 0 27.99966,27.99967 27.999667,27.999667 0 0 0 0.42969,-0.0156 l 13.25765,-22.04664 c -1.06203,1.72988 -5.48673,3.94491 -7.37491,5.0351 -6.04193,3.48836 -13.71456,1.23355 -17.20292,-4.80854 z"
       style="fill:#77b4ed"
       inkscape:connector-curvature="0" />
    <path
       id="path8-9"
       d="m 229.21115,86.255838 c -0.0309,0 4.44398,1.995873 6.33196,3.085901 4.82481,2.785647 5.3284,12.734561 5.33978,16.761521 l 0.80858,0.46874 -0.82421,1.42577 c -6e-5,10e-4 0,0.0664 0,0.0664 l -0.31249,0.47265 -11.37487,19.7029 c 0.0742,0.002 0.14852,0.008 0.22266,0.008 a 27.999667,27.999667 0 0 0 1.16014,-0.043 c 0.22426,-0.0104 0.44817,-0.0116 0.67187,-0.0273 a 27.999667,27.999667 0 0 0 2.63278,-0.32031 c 0.0575,-0.01 0.11446,-0.0213 0.17188,-0.0313 a 27.999667,27.999667 0 0 0 23.14034,-27.56998 27.999667,27.999667 0 0 0 -3.79292,-13.999832 z"
       style="fill:#c2e1ff"
       inkscape:connector-curvature="0" />
    <path
       id="path10-8"
       d="m 229.16819,72.256005 a 27.999667,27.999667 0 0 0 -0.48437,0.01562 27.999667,27.999667 0 0 0 -1.48436,0.05469 27.999667,27.999667 0 0 0 -0.082,0.01172 27.999667,27.999667 0 0 0 -2.53122,0.304684 c -0.0857,0.01408 -0.17228,0.02453 -0.25781,0.03906 -0.005,8.94e-4 -0.0104,0.003 -0.0156,0.0039 a 27.999667,27.999667 0 0 0 -2.62108,0.589847 27.999667,27.999667 0 0 0 -5.21087,2.02732 27.999667,27.999667 0 0 0 -0.62109,0.355464 27.999667,27.999667 0 0 0 -10.91393,10.617061 l 11.37877,19.710699 0.23828,0.47656 0.0586,0.0352 0.53515,0.92968 4.91009,3.94526 1.36327,-0.58202 1.56248,0.98436 c -0.18489,-0.34077 -0.37022,-0.84902 -0.55077,-1.41796 l 9.18348,-3.92573 -9.50379,-16.464646 c 0.86941,-2.005689 2.38962,-3.412261 5.05853,-3.710894 h 24.20675 a 27.999667,27.999667 0 0 0 -1.51952,-2.351534 27.999667,27.999667 0 0 0 -1.71091,-2.1406 27.999667,27.999667 0 0 0 -0.0742,-0.08594 27.999667,27.999667 0 0 0 -1.81639,-1.863255 27.999667,27.999667 0 0 0 -0.1914,-0.175779 27.999667,27.999667 0 0 0 -1.91795,-1.60545 27.999667,27.999667 0 0 0 -0.26952,-0.203123 27.999667,27.999667 0 0 0 -1.98045,-1.34764 27.999667,27.999667 0 0 0 -0.38281,-0.234372 27.999667,27.999667 0 0 0 -1.99216,-1.085925 27.999667,27.999667 0 0 0 -0.5664,-0.269528 27.999667,27.999667 0 0 0 -1.91404,-0.800771 27.999667,27.999667 0 0 0 -0.73827,-0.273435 27.999667,27.999667 0 0 0 -1.84373,-0.562493 27.999667,27.999667 0 0 0 -0.92577,-0.238278 27.999667,27.999667 0 0 0 -1.72264,-0.343746 27.999667,27.999667 0 0 0 -1.09764,-0.164061 27.999667,27.999667 0 0 0 -1.57029,-0.156248 27.999667,27.999667 0 0 0 -1.97264,-0.09766 27.999667,27.999667 0 0 0 -0.0118,0 z"
       style="fill:#3c71a7"
       inkscape:connector-curvature="0" />
    <path
       id="path12-7"
       d="m 229.17957,72.255659 a 27.999667,27.999667 0 0 0 -28,28.000001 27.999667,27.999667 0 0 0 0.0176,0.49219 27.999667,27.999667 0 0 1 27.98242,-27.492191 27.999667,27.999667 0 0 1 27.97266,27.500001 27.999667,27.999667 0 0 0 0.0254,-0.5 27.999667,27.999667 0 0 0 -27.99805,-28.000001 z"
       style="opacity:0.2;fill:#ffffff"
       inkscape:connector-curvature="0" />
    <rect
       id="rect14-2"
       transform="matrix(0,-1,-1,0,0,0)"
       ry="14"
       rx="14"
       y="-243.17957"
       x="-115.2555"
       height="28"
       width="28"
       style="opacity:0.2" />
    <rect
       id="rect16-8"
       transform="matrix(0,-1,-1,0,0,0)"
       ry="14"
       rx="14"
       y="-243.17957"
       x="-114.2555"
       height="28"
       width="28"
       style="fill:#ffffff" />
    <rect
       id="rect18-2"
       transform="matrix(0,-1,-1,0,0,0)"
       ry="11"
       rx="11"
       y="-240.17957"
       x="-111.2555"
       height="22"
       width="22"
       style="fill:#6b9edf" />
  </g>
  <g
     id="g1166"
     transform="matrix(2.1368335,0,0,2.1368335,-461.01218,-337.30581)">
    <path
       id="path2-9"
       d="m 403.32086,268.37572 -4.712,4.7938 c -0.062,0.0206 -0.523,-0.3638 -1.025,-0.5114 -1.346,-0.3953 -3.055,-0.3279 -4.216,0.1996 -0.759,0.3451 -1.054,0.588 -2.86,2.363 -1.9467,1.912 -2.331,2.371 -2.331,2.778 0,0.105 0.7035,1.132 1.0498,1.936 l 0.6283,1.462 -0.8074,2.215 c -0.4439,1.218 -0.827,2.282 -0.8542,2.366 -0.0688,0.213 6.2345,24.488 6.5635,25.27 0.598,1.42 1.538,2.693 2.755,3.735 1.1,0.942 12.257,8.557 13.362,9.12 0.327,0.166 0.853,0.262 1.303,0.273 0.45,-0.011 0.976,-0.107 1.303,-0.273 1.105,-0.563 12.262,-8.178 13.362,-9.12 1.217,-1.042 2.157,-2.315 2.755,-3.735 0.329,-0.782 6.632,-25.057 6.563,-25.27 -0.027,-0.084 -0.41,-1.148 -0.854,-2.366 l -0.807,-2.215 0.628,-1.462 c 0.347,-0.804 1.05,-1.831 1.05,-1.936 0,-0.407 -0.384,-0.866 -2.331,-2.778 -1.806,-1.775 -2.101,-2.0179 -2.86,-2.363 -1.161,-0.5275 -2.87,-0.5949 -4.216,-0.1996 -0.502,0.1476 -0.963,0.532 -1.025,0.5114 l -4.712,-4.7938 h -8.856 z"
       style="opacity:0.2"
       inkscape:connector-curvature="0" />
    <path
       id="path4-9"
       d="m 403.32086,267.37572 -4.712,4.7938 c -0.062,0.0206 -0.523,-0.3638 -1.025,-0.5114 -1.346,-0.3953 -3.055,-0.3279 -4.216,0.1996 -0.759,0.3451 -1.054,0.5879 -2.86,2.363 -1.9467,1.912 -2.331,2.371 -2.331,2.778 0,0.105 0.7035,1.132 1.0498,1.936 l 0.6283,1.462 -0.8074,2.215 c -0.4439,1.218 -0.827,2.282 -0.8542,2.366 -0.0688,0.213 6.2345,24.488 6.5635,25.27 0.598,1.42 1.538,2.693 2.755,3.735 1.1,0.942 12.257,8.557 13.362,9.12 0.327,0.166 0.853,0.262 1.303,0.273 0.45,-0.011 0.976,-0.107 1.303,-0.273 1.105,-0.563 12.262,-8.178 13.362,-9.12 1.217,-1.042 2.157,-2.315 2.755,-3.735 0.329,-0.782 6.632,-25.057 6.563,-25.27 -0.027,-0.084 -0.41,-1.148 -0.854,-2.366 l -0.807,-2.215 0.628,-1.462 c 0.347,-0.804 1.05,-1.831 1.05,-1.936 0,-0.407 -0.384,-0.866 -2.331,-2.778 -1.806,-1.7751 -2.101,-2.0179 -2.86,-2.363 -1.161,-0.5275 -2.87,-0.5949 -4.216,-0.1996 -0.502,0.1476 -0.963,0.532 -1.025,0.5114 l -4.712,-4.7938 h -8.856 z"
       style="fill:#ee5132"
       inkscape:connector-curvature="0" />
    <path
       id="path6-60"
       d="m 414.43386,310.86972 c 0,0 2.454,-1.617 4.639,-3.18 1.229,-0.88 1.423,-1.104 1.222,-1.415 -0.161,-0.248 -4.127,-2.198 -6.022,-2.961 -1.994,-0.802 -2.204,-0.803 -4.138,-0.016 -1.735,0.704 -5.637,2.633 -5.965,2.949 -0.338,0.326 -0.168,0.625 0.684,1.201 1.756,1.187 5.122,3.471 5.122,3.471 2.288,1.95 2.111,1.951 4.458,-0.048 z m -9.2,-6.975 c 2.38,-1.118 2.736,-1.349 4.556,-2.96 1.529,-1.354 1.812,-1.757 1.595,-2.27 -0.074,-0.173 -1.223,-1.233 -2.554,-2.355 -3.146,-2.651 -3.015,-2.277 -1.818,-5.154 0.711,-1.709 0.897,-2.281 0.894,-2.755 -0.004,-0.715 -0.269,-1.252 -0.803,-1.623 -0.217,-0.151 -2.118,-0.917 -4.224,-1.703 -2.107,-0.786 -3.819,-1.482 -3.804,-1.545 0.033,-0.146 2.357,-0.399 4.044,-0.44 l 1.275,-0.032 2.346,0.818 c 2.046,0.715 2.367,0.861 2.521,1.151 0.097,0.183 0.175,0.429 0.173,0.546 -0.001,0.117 -0.381,1.815 -0.843,3.773 -0.809,3.428 -0.832,3.567 -0.621,3.776 0.333,0.333 3.605,1.104 4.626,1.026 1.167,-0.089 3.55,-0.8 3.791,-1.038 0.194,-0.194 0.157,-0.412 -0.635,-3.764 -0.463,-1.958 -0.843,-3.656 -0.844,-3.773 -0.002,-0.117 0.077,-0.364 0.174,-0.548 0.154,-0.29 0.456,-0.432 2.278,-1.069 2.939,-1.028 2.879,-1.019 5.549,-0.782 1.245,0.11 2.313,0.247 2.374,0.304 0.066,0.062 -0.008,0.15 -0.182,0.215 -0.161,0.061 -1.879,0.706 -3.817,1.432 -1.938,0.727 -3.727,1.453 -3.976,1.614 -0.585,0.377 -0.868,0.917 -0.872,1.658 -0.003,0.469 0.181,1.036 0.873,2.69 0.482,1.153 0.877,2.205 0.877,2.337 0,0.535 -0.399,0.967 -2.611,2.826 -1.271,1.069 -2.399,2.1 -2.507,2.292 -0.108,0.192 -0.169,0.485 -0.137,0.652 0.056,0.285 1.578,1.755 3.128,3.022 0.651,0.532 4.594,2.999 5.226,3.099 0.529,0.084 1.094,-0.705 2.02,-1.471 0.907,-0.752 1.448,-1.504 1.815,-2.526 0.345,-0.958 0.258,-1.603 -0.424,-3.156 -0.52,-1.185 -0.658,-1.836 -0.484,-2.28 0.041,-0.102 1.449,-1.434 3.129,-2.96 3.661,-3.324 4.535,-3.919 4.736,-4.513 0.223,-0.66 0.066,-2.527 -0.435,-3.401 -1.196,-2.09 -6.166,-8.632 -6.588,-8.632 -2.174,0.348 -3.993,1.117 -6.284,1.47 -0.18,0 -0.946,-0.187 -1.701,-0.417 -3.227,-0.978 -4.273,-1.053 -4.898,-1.053 -0.625,0 -1.671,0.075 -4.898,1.053 -0.755,0.229 -1.529,0.417 -1.719,0.417 -2.257,-0.326 -3.93,-1.204 -6.267,-1.47 -0.364,0.241 -3.596,4.673 -4.934,6.61 -1.573,2.276 -2.018,3.569 -2.146,4.436 -0.179,1.213 0.276,1.417 4.977,5.677 1.581,1.432 2.907,2.687 2.947,2.787 0.176,0.449 0.037,1.126 -0.476,2.312 -0.704,1.629 -0.767,2.081 -0.427,3.065 0.369,1.069 0.996,1.934 1.942,2.68 0.88,0.694 1.22,1.39 1.74,1.401 0.185,0.004 1.231,-0.936 2.323,-1.449 z"
       style="opacity:0.2"
       inkscape:connector-curvature="0" />
    <path
       id="path8-2"
       d="m 414.43386,309.86972 c 0,0 2.454,-1.617 4.639,-3.18 1.229,-0.88 1.423,-1.104 1.222,-1.415 -0.161,-0.248 -4.127,-2.198 -6.022,-2.961 -1.994,-0.802 -2.204,-0.803 -4.138,-0.016 -1.735,0.704 -5.637,2.633 -5.965,2.949 -0.338,0.326 -0.168,0.625 0.684,1.201 1.756,1.187 5.122,3.471 5.122,3.471 2.288,1.95 2.111,1.951 4.458,-0.048 z m -9.2,-6.975 c 2.38,-1.118 2.736,-1.349 4.556,-2.96 1.529,-1.354 1.812,-1.757 1.595,-2.27 -0.074,-0.173 -1.223,-1.233 -2.554,-2.355 -3.146,-2.651 -3.015,-2.277 -1.818,-5.154 0.711,-1.709 0.897,-2.281 0.894,-2.755 -0.004,-0.715 -0.269,-1.252 -0.803,-1.623 -0.217,-0.151 -2.118,-0.917 -4.224,-1.703 -2.107,-0.786 -3.819,-1.482 -3.804,-1.545 0.033,-0.146 2.357,-0.399 4.044,-0.44 l 1.275,-0.032 2.346,0.818 c 2.046,0.715 2.367,0.861 2.521,1.151 0.097,0.183 0.175,0.429 0.173,0.546 -0.001,0.117 -0.381,1.815 -0.843,3.773 -0.809,3.428 -0.832,3.567 -0.621,3.776 0.333,0.333 3.605,1.104 4.626,1.026 1.167,-0.089 3.55,-0.8 3.791,-1.038 0.194,-0.194 0.157,-0.412 -0.635,-3.764 -0.463,-1.958 -0.843,-3.656 -0.844,-3.773 -0.002,-0.117 0.077,-0.364 0.174,-0.548 0.154,-0.29 0.456,-0.432 2.278,-1.069 2.939,-1.028 2.879,-1.019 5.549,-0.782 1.245,0.11 2.313,0.247 2.374,0.304 0.066,0.062 -0.008,0.15 -0.182,0.215 -0.161,0.061 -1.879,0.706 -3.817,1.432 -1.938,0.727 -3.727,1.453 -3.976,1.614 -0.585,0.377 -0.868,0.917 -0.872,1.658 -0.003,0.469 0.181,1.036 0.873,2.69 0.482,1.153 0.877,2.205 0.877,2.337 0,0.535 -0.399,0.967 -2.611,2.826 -1.271,1.069 -2.399,2.1 -2.507,2.292 -0.108,0.192 -0.169,0.486 -0.137,0.652 0.056,0.285 1.578,1.755 3.128,3.022 0.651,0.532 4.594,2.999 5.226,3.099 0.529,0.084 1.094,-0.705 2.02,-1.471 0.907,-0.752 1.448,-1.504 1.815,-2.525 0.345,-0.959 0.258,-1.604 -0.424,-3.157 -0.52,-1.185 -0.658,-1.836 -0.484,-2.28 0.041,-0.102 1.449,-1.434 3.129,-2.96 3.661,-3.324 4.535,-3.919 4.736,-4.513 0.223,-0.659 0.066,-2.527 -0.435,-3.401 -1.196,-2.09 -6.166,-8.632 -6.588,-8.632 -2.174,0.348 -3.993,1.117 -6.284,1.47 -0.18,0 -0.946,-0.187 -1.701,-0.417 -3.227,-0.978 -4.273,-1.053 -4.898,-1.053 -0.625,0 -1.671,0.075 -4.898,1.053 -0.755,0.229 -1.529,0.417 -1.719,0.417 -2.257,-0.326 -3.93,-1.204 -6.267,-1.47 -0.364,0.241 -3.596,4.673 -4.934,6.61 -1.573,2.276 -2.018,3.569 -2.146,4.436 -0.179,1.213 0.276,1.417 4.977,5.677 1.581,1.432 2.907,2.687 2.947,2.787 0.176,0.449 0.037,1.126 -0.476,2.312 -0.704,1.629 -0.767,2.081 -0.427,3.065 0.369,1.069 0.996,1.934 1.942,2.68 0.88,0.694 1.22,1.39 1.74,1.401 0.185,0.004 1.231,-0.936 2.323,-1.449 z"
       style="fill:#ffffff"
       inkscape:connector-curvature="0" />
    <path
       id="path10-7"
       d="m 403.32186,267.37572 -4.713,4.793 c -0.063,0.0206 -0.524,-0.3623 -1.026,-0.5098 -1.346,-0.3954 -3.054,-0.3283 -4.215,0.1992 -0.759,0.3451 -1.053,0.5867 -2.859,2.3616 -1.9468,1.913 -2.332,2.373 -2.332,2.779 0,0.033 0.1409,0.263 0.2461,0.441 0.2768,-0.4 0.8464,-1.002 2.0859,-2.22 1.806,-1.775 2.1,-2.0165 2.859,-2.3616 1.161,-0.5275 2.869,-0.5946 4.215,-0.1992 0.502,0.1475 0.963,0.5304 1.026,0.5098 l 4.713,-4.793 h 8.855 8.855 l 4.713,4.793 c 0.063,0.0206 0.524,-0.3623 1.026,-0.5098 1.346,-0.3954 3.054,-0.3283 4.215,0.1992 0.759,0.3451 1.053,0.5866 2.859,2.3616 1.24,1.218 1.809,1.82 2.086,2.22 0.105,-0.178 0.246,-0.408 0.246,-0.441 0,-0.406 -0.385,-0.866 -2.332,-2.779 -1.806,-1.7749 -2.1,-2.0165 -2.859,-2.3616 -1.161,-0.5275 -2.869,-0.5946 -4.215,-0.1992 -0.502,0.1475 -0.963,0.5304 -1.026,0.5098 l -4.713,-4.793 h -8.855 z m -13.6645,13.562 -0.6094,1.674 c -0.4439,1.218 -0.8283,2.282 -0.8555,2.366 -0.003,0.008 0.1293,0.524 0.1446,0.599 0.1156,-0.325 0.3421,-0.953 0.7109,-1.965 l 0.8066,-2.215 z m 45.0395,0 -0.198,0.459 0.807,2.215 c 0.369,1.012 0.595,1.64 0.711,1.965 0.015,-0.075 0.147,-0.591 0.144,-0.599 -0.027,-0.084 -0.411,-1.148 -0.855,-2.366 z"
       style="opacity:0.1;fill:#ffffff"
       inkscape:connector-curvature="0" />
  </g>
  <g
     id="g1190"
     transform="matrix(2.0578719,0,0,2.0578719,-387.65135,-215.17142)">
    <rect
       id="rect2"
       ry="15.044396"
       rx="17.379362"
       y="219.88432"
       x="505.98264"
       height="56"
       width="56"
       style="opacity:0.2" />
    <rect
       id="rect4"
       ry="17.7129"
       rx="19.380756"
       y="218.88432"
       x="505.98264"
       height="56"
       width="56"
       style="fill:#ef3939" />
    <circle
       id="circle6"
       r="19"
       cy="247.88432"
       cx="533.9826"
       style="opacity:0.2" />
    <circle
       id="circle8"
       r="19"
       cy="246.88432"
       cx="533.9826"
       style="fill:#ffffff" />
    <path
       id="path10-6"
       d="m 543.042,235.88482 c -0.48124,3.6e-4 -0.9685,0.10048 -1.35853,0.29545 -0.56996,0.2849 -1.14363,0.88843 -1.39812,1.47086 -0.27046,0.61896 -0.3093,1.71014 -0.0814,2.29015 0.0964,0.24527 0.26267,0.66671 0.3695,0.93651 0.24125,0.60932 0.32809,2.34917 0.17513,3.10194 -0.17222,0.84761 -0.70729,1.82674 -1.33453,2.44221 -1.88225,1.84667 -4.72797,1.87902 -6.59743,0.075 -0.64509,-0.62255 -0.73658,-1.17081 -3.64865,-6.33134 -0.988,-1.7522 -1.87466,-3.21919 -2.05866,-3.40877 -0.57866,-0.60809 -1.38333,-0.8255 -2.12012,-0.82912 -1.584,-0.0255 -2.68186,1.20526 -2.94239,2.52645 -0.19244,1.0573 -0.28096,0.87528 4.83585,9.92969 3.22971,5.7151 4.76477,8.34961 5.01651,8.60856 0.89161,0.91741 2.16185,1.1448 3.35051,0.59981 0.31254,-0.14331 0.66633,-0.40084 0.89233,-0.64956 0.44268,-0.48716 9.59703,-16.62519 9.74556,-17.18035 0.15568,-0.58184 0.11701,-1.40849 -0.0925,-1.98061 -0.2606,-0.71162 -0.97958,-1.44175 -1.68866,-1.71493 -0.31828,-0.1226 -0.68894,-0.18271 -1.06324,-0.18242 z"
       style="fill:#cc2626"
       inkscape:connector-curvature="0" />
    <path
       id="path12-1"
       d="m 522.78341,218.88432 c -9.3072,0 -16.80078,7.49358 -16.80078,16.80078 v 1 c 0,-9.3072 7.49358,-16.80078 16.80078,-16.80078 h 22.39844 c 9.3072,0 16.80078,7.49358 16.80078,16.80078 v -1 c 0,-9.3072 -7.49358,-16.80078 -16.80078,-16.80078 z"
       style="opacity:0.2;fill:#ffffff"
       inkscape:connector-curvature="0" />
  </g>
  <g
     id="g1"
     transform="translate(50.757735,-8.736975)">
    <path
       d="m 132.67732,328.87022 a 44.245064,44.245064 0 0 1 -5.00531,2.21934 48.117097,48.117097 0 0 1 -16.95195,3.02207 c -22.335017,0 -41.789627,-15.34647 -41.789627,-35.0844 a 14.874274,14.874274 0 0 1 7.74407,-12.89104 c -20.21013,0.84996 -25.40432,21.91005 -25.40432,34.23445 0,34.94274 32.15677,38.43701 39.09809,38.43701 3.73038,0 9.34955,-1.08606 12.749377,-2.17212 l 0.61386,-0.18888 a 60.583155,60.583155 0 0 0 31.44847,-24.93211 1.8887967,1.8887967 0 0 0 -2.50266,-2.64432 z"
       style="fill:url(#a);stroke-width:0.472199"
       id="path19-5" />
    <path
       d="m 132.67732,328.87022 a 44.245064,44.245064 0 0 1 -5.00531,2.21934 48.117097,48.117097 0 0 1 -16.95195,3.02207 c -22.335017,0 -41.789627,-15.34647 -41.789627,-35.0844 a 14.874274,14.874274 0 0 1 7.74407,-12.89104 c -20.21013,0.84996 -25.40432,21.91005 -25.40432,34.23445 0,34.94274 32.15677,38.43701 39.09809,38.43701 3.73038,0 9.34955,-1.08606 12.749377,-2.17212 l 0.61386,-0.18888 a 60.583155,60.583155 0 0 0 31.44847,-24.93211 1.8887967,1.8887967 0 0 0 -2.50266,-2.64432 z"
       style="opacity:0.35;isolation:isolate;fill:url(#b);stroke-width:0.472199"
       id="path20" />
    <path
       d="m 73.463543,352.85794 a 37.398175,37.398175 0 0 1 -10.71892,-10.05784 38.106474,38.106474 0 0 1 13.92988,-56.66391 c 1.51104,-0.70829 4.01369,-1.93601 7.36631,-1.88879 a 15.299254,15.299254 0 0 1 12.13551,6.13859 15.063154,15.063154 0 0 1 2.97486,8.83012 c 0,-0.0944 11.568877,-37.58705 -37.77594,-37.58705 -20.72954,0 -37.77593,19.64348 -37.77593,36.92597 a 61.480334,61.480334 0 0 0 5.71361,26.44316 60.441496,60.441496 0 0 0 73.851947,31.63734 35.651038,35.651038 0 0 1 -29.654107,-3.77759 z"
       style="fill:url(#c);stroke-width:0.472199"
       id="path21-3" />
    <path
       d="m 73.463543,352.85794 a 37.398175,37.398175 0 0 1 -10.71892,-10.05784 38.106474,38.106474 0 0 1 13.92988,-56.66391 c 1.51104,-0.70829 4.01369,-1.93601 7.36631,-1.88879 a 15.299254,15.299254 0 0 1 12.13551,6.13859 15.063154,15.063154 0 0 1 2.97486,8.83012 c 0,-0.0944 11.568877,-37.58705 -37.77594,-37.58705 -20.72954,0 -37.77593,19.64348 -37.77593,36.92597 a 61.480334,61.480334 0 0 0 5.71361,26.44316 60.441496,60.441496 0 0 0 73.851947,31.63734 35.651038,35.651038 0 0 1 -29.654107,-3.77759 z"
       style="opacity:0.41;isolation:isolate;fill:url(#d);stroke-width:0.472199"
       id="path22" />
    <path
       d="m 95.515253,309.17952 c -0.42498,0.47219 -1.60548,1.18049 -1.60548,2.64431 0,1.22772 0.80274,2.45544 2.26655,3.44705 6.752447,4.722 19.549047,4.06092 19.596267,4.06092 a 28.143071,28.143071 0 0 0 14.30764,-3.91926 28.99303,28.99303 0 0 0 14.35485,-24.97933 c 0.14166,-10.57726 -3.77759,-17.61303 -5.33585,-20.72955 -10.05784,-19.54904 -31.63734,-30.78738 -55.105637,-30.78738 a 60.441496,60.441496 0 0 0 -60.4415,59.59153 c 0.2361,-17.23527 17.37693,-31.16514 37.77593,-31.16514 1.6527,0 11.09669,0.14166 19.83237,4.72199 a 34.281661,34.281661 0 0 1 14.59096,13.83544 c 2.88041,5.00531 3.39983,11.38 3.39983,13.92987 0,2.54988 -1.27494,6.28025 -3.68315,9.39677 z"
       style="fill:url(#e);stroke-width:0.472199"
       id="path23-5" />
    <path
       d="m 95.515253,309.17952 c -0.42498,0.47219 -1.60548,1.18049 -1.60548,2.64431 0,1.22772 0.80274,2.45544 2.26655,3.44705 6.752447,4.722 19.549047,4.06092 19.596267,4.06092 a 28.143071,28.143071 0 0 0 14.30764,-3.91926 28.99303,28.99303 0 0 0 14.35485,-24.97933 c 0.14166,-10.57726 -3.77759,-17.61303 -5.33585,-20.72955 -10.05784,-19.54904 -31.63734,-30.78738 -55.105637,-30.78738 a 60.441496,60.441496 0 0 0 -60.4415,59.59153 c 0.2361,-17.23527 17.37693,-31.16514 37.77593,-31.16514 1.6527,0 11.09669,0.14166 19.83237,4.72199 a 34.281661,34.281661 0 0 1 14.59096,13.83544 c 2.88041,5.00531 3.39983,11.38 3.39983,13.92987 0,2.54988 -1.27494,6.28025 -3.68315,9.39677 z"
       style="fill:url(#f);stroke-width:0.472199"
       id="path24" />
  </g>
</svg>
