<svg width="142" height="142" viewBox="0 0 142 142" fill="none" xmlns="http://www.w3.org/2000/svg">
<path d="M0 24C0 10.7452 10.7452 0 24 0H118C131.255 0 142 10.7452 142 24V118C142 131.255 131.255 142 118 142H24C10.7452 142 0 131.255 0 118V24Z" fill="#FFB319"/>
<path d="M79.5858 92.9724H61.9188C57.1383 92.9724 56.3069 87.7902 57.1383 85.7173C57.554 84.6809 58.5932 83.2299 59.4246 82.1935C62.7502 84.059 66.6993 85.0955 70.8563 85.0955C84.1585 85.0955 94.7587 74.3166 94.7587 61.2575C94.7587 54.2098 91.641 47.9912 86.8605 43.4309L87.4841 42.809C88.7312 41.5653 90.6018 40.7362 92.4724 40.9435L95.3823 41.1508V29.75H90.3939C84.5742 29.75 79.7937 33.2739 77.7152 38.2487C75.6368 37.6269 73.3504 37.2123 71.0641 37.2123C57.7618 37.2123 47.1616 47.9912 47.1616 61.0503C47.1616 66.2324 48.8244 71.2073 51.7343 75.1457C51.3186 75.5603 50.695 75.9749 50.2793 76.1822C50.0715 76.3894 49.8636 76.5967 49.6558 76.804C44.8753 81.3643 42.589 87.1683 43.8361 93.8015C44.4596 97.3254 47.5773 101.057 50.695 103.129C52.7735 104.58 55.4755 105.202 58.1775 105.202L78.1309 104.373C80.4172 104.373 82.4957 105.41 83.7428 107.482L86.237 112.25L98.5 108.104L96.4215 103.544C93.3038 97.1181 86.8605 92.9724 79.5858 92.9724ZM71.0641 49.8568C77.2995 49.8568 82.4957 55.0389 82.4957 61.2575C82.4957 67.4761 77.2995 72.6583 71.0641 72.6583C64.8287 72.6583 59.6325 67.4761 59.6325 61.2575C59.6325 54.8317 64.6208 49.8568 71.0641 49.8568Z" fill="#18181A"/>
</svg>
