<?xml version="1.0" encoding="utf-8"?>
<!-- Generator: Adobe Illustrator 26.5.0, SVG Export Plug-In . SVG Version: 6.00 Build 0)  -->
<svg version="1.1" id="Layer_2" xmlns="http://www.w3.org/2000/svg" xmlns:xlink="http://www.w3.org/1999/xlink" x="0px" y="0px"
	 viewBox="0 0 500 205" style="enable-background:new 0 0 500 205;" xml:space="preserve">
<style type="text/css">
	.st0{fill:#F5F7FA;}
</style>
<g>
	<path class="st0" d="M116.9,78.3v-3.8c0-1.4-0.1-2.8-0.3-4.2c-2-13.4-13.6-23.8-27.6-23.8c-14,0-25.6,10.3-27.6,23.8
		c-0.2,1.4-0.3,2.8-0.3,4.2v3.8c-8.4,4.8-14,13.8-14,24.2v28c0,15.4,12.5,28,28,28h28c0-7.7-6.3-14-14-14H75c-7.7,0-14-6.3-14-14
		v-28c0-7.7,6.3-14,14-14h28c7.7,0,14,6.3,14,14v7c0,5.2-2.8,9.7-7,12.1v-19.1c0-3.9-3.1-7-7-7H75c-3.9,0-7,3.1-7,7v28
		c0,3.9,3.1,7,7,7h28c4.9,0,9.5-1.3,13.5-3.5c8.6-4.8,14.4-13.9,14.4-24.5v-7C130.9,92.2,125.3,83.1,116.9,78.3z M95.9,123.5H82v-14
		h14V123.5z M75,74.5c0-2.5,0.7-4.9,1.9-7c2.4-4.2,6.9-7,12.1-7c5.2,0,9.7,2.8,12.1,7c1.2,2.1,1.9,4.4,1.9,7H75z"/>
	<path class="st0" d="M194.7,97.2c-1.4-1.2-2.9-2.2-4.5-2.9c-1.7-0.7-3.4-1.2-5.2-1.4c-1.8-0.3-3.5-0.4-5.1-0.4
		c-3.8,0-7.4,0.4-10.7,1.2c-3.3,0.8-5.8,1.7-7.5,2.8v10.7c1.7-1.4,4-2.6,6.8-3.5c2.8-0.9,5.5-1.3,8.1-1.3c3.5,0,6.1,0.7,8.1,2.1
		c1.9,1.4,2.9,3.6,2.9,6.6v3.7c-0.6-0.3-1.2-0.7-1.9-1c-1.5-0.7-3.3-1.3-5.2-1.7c-1.9-0.4-4-0.6-6.2-0.6c-3.6,0-6.7,0.6-9.2,1.7
		c-2.5,1.1-4.4,2.8-5.7,5c-1.3,2.2-1.9,4.9-1.9,8.1c0,3,0.5,5.5,1.6,7.5c1.1,2,2.5,3.6,4.4,4.8c1.9,1.2,4,2,6.3,2.5
		c2.3,0.5,4.8,0.7,7.5,0.7c4.4,0,8.2-0.3,11.5-1c3.3-0.7,5.9-1.8,7.7-3.5c1.8-1.6,2.7-3.9,2.7-6.7l0.1-22.1c0-2.6-0.4-4.8-1.2-6.6
		C197.2,100,196.1,98.4,194.7,97.2z M187.5,129.3c0,1.5-0.8,2.5-2.3,3c-1.5,0.5-4,0.7-7.4,0.7c-1.5,0-2.9-0.2-4.3-0.7
		c-1.4-0.5-2.5-1.3-3.3-2.3c-0.9-1-1.3-2.3-1.3-3.8c0-2.2,0.8-3.9,2.4-4.9c1.6-1,4-1.6,7.3-1.6c2.3,0,4.5,0.3,6.5,0.8
		c0.8,0.2,1.6,0.5,2.3,0.7V129.3z"/>
	<path class="st0" d="M240.1,94.9c-0.6-0.3-1.3-0.6-2-0.9c-1.8-0.6-3.5-1-5.1-1.3c-1.7-0.2-3-0.3-4.1-0.3c-7.4,0-12.9,2.2-16.6,6.5
		c-3.6,4.3-5.5,10.2-5.5,17.7c0,5,0.6,9.1,1.9,12.4c1.3,3.3,3,5.8,5.2,7.7c2.2,1.9,4.8,3.2,7.7,3.9c2.9,0.8,6,1.2,9.2,1.2
		c2.5,0,5-0.3,7.5-0.8c2.5-0.5,4.7-1.3,6.7-2.3c2-1,3.6-2.3,4.9-3.8c1.2-1.6,1.9-3.4,1.9-5.5v-55h-11.7V94.9z M240.1,128.1
		c0,1.1-0.8,2-2.5,2.6c-1.7,0.6-3.8,1-6.3,1c-3.2,0-5.7-0.6-7.5-1.9c-1.8-1.3-3.1-3.1-3.8-5.3c-0.7-2.2-1.1-4.8-1.1-7.7
		c0-3.4,0.4-6.2,1.3-8.4c0.9-2.2,2.3-3.8,4.2-4.8c1.9-1,4.2-1.5,7-1.5c1.4,0,2.9,0.2,4.4,0.6c1.5,0.4,3,1,4.4,1.8V128.1z"/>
	<path class="st0" d="M292.7,94.9c-0.6-0.3-1.3-0.6-2-0.9c-1.8-0.6-3.5-1-5.1-1.3c-1.7-0.2-3-0.3-4.1-0.3c-7.4,0-12.9,2.2-16.6,6.5
		c-3.6,4.3-5.5,10.2-5.5,17.7c0,5,0.6,9.1,1.9,12.4c1.3,3.3,3,5.8,5.2,7.7c2.2,1.9,4.8,3.2,7.7,3.9c2.9,0.8,6,1.2,9.2,1.2
		c2.5,0,5-0.3,7.5-0.8c2.5-0.5,4.7-1.3,6.7-2.3c2-1,3.6-2.3,4.9-3.8c1.2-1.6,1.9-3.4,1.9-5.5v-55h-11.7V94.9z M292.7,128.1
		c0,1.1-0.8,2-2.5,2.6c-1.7,0.6-3.8,1-6.3,1c-3.2,0-5.7-0.6-7.5-1.9c-1.8-1.3-3.1-3.1-3.8-5.3c-0.7-2.2-1.1-4.8-1.1-7.7
		c0-3.4,0.4-6.2,1.3-8.4c0.9-2.2,2.3-3.8,4.2-4.8c1.9-1,4.2-1.5,7-1.5c1.4,0,2.9,0.2,4.4,0.6c1.5,0.4,3,1,4.4,1.8V128.1z"/>
	<path class="st0" d="M335.4,126.4l-11.3-32.7h-13.4l18.9,46.3c-0.3,1.1-0.7,2.1-1.1,3c-0.8,1.8-1.8,3.1-3,3.9
		c-1.2,0.9-2.6,1.3-4.3,1.3c-0.9,0-1.8-0.1-2.6-0.3c-0.8-0.2-1.6-0.4-2.5-0.7v9.8c0.9,0.4,2,0.7,3.3,1c1.3,0.3,2.6,0.4,3.9,0.4
		c2,0,4-0.5,6-1.5c2-1,3.9-2.7,5.8-5c1.9-2.4,3.6-5.6,5.2-9.8l18.8-48.4h-12.5L335.4,126.4z"/>
	<rect x="360.3" y="128.4" class="st0" width="12.2" height="11.9"/>
	<polygon class="st0" points="387.1,94.2 387.1,140.4 398.9,140.4 398.8,94.2 	"/>
	<rect x="386.8" y="77" class="st0" width="12.3" height="9.7"/>
	<path class="st0" d="M450.4,103.2c-1.7-3.6-4.3-6.4-7.7-8.2c-3.4-1.8-7.7-2.7-12.9-2.7c-7.5,0-13.2,1.9-17.1,5.8
		c-3.9,3.9-5.9,10.2-5.9,18.8c0,8,1.9,14.2,5.7,18.4c3.8,4.3,9.6,6.4,17.3,6.4c7.4,0,13.1-2.1,17.1-6.4c4-4.3,6-10.4,6-18.4
		C453,111.4,452.1,106.9,450.4,103.2z M440.1,125c-0.8,2.3-2.1,4-3.7,5.3c-1.7,1.2-3.9,1.9-6.6,1.9c-4,0-6.9-1.3-8.7-3.9
		c-1.8-2.6-2.6-6.4-2.6-11.3c0-3.4,0.4-6.2,1.1-8.4c0.7-2.2,1.9-3.9,3.6-5c1.7-1.1,3.9-1.7,6.6-1.7c2.7,0,4.8,0.5,6.5,1.6
		c1.7,1.1,3,2.7,3.8,4.9c0.8,2.2,1.2,5.1,1.2,8.6C441.3,120,440.9,122.7,440.1,125z"/>
</g>
</svg>
