<?xml version="1.0" encoding="utf-8"?>
<!-- Generator: Adobe Illustrator 26.5.0, SVG Export Plug-In . SVG Version: 6.00 Build 0)  -->
<svg version="1.1" id="Layer_1" xmlns="http://www.w3.org/2000/svg" xmlns:xlink="http://www.w3.org/1999/xlink" x="0px" y="0px"
	 viewBox="0 0 400 400" style="enable-background:new 0 0 400 400;" xml:space="preserve">
<style type="text/css">
	.st0{fill:#F5F7FA;}
</style>
<g>
	<path class="st0" d="M249.9,103.6v-6.7c0-2.5-0.3-5-0.6-7.5C245.6,65.4,225,47,200,47c-25,0-45.6,18.4-49.3,42.4
		c-0.4,2.4-0.6,4.9-0.6,7.5v6.7c-14.9,8.6-24.9,24.7-24.9,43.1v49.9c0,27.5,22.3,49.9,49.9,49.9h49.9v0c0-13.8-11.2-24.9-24.9-24.9
		h-24.9c-13.8,0-24.9-11.2-24.9-24.9v-49.9c0-13.8,11.2-24.9,24.9-24.9h49.9c13.8,0,24.9,11.2,24.9,24.9v12.5
		c0,9.2-5,17.3-12.5,21.6v-34c0-6.9-5.6-12.5-12.5-12.5h-49.9c-6.9,0-12.5,5.6-12.5,12.5v49.9c0,6.9,5.6,12.5,12.5,12.5h49.9
		c8.8,0,17-2.3,24.1-6.2c15.4-8.5,25.8-24.9,25.8-43.6v-12.5C274.8,128.3,264.8,112.2,249.9,103.6z M212.5,184.2h-24.9v-24.9h24.9
		V184.2z M175.1,96.9c0-4.5,1.2-8.8,3.4-12.5c4.3-7.4,12.4-12.5,21.6-12.5c9.2,0,17.2,5,21.6,12.5c2.1,3.7,3.4,7.9,3.4,12.5H175.1z"
		/>
	<path class="st0" d="M85.7,289.7c-1.4-1.3-3-2.3-4.7-3c-1.7-0.7-3.5-1.2-5.4-1.5c-1.9-0.3-3.6-0.4-5.3-0.4c-4,0-7.7,0.4-11.1,1.2
		c-3.5,0.8-6,1.8-7.8,2.9v11c1.8-1.5,4.1-2.7,7-3.6c2.9-0.9,5.7-1.4,8.4-1.4c3.6,0,6.4,0.7,8.3,2.2c2,1.4,3,3.7,3,6.8v3.9
		c-0.6-0.4-1.3-0.7-2-1c-1.6-0.7-3.4-1.3-5.4-1.7c-2-0.4-4.1-0.6-6.4-0.6c-3.8,0-6.9,0.6-9.5,1.8c-2.6,1.2-4.6,2.9-5.9,5.2
		c-1.3,2.3-2,5.1-2,8.4c0,3.1,0.6,5.6,1.7,7.7c1.1,2.1,2.6,3.7,4.6,4.9c1.9,1.2,4.1,2.1,6.5,2.6c2.4,0.5,5,0.8,7.8,0.8
		c4.5,0,8.5-0.4,11.9-1.1c3.4-0.7,6.1-1.9,8-3.6c1.9-1.7,2.8-4,2.8-6.9l0.1-22.9c0-2.7-0.4-5-1.2-6.9
		C88.2,292.5,87.1,291,85.7,289.7z M78.2,322.9c0,1.6-0.8,2.6-2.3,3.1c-1.6,0.5-4.1,0.7-7.6,0.7c-1.5,0-3-0.3-4.4-0.8
		c-1.4-0.5-2.6-1.3-3.5-2.4c-0.9-1.1-1.3-2.4-1.3-3.9c0-2.3,0.8-4,2.5-5.1c1.7-1.1,4.2-1.6,7.6-1.6c2.4,0,4.7,0.3,6.8,0.8
		c0.8,0.2,1.6,0.5,2.3,0.8V322.9z"/>
	<path class="st0" d="M132.7,287.2c-0.7-0.3-1.3-0.7-2.1-0.9c-1.8-0.6-3.6-1.1-5.3-1.3c-1.7-0.2-3.1-0.3-4.2-0.3
		c-7.7,0-13.4,2.2-17.2,6.7c-3.8,4.5-5.7,10.6-5.7,18.3c0,5.2,0.7,9.5,2,12.8c1.3,3.4,3.1,6,5.4,8c2.3,1.9,5,3.3,8,4.1
		c3,0.8,6.2,1.2,9.5,1.2c2.6,0,5.2-0.3,7.8-0.8c2.6-0.5,4.9-1.3,6.9-2.3c2.1-1,3.8-2.3,5-4c1.3-1.6,1.9-3.5,1.9-5.7V266h-12.1V287.2
		z M132.7,321.7c0,1.1-0.9,2.1-2.6,2.7c-1.8,0.7-3.9,1-6.5,1c-3.3,0-5.9-0.7-7.8-2c-1.9-1.3-3.2-3.2-4-5.5c-0.8-2.3-1.2-4.9-1.2-8
		c0-3.5,0.5-6.4,1.4-8.7c0.9-2.3,2.4-3.9,4.3-5c1.9-1.1,4.4-1.6,7.2-1.6c1.5,0,3,0.2,4.6,0.6c1.6,0.4,3.1,1,4.5,1.8V321.7z"/>
	<path class="st0" d="M187.1,287.2c-0.7-0.3-1.3-0.7-2.1-0.9c-1.8-0.6-3.6-1.1-5.3-1.3c-1.7-0.2-3.1-0.3-4.2-0.3
		c-7.7,0-13.4,2.2-17.2,6.7c-3.8,4.5-5.7,10.6-5.7,18.3c0,5.2,0.7,9.5,2,12.8c1.3,3.4,3.1,6,5.4,8c2.3,1.9,5,3.3,8,4.1
		c3,0.8,6.2,1.2,9.5,1.2c2.6,0,5.2-0.3,7.8-0.8c2.6-0.5,4.9-1.3,6.9-2.3c2.1-1,3.8-2.3,5-4c1.3-1.6,1.9-3.5,1.9-5.7V266h-12.1V287.2
		z M187.1,321.7c0,1.1-0.9,2.1-2.6,2.7c-1.8,0.7-3.9,1-6.5,1c-3.3,0-5.9-0.7-7.8-2c-1.9-1.3-3.2-3.2-4-5.5c-0.8-2.3-1.2-4.9-1.2-8
		c0-3.5,0.5-6.4,1.4-8.7c0.9-2.3,2.4-3.9,4.3-5c1.9-1.1,4.4-1.6,7.2-1.6c1.5,0,3,0.2,4.6,0.6c1.6,0.4,3.1,1,4.5,1.8V321.7z"/>
	<path class="st0" d="M231.3,319.9L219.6,286h-13.9l19.5,47.9c-0.3,1.2-0.7,2.2-1.1,3.1c-0.8,1.8-1.9,3.2-3.1,4.1
		c-1.2,0.9-2.7,1.3-4.5,1.3c-1,0-1.9-0.1-2.7-0.3c-0.8-0.2-1.7-0.4-2.6-0.8v10.2c1,0.4,2.1,0.7,3.4,1c1.3,0.3,2.7,0.4,4.1,0.4
		c2.1,0,4.2-0.5,6.2-1.5c2-1,4-2.8,6-5.2c1.9-2.5,3.8-5.8,5.4-10.1l19.5-50.1h-12.9L231.3,319.9z"/>
	<rect x="257.1" y="322" class="st0" width="12.7" height="12.4"/>
	<rect x="284.5" y="269.9" class="st0" width="12.7" height="10.1"/>
	<polygon class="st0" points="284.8,286.5 284.8,334.3 297,334.3 296.9,286.5 	"/>
	<path class="st0" d="M350.3,295.9c-1.8-3.8-4.5-6.6-8-8.5c-3.5-1.9-8-2.8-13.4-2.8c-7.7,0-13.6,2-17.7,6c-4.1,4-6.1,10.5-6.1,19.4
		c0,8.3,2,14.7,5.9,19.1c4,4.4,9.9,6.6,17.9,6.6c7.7,0,13.6-2.2,17.7-6.6c4.2-4.4,6.2-10.8,6.2-19.1
		C353,304.4,352.1,299.7,350.3,295.9z M339.7,318.4c-0.8,2.4-2.1,4.2-3.9,5.5c-1.8,1.3-4,1.9-6.9,1.9c-4.2,0-7.1-1.4-9-4.1
		s-2.7-6.6-2.7-11.6c0-3.5,0.4-6.4,1.1-8.7c0.8-2.3,2-4,3.7-5.2s4-1.7,6.8-1.7c2.7,0,5,0.5,6.8,1.6c1.8,1.1,3.1,2.8,3.9,5.1
		c0.9,2.3,1.3,5.3,1.3,8.9C340.9,313.3,340.5,316.1,339.7,318.4z"/>
</g>
</svg>
