<svg id="Layer_1" data-name="Layer 1" xmlns="http://www.w3.org/2000/svg" xmlns:xlink="http://www.w3.org/1999/xlink" viewBox="0 0 545.48 424.75"><defs><linearGradient id="linear-gradient" x1="289.57" y1="351.41" x2="287.53" y2="173.07" gradientUnits="userSpaceOnUse"><stop offset="0" stop-color="#010101" stop-opacity="0"/><stop offset="0.95" stop-color="#010101"/></linearGradient><linearGradient id="linear-gradient-2" x1="185.17" y1="173.27" x2="245.01" y2="173.27" xlink:href="#linear-gradient"/><linearGradient id="linear-gradient-3" x1="314.5" y1="138.71" x2="303.65" y2="323.1" xlink:href="#linear-gradient"/><linearGradient id="linear-gradient-4" x1="350.64" y1="168.56" x2="395.8" y2="126.44" xlink:href="#linear-gradient"/><linearGradient id="linear-gradient-5" x1="185.52" y1="204.82" x2="186.88" y2="227.87" xlink:href="#linear-gradient"/><linearGradient id="linear-gradient-6" x1="218.13" y1="136.09" x2="168.83" y2="181.75" gradientUnits="userSpaceOnUse"><stop offset="0" stop-color="#fff" stop-opacity="0"/><stop offset="0.95" stop-color="#fff"/></linearGradient><linearGradient id="linear-gradient-7" x1="213.97" y1="135.82" x2="190.81" y2="164.27" xlink:href="#linear-gradient-6"/><linearGradient id="linear-gradient-8" x1="567.06" y1="584.06" x2="517.76" y2="629.72" gradientTransform="translate(-620.24 -40.66) rotate(-32.49)" xlink:href="#linear-gradient-6"/><linearGradient id="linear-gradient-9" x1="562.9" y1="583.79" x2="539.74" y2="612.24" gradientTransform="translate(-620.24 -40.66) rotate(-32.49)" xlink:href="#linear-gradient-6"/><linearGradient id="linear-gradient-10" x1="511.13" y1="693.13" x2="461.83" y2="738.79" gradientTransform="translate(-620.24 -40.66) rotate(-32.49)" xlink:href="#linear-gradient-6"/><linearGradient id="linear-gradient-11" x1="506.97" y1="692.86" x2="483.81" y2="721.32" gradientTransform="translate(-620.24 -40.66) rotate(-32.49)" xlink:href="#linear-gradient-6"/><linearGradient id="linear-gradient-12" x1="670.49" y1="1151.5" x2="621.19" y2="1197.16" gradientTransform="translate(-962.98 125.38) rotate(-51.67)" xlink:href="#linear-gradient-6"/><linearGradient id="linear-gradient-13" x1="666.33" y1="1151.24" x2="643.17" y2="1179.69" gradientTransform="translate(-962.98 125.38) rotate(-51.67)" xlink:href="#linear-gradient-6"/><linearGradient id="linear-gradient-14" x1="502.9" y1="1345.31" x2="466.89" y2="1378.66" gradientTransform="translate(-1212.12 353.86) rotate(-70.63)" xlink:href="#linear-gradient-6"/><linearGradient id="linear-gradient-15" x1="499.86" y1="1345.11" x2="482.95" y2="1365.9" gradientTransform="translate(-1212.12 353.86) rotate(-70.63)" xlink:href="#linear-gradient-6"/><linearGradient id="linear-gradient-16" x1="585.87" y1="729.72" x2="535.08" y2="776.76" gradientTransform="translate(-548.27 -66.04) rotate(-30.01)" xlink:href="#linear-gradient-6"/><linearGradient id="linear-gradient-17" x1="581.58" y1="729.44" x2="557.72" y2="758.75" gradientTransform="translate(-548.27 -66.04) rotate(-30.01)" xlink:href="#linear-gradient-6"/><linearGradient id="linear-gradient-18" x1="509.29" y1="649.96" x2="458.5" y2="697" gradientTransform="translate(-548.27 -66.04) rotate(-30.01)" xlink:href="#linear-gradient-6"/><linearGradient id="linear-gradient-19" x1="505" y1="649.68" x2="481.14" y2="679" gradientTransform="translate(-548.27 -66.04) rotate(-30.01)" xlink:href="#linear-gradient-6"/><linearGradient id="linear-gradient-20" x1="477.55" y1="591.53" x2="443.53" y2="623.04" gradientTransform="translate(-548.27 -66.04) rotate(-30.01)" xlink:href="#linear-gradient-6"/><linearGradient id="linear-gradient-21" x1="474.68" y1="591.34" x2="458.7" y2="610.98" gradientTransform="translate(-548.27 -66.04) rotate(-30.01)" xlink:href="#linear-gradient-6"/><linearGradient id="linear-gradient-22" x1="500.18" y1="1012.39" x2="449.38" y2="1059.44" gradientTransform="translate(-975.61 96.5) rotate(-53.19)" xlink:href="#linear-gradient-6"/><linearGradient id="linear-gradient-23" x1="495.89" y1="1012.12" x2="472.03" y2="1041.43" gradientTransform="translate(-975.61 96.5) rotate(-53.19)" xlink:href="#linear-gradient-6"/><linearGradient id="linear-gradient-24" x1="618.75" y1="1204.98" x2="582.74" y2="1238.33" gradientTransform="translate(-1212.12 353.86) rotate(-70.63)" xlink:href="#linear-gradient-6"/><linearGradient id="linear-gradient-25" x1="615.71" y1="1204.78" x2="598.79" y2="1225.57" gradientTransform="translate(-1212.12 353.86) rotate(-70.63)" xlink:href="#linear-gradient-6"/><linearGradient id="linear-gradient-26" x1="-1296.35" y1="1103.51" x2="-1332.36" y2="1136.86" gradientTransform="translate(238.63 1928.42) rotate(128.96)" xlink:href="#linear-gradient-6"/><linearGradient id="linear-gradient-27" x1="-1299.39" y1="1103.31" x2="-1316.31" y2="1124.1" gradientTransform="translate(238.63 1928.42) rotate(128.96)" xlink:href="#linear-gradient-6"/><linearGradient id="linear-gradient-28" x1="358.93" y1="123.92" x2="386.72" y2="95.14" xlink:href="#linear-gradient-6"/><clipPath id="clip-path" transform="translate(-15.96 -20.03)"><path d="M190.35,227.72,261,240.64V175.88A29.92,29.92,0,0,0,231.05,146h0c-16.52,0-32.43,16.6-32.43,33.13Z" fill="none"/></clipPath><linearGradient id="linear-gradient-29" x1="632.72" y1="637.54" x2="583.42" y2="683.2" gradientTransform="translate(-620.24 -40.66) rotate(-32.49)" xlink:href="#linear-gradient-6"/><linearGradient id="linear-gradient-30" x1="628.56" y1="637.27" x2="605.4" y2="665.72" gradientTransform="translate(-620.24 -40.66) rotate(-32.49)" xlink:href="#linear-gradient-6"/><linearGradient id="linear-gradient-31" x1="627.14" y1="605.46" x2="591.13" y2="638.82" gradientTransform="translate(-620.24 -40.66) rotate(-32.49)" xlink:href="#linear-gradient-6"/><linearGradient id="linear-gradient-32" x1="624.1" y1="605.26" x2="607.18" y2="626.05" gradientTransform="translate(-620.24 -40.66) rotate(-32.49)" xlink:href="#linear-gradient-6"/><linearGradient id="linear-gradient-33" x1="669.59" y1="884.12" x2="633.57" y2="917.48" gradientTransform="matrix(0.66, -0.75, 0.75, 0.66, -905.1, 77.92)" xlink:href="#linear-gradient-6"/><linearGradient id="linear-gradient-34" x1="666.55" y1="883.93" x2="649.63" y2="904.71" gradientTransform="matrix(0.66, -0.75, 0.75, 0.66, -905.1, 77.92)" xlink:href="#linear-gradient-6"/></defs><title>Inbox Full</title><path d="M561.21,334.76a53.53,53.53,0,0,1-1.59,8.81,75.59,75.59,0,0,1-8,19c-20.34,35.5-60.17,56-100.25,64.4s-81.47,6.56-122.36,8.43c-55.24,2.5-110.34,11.77-165.58,8.74A374.63,374.63,0,0,1,86,431.63C69.05,427,34,421,23.75,405.26c-6.41-9.8-7.47-28.17-7.68-43.64-.07-6.35,0-12.2-.07-16.82-.43-24.21,3.17-49,16.28-69.9,5.47-8.67,12.38-16.43,17.21-25.49,19.81-37.26-.92-84.64,12.33-124.72,5.29-16,15.76-29.82,27.18-42.2,24.15-26.15,54.33-47.73,88.8-56.61,21.47-5.54,43.93-6,66.1-5.82,60.6.46,122.82,6,177.25,32.61s100,78.26,104.52,138.68c1.24,16.39-.46,33.07,3,49.14C535.89,273.31,564.31,301.27,561.21,334.76Z" transform="translate(-15.96 -20.03)" fill="#0fb5ba" opacity="0.24" style="isolation:isolate"/><path d="M559.62,343.57a75.59,75.59,0,0,1-8,19c-20.34,35.5-60.17,56-100.25,64.4s-81.47,6.56-122.36,8.43c-55.24,2.5-110.34,11.77-165.58,8.74A374.63,374.63,0,0,1,86,431.63C69.05,427,34,421,23.75,405.26c-6.41-9.8-7.47-28.17-7.68-43.64,3.84.6,7.65,1.51,11,1.83,11.35,1.1,22.84,1.17,34.22,1.52q36.18,1.15,72.38,1.55,144.15,1.53,288.08-9.48Q490.81,351.75,559.62,343.57Z" transform="translate(-15.96 -20.03)" fill="#0fb5ba" opacity="0.24" style="isolation:isolate"/><rect x="275.3" y="206.03" width="27.12" height="167.26" fill="#0fb5ba"/><rect x="275.3" y="206.03" width="27.12" height="167.26" fill="url(#linear-gradient)"/><path d="M382.15,174.72V241H196.32V174.72a34.55,34.55,0,0,1,34.58-34.54H347.57A34.58,34.58,0,0,1,382.15,174.72Z" transform="translate(-15.96 -20.03)" fill="#0fb5ba"/><path d="M215.09,125.92h0A29.92,29.92,0,0,1,245,155.84v64.76a0,0,0,0,1,0,0H185.17a0,0,0,0,1,0,0V155.84a29.92,29.92,0,0,1,29.92-29.92Z" fill="url(#linear-gradient-2)"/><path d="M382.16,174.71V241H267.66V170.83c-3.42-18.33-16.32-26.75-26.93-30.63H347.58A34.56,34.56,0,0,1,382.16,174.71Z" transform="translate(-15.96 -20.03)" fill="url(#linear-gradient-3)"/><path d="M382.16,174.71v2.43a8.25,8.25,0,0,1-2,2.58c-2.93,2.47-7.16,2.5-10.93,1.9-7.09-1.16-14-4.19-19-9.3-6.45-6.6-9.06-15.73-10.64-24.58-.6-3.2-1.52-6.06,0-7.54h8A34.56,34.56,0,0,1,382.16,174.71Z" transform="translate(-15.96 -20.03)" fill="url(#linear-gradient-4)"/><rect x="120.69" y="211.45" width="131" height="9.51" rx="4.76" fill="#0fb5ba"/><rect x="120.69" y="211.45" width="131" height="9.51" rx="4.76" fill="url(#linear-gradient-5)"/><path d="M233,378.66c-15.78,2.82-31.44,6.48-47.4,8-10.35,1-21.79,1.53-29.3,8.73a9.75,9.75,0,0,0-3.34,6c-.43,5,4.78,8.47,9.43,10.3,13.6,5.37,28.37,6.92,43,7.84,23.76,1.52,47.59,1.54,71.41,1.56l70.93.07c20.94,0,44.19-.85,59.19-15.46,3-2.9,5.58-6.46,6.1-10.58.82-6.66-4.24-12.93-10.34-15.72-10.59-4.83-26.42-3.83-37.95-5.11q-22.5-2.47-45.16-2.75A461.43,461.43,0,0,0,233,378.66Z" transform="translate(-15.96 -20.03)" fill="#0fb5ba" opacity="0.24" style="isolation:isolate"/><path d="M332.2,184.89c-.26.85-1,3.42-1.23,4.35l-2.54,9.39a5.12,5.12,0,0,0-.17,1.27,1,1,0,0,0,1.1,1,4.67,4.67,0,0,0,2.67-1.09,10.33,10.33,0,0,0,3.42-8,10.61,10.61,0,0,0-4.86-9.18,15,15,0,0,0-7.57-1.77c-8.92,0-15.18,5.91-15.18,14.29,0,8.11,5.63,13.44,14.12,13.44a23,23,0,0,0,6.47-.93,19,19,0,0,0,4.74-2.24l2.58,3.72a20.09,20.09,0,0,1-5.29,2.45,30.4,30.4,0,0,1-9,1.35c-6,0-10.61-1.69-13.95-5a17.4,17.4,0,0,1-4.91-12.51,18.25,18.25,0,0,1,5.16-13.19c3.89-3.89,9-5.8,15.56-5.8,9.85,0,16.87,6.35,16.87,15.18a14.27,14.27,0,0,1-4,10.19,11.36,11.36,0,0,1-7.9,3.47,4.17,4.17,0,0,1-3.64-1.65,3.1,3.1,0,0,1-.38-1.31,6.89,6.89,0,0,1-5.67,2.66c-4.18,0-6.85-3.13-6.85-7.95,0-7.14,4.7-13.06,10.32-13.06,2.37,0,3.55.59,4.69,2.37l.43-1.48Zm-8.71,12.56a15.79,15.79,0,0,0,1.69-6.52c0-1.73-1-2.91-2.45-2.91s-3.09,1-4.15,3a14.73,14.73,0,0,0-1.69,6.34c0,2.24.85,3.43,2.45,3.43S322.39,199.6,323.49,197.45Z" transform="translate(-15.96 -20.03)" fill="#0fb5ba"/><rect x="173.39" y="156.45" width="72.46" height="44.67" transform="translate(158.05 -114.44) rotate(42.11)" fill="#0fb5ba"/><polygon points="205.56 199.62 151.81 151.03 181.76 117.89 236.92 166.99 205.56 199.62" fill="url(#linear-gradient-6)"/><polygon points="181.76 117.89 183.98 169.64 235.27 167.16 181.76 117.89" fill="url(#linear-gradient-7)"/><rect x="143.06" y="177.35" width="72.46" height="44.67" transform="translate(19.94 -47.2) rotate(9.62)" fill="#0fb5ba"/><polygon points="195.31 207.72 123.88 195.61 131.34 151.57 204.25 163.35 195.31 207.72" fill="url(#linear-gradient-8)"/><polygon points="131.34 151.57 161.01 194.02 202.94 164.38 131.34 151.57" fill="url(#linear-gradient-9)"/><rect x="154.47" y="299.39" width="72.46" height="44.67" transform="translate(40.51 -47.39) rotate(9.62)" fill="#0fb5ba"/><polygon points="206.72 329.77 135.29 317.65 142.75 273.62 215.65 285.4 206.72 329.77" fill="url(#linear-gradient-10)"/><polygon points="142.75 273.62 172.43 316.06 214.35 286.43 142.75 273.62" fill="url(#linear-gradient-11)"/><rect x="338.47" y="344.63" width="72.46" height="44.67" transform="translate(-71.66 47.23) rotate(-9.55)" fill="#0fb5ba"/><polygon points="398.17 362.94 326.71 374.96 319.3 330.92 392.03 318.1 398.17 362.94" fill="url(#linear-gradient-12)"/><polygon points="319.3 330.92 361.27 361.26 391.13 319.5 319.3 330.92" fill="url(#linear-gradient-13)"/><rect x="223.02" y="351.68" width="52.93" height="32.63" transform="translate(-161.38 143.72) rotate(-28.52)" fill="#0fb5ba"/><polygon points="264.57 349.67 218.06 374.94 202.48 346.26 249.68 320.14 264.57 349.67" fill="url(#linear-gradient-14)"/><polygon points="202.48 346.26 238.68 357.27 249.39 321.32 202.48 346.26" fill="url(#linear-gradient-15)"/><rect x="292.48" y="302.74" width="74.65" height="46.02" transform="translate(59.7 -81.96) rotate(12.11)" fill="#0fb5ba"/><polygon points="345.52 336.05 272.52 320.39 282.18 275.39 356.69 290.77 345.52 336.05" fill="url(#linear-gradient-16)"/><polygon points="282.18 275.39 310.82 320.41 355.3 291.77 282.18 275.39" fill="url(#linear-gradient-17)"/><rect x="186.28" y="271.97" width="74.65" height="46.02" transform="translate(50.89 -60.37) rotate(12.11)" fill="#0fb5ba"/><polygon points="239.31 305.28 166.32 289.62 175.97 244.62 250.49 260 239.31 305.28" fill="url(#linear-gradient-18)"/><polygon points="175.97 244.62 204.62 289.64 249.09 261 175.97 244.62" fill="url(#linear-gradient-19)"/><rect x="145.26" y="234" width="50" height="30.82" transform="translate(40.14 -50.2) rotate(12.11)" fill="#0fb5ba"/><polygon points="175.51 249.69 126.62 239.2 133.08 209.06 182.99 219.37 175.51 249.69" fill="url(#linear-gradient-20)"/><polygon points="133.08 209.06 152.27 239.22 182.06 220.04 133.08 209.06" fill="url(#linear-gradient-21)"/><rect x="116.86" y="333.81" width="74.65" height="46.02" transform="translate(-81.65 16.24) rotate(-11.08)" fill="#0fb5ba"/><polygon points="179.28 352.19 106.01 366.54 97.17 321.38 171.72 306.18 179.28 352.19" fill="url(#linear-gradient-22)"/><polygon points="97.17 321.38 141.23 351.48 170.84 307.65 97.17 321.38" fill="url(#linear-gradient-23)"/><rect x="129.06" y="195.85" width="52.93" height="32.63" transform="translate(-98.38 79.96) rotate(-28.52)" fill="#0fb5ba"/><polygon points="170.6 193.83 124.09 219.1 108.52 190.43 155.72 164.31 170.6 193.83" fill="url(#linear-gradient-24)"/><polygon points="108.52 190.43 144.72 201.44 155.43 165.49 108.52 190.43" fill="url(#linear-gradient-25)"/><rect x="183.46" y="205.94" width="52.93" height="32.63" transform="translate(435.84 389.21) rotate(171.07)" fill="#0fb5ba"/><polygon points="165.29 190.22 217.58 182 222.64 214.24 169.41 223.02 165.29 190.22" fill="url(#linear-gradient-26)"/><polygon points="222.64 214.24 192.23 191.73 170.08 222 222.64 214.24" fill="url(#linear-gradient-27)"/><circle cx="359.67" cy="123.15" r="29.78" fill="#0fb5ba"/><circle cx="359.67" cy="123.15" r="29.78" fill="url(#linear-gradient-28)"/><g clip-path="url(#clip-path)"><rect x="227.17" y="187.19" width="72.46" height="44.67" transform="translate(22.77 -61.12) rotate(9.62)" fill="#0fb5ba"/><polygon points="279.42 217.56 207.99 205.45 215.45 161.41 288.35 173.19 279.42 217.56" fill="url(#linear-gradient-29)"/><polygon points="215.45 161.41 245.12 203.86 287.05 174.22 215.45 161.41" fill="url(#linear-gradient-30)"/><rect x="217.28" y="160.45" width="52.93" height="32.63" transform="translate(17.02 -58.29) rotate(9.62)" fill="#0fb5ba"/><polygon points="251.15 177.24 198.96 168.39 204.42 136.22 257.67 144.83 251.15 177.24" fill="url(#linear-gradient-31)"/><polygon points="204.42 136.22 226.09 167.23 256.72 145.58 204.42 136.22" fill="url(#linear-gradient-32)"/></g><rect x="191.35" y="184.7" width="52.93" height="32.63" transform="translate(-37.86 6.66) rotate(-6.68)" fill="#0fb5ba"/><polygon points="230.03 194.11 177.46 200.27 173.67 167.86 227.2 161.17 230.03 194.11" fill="url(#linear-gradient-33)"/><polygon points="173.67 167.86 203.18 191.54 226.49 162.16 173.67 167.86" fill="url(#linear-gradient-34)"/></svg>