<svg width="244" height="244" viewBox="0 0 244 244" fill="none" xmlns="http://www.w3.org/2000/svg">
<path d="M208.417 35.583L244 122L208.417 208.417L122 244L35.583 208.417L0 122L35.583 35.583L122 0L208.417 35.583ZM51.1797 51.1797L21.2178 122L51.1797 192.82L122 222.782L192.82 192.82L222.782 122L192.82 51.1797L122 21.2178L51.1797 51.1797ZM90.1738 74.2607V143.218L122 111.392L153.826 143.218V74.2607H180.348V175.044H153.826L122 143.218L90.1738 175.044H63.6523V74.2607H90.1738Z" fill="black"/>
<path d="M192.82 51.1797L222.782 122L192.82 192.82L122 222.782L51.1799 192.82L21.217 122L51.1799 51.1797L122 21.2178L192.82 51.1797ZM65.7238 65.7246L42.4348 122H90.174V74.2607L100.782 84.8691V122H143.217V84.8691L153.826 74.2607V122H201.566L178.276 65.7246L122 42.4346L65.7238 65.7246Z" fill="black" fill-opacity="0.2"/>
</svg>
